<?xml version="1.0" encoding="UTF-8" standalone="no"?>
<!-- Various icons created with help of Inkscape (http://www.inkscape.org/) -->
<svg version="1.1">
  <symbol id="heart" viewBox="0 0 300 300">
    <path d="M 142.60959,239.44301 C 113.95321,222.16358 85.878166,200.14007 65.960999,179.31593 34.762678,146.69692 25.58634,117.48388 38.520684,91.959182 44.836353,79.49581 59.46944,65.48697 70.949494,60.913786 78.618407,57.858805 93.1368,57.186091 101.94215,59.477733 c 13.29152,3.459193 26.87142,11.182516 40.38467,22.968066 l 7.75335,6.762057 8.70991,-8.364533 c 24.65648,-23.678741 50.65888,-30.815814 72.23571,-19.827073 11.53148,5.872805 25.70955,20.774076 31.15572,32.744938 10.07795,22.151642 2.90076,46.630652 -22.5704,76.980142 -16.43339,19.58077 -46.61543,44.60439 -77.99281,64.66304 -6.53493,4.1776 -12.15993,7.59447 -12.5,7.59306 -0.34006,-0.001 -3.26898,-1.6009 -6.50871,-3.55442 z"/>
  </symbol>
  <symbol id="season-heart" viewBox="0 0 300 300">
    <path fill="#fdab2b" d="M 142.60959,239.44301 C 113.95321,222.16358 85.878166,200.14007 65.960999,179.31593 34.762678,146.69692 25.58634,117.48388 38.520684,91.959182 44.836353,79.49581 59.46944,65.48697 70.949494,60.913786 78.618407,57.858805 93.1368,57.186091 101.94215,59.477733 c 13.29152,3.459193 26.87142,11.182516 40.38467,22.968066 l 7.75335,6.762057 8.70991,-8.364533 c 24.65648,-23.678741 50.65888,-30.815814 72.23571,-19.827073 11.53148,5.872805 25.70955,20.774076 31.15572,32.744938 10.07795,22.151642 2.90076,46.630652 -22.5704,76.980142 -16.43339,19.58077 -46.61543,44.60439 -77.99281,64.66304 -6.53493,4.1776 -12.15993,7.59447 -12.5,7.59306 -0.34006,-0.001 -3.26898,-1.6009 -6.50871,-3.55442 z"/>
  </symbol>
  <symbol id="candle" viewBox="0 0 300 300">
    <path d="M 120.5,270.37631 C 106.13946,268.69198 97.386844,266.22075 90.081499,261.78791 80.205463,255.7952 80.590573,257.28941 79.87295,222.17903 79.528072,205.30556 78.958924,189.25 78.608176,186.5 78.257428,183.75 77.535605,167.79625 77.004124,151.04722 76.472644,134.29819 75.307902,113.78047 74.415809,105.45228 72.483555,87.413618 73.251287,81.451427 78.371933,74.729097 84.871113,66.197042 94.077339,63.135901 115.75,62.300604 L 131,61.712845 V 48.034561 c 0,-16.305565 1.47967,-22.13649 6.37489,-25.121471 5.61845,-3.425991 10.65579,-2.13244 12.51993,3.215024 0.60785,1.743683 1.10518,9.573082 1.10518,17.398665 0,11.826071 0.27029,14.452655 1.60091,15.556972 1.03298,0.857292 8.90504,1.959415 22.18984,3.106673 23.6378,2.04133 30.18343,3.583756 34.80002,8.200348 5.53852,5.538518 5.80917,8.220618 4.55201,45.109228 -0.61855,18.15 -1.59068,51.225 -2.16029,73.5 -1.68697,65.97002 -1.30846,60.10258 -4.26705,66.1449 -3.25131,6.64014 -8.00613,9.90886 -18.51891,12.73091 -15.89725,4.26745 -44.69467,5.31565 -68.69653,2.5005 z M 153.01155,196.25 c 3.93595,-2.28267 10.79008,-8.05418 17.5168,-14.75 13.37165,-13.31022 17.50437,-20.22507 18.24102,-30.52079 1.03974,-14.5317 -6.39421,-24.1634 -20.89797,-27.07617 -8.96987,-1.80141 -14.83949,0.75865 -21.5673,9.40664 l -2.18582,2.80967 -5.57937,-4.54445 C 131.25148,125.6392 127.93817,124 123.2278,124 c -10.23621,0 -18.14947,5.91689 -22.22651,16.61917 -2.965743,7.78512 -2.824923,13.1771 0.52285,20.01969 7.47958,15.28771 33.43154,39.31803 42.49861,39.35176 1.38752,0.005 5.43247,-1.67812 8.9888,-3.74062 z"/>
  </symbol>
  <symbol id="season-candle" viewBox="0 0 300 300">
    <path fill="#fdab2b" d="M 120.5,270.37631 C 106.13946,268.69198 97.386844,266.22075 90.081499,261.78791 80.205463,255.7952 80.590573,257.28941 79.87295,222.17903 79.528072,205.30556 78.958924,189.25 78.608176,186.5 78.257428,183.75 77.535605,167.79625 77.004124,151.04722 76.472644,134.29819 75.307902,113.78047 74.415809,105.45228 72.483555,87.413618 73.251287,81.451427 78.371933,74.729097 84.871113,66.197042 94.077339,63.135901 115.75,62.300604 L 131,61.712845 V 48.034561 c 0,-16.305565 1.47967,-22.13649 6.37489,-25.121471 5.61845,-3.425991 10.65579,-2.13244 12.51993,3.215024 0.60785,1.743683 1.10518,9.573082 1.10518,17.398665 0,11.826071 0.27029,14.452655 1.60091,15.556972 1.03298,0.857292 8.90504,1.959415 22.18984,3.106673 23.6378,2.04133 30.18343,3.583756 34.80002,8.200348 5.53852,5.538518 5.80917,8.220618 4.55201,45.109228 -0.61855,18.15 -1.59068,51.225 -2.16029,73.5 -1.68697,65.97002 -1.30846,60.10258 -4.26705,66.1449 -3.25131,6.64014 -8.00613,9.90886 -18.51891,12.73091 -15.89725,4.26745 -44.69467,5.31565 -68.69653,2.5005 z M 153.01155,196.25 c 3.93595,-2.28267 10.79008,-8.05418 17.5168,-14.75 13.37165,-13.31022 17.50437,-20.22507 18.24102,-30.52079 1.03974,-14.5317 -6.39421,-24.1634 -20.89797,-27.07617 -8.96987,-1.80141 -14.83949,0.75865 -21.5673,9.40664 l -2.18582,2.80967 -5.57937,-4.54445 C 131.25148,125.6392 127.93817,124 123.2278,124 c -10.23621,0 -18.14947,5.91689 -22.22651,16.61917 -2.965743,7.78512 -2.824923,13.1771 0.52285,20.01969 7.47958,15.28771 33.43154,39.31803 42.49861,39.35176 1.38752,0.005 5.43247,-1.67812 8.9888,-3.74062 z"/>
  </symbol>
  <symbol id="ascended-candle" viewBox="0 0 300 300">
    <defs>
      <radialGradient id="ac-gradient" gradientUnits="userSpaceOnUse" cx="48%" cy="52%" r="100">
        <stop offset="35%" stop-color="#9D3752"/>
        <stop offset="100%" stop-color="#FFDCCF"/>
      </radialGradient>
    </defs>
    <path style="fill:url('#ac-gradient');stroke: #9D3752;stroke-width: 2px;" d="M 132.19253,271.95392 C 109.84932,270.24014 97.72766,267.24222 88.061479,261.03945 79.819795,255.75078 79.721195,255.29293 78.900339,218.5 77.899922,173.6587 76.263326,133.04076 74.770363,116 74.071664,108.025 73.511182,97.225 73.524849,92 c 0.02912,-11.133955 1.803503,-15.557322 8.560808,-21.341324 6.489118,-5.554444 13.995804,-7.609561 32.485773,-8.893684 l 16.07144,-1.116157 -0.0714,-12.574417 c -0.0841,-14.798712 1.33242,-20.974279 5.64275,-24.601186 3.5813,-3.013464 9.66455,-3.369707 12.07419,-0.70708 2.74694,3.035331 3.82011,10.744087 3.148,22.612567 -0.85742,15.14074 -1.25595,14.726189 15.17162,15.78167 28.83453,1.852636 37.83926,3.715032 43.17231,8.929073 6.13884,6.001848 5.98043,1.253327 3.21615,96.410538 -0.51128,17.6 -1.20867,42.8 -1.54977,56 -0.72442,28.03361 -1.61228,32.6656 -7.36387,38.41719 -4.41499,4.41499 -11.90372,7.24094 -25.08281,9.46527 -11.35149,1.91586 -32.88987,2.63897 -46.80747,1.57146 z"/>
    <path style="fill:#fff" d="m 140.78738,211.25 c -0.97969,-1.12602 -1.72812,-4.78076 -2.09902,-10.25 -1.18159,-17.42369 -7.36292,-29.73213 -17.40411,-34.65552 C 116.1549,163.82946 114.19795,163.46824 104,163.15414 92.035288,162.78563 89,161.74267 89,158 c 0,-3.26299 3.252468,-4.73243 11.95614,-5.4017 15.31156,-1.17738 25.88251,-4.55111 30.81059,-9.83324 3.93609,-4.21887 6.41475,-13.19983 6.97291,-25.26506 0.54544,-11.79016 1.62804,-14.5 5.7929,-14.5 1.22242,0 2.67423,0.5625 3.22626,1.25 0.55203,0.6875 1.22744,6.2 1.50091,12.25 0.6374,14.10138 3.33173,22.01489 9.74029,28.60813 6.23844,6.41821 13.37124,8.96103 27.39521,9.76627 8.84755,0.50802 11.10188,0.9545 11.99488,2.3756 0.79965,1.27254 0.79946,2.22746 -7.1e-4,3.5 -0.85493,1.35965 -3.19591,1.92163 -10.49488,2.51944 -16.11782,1.32011 -25.11446,4.76537 -31.55735,12.08487 -5.01982,5.70283 -7.4862,13.50763 -8.10421,25.64569 -0.26604,5.225 -0.93238,10.0625 -1.48076,10.75 -1.41826,1.77804 -4.18453,1.54616 -5.9648,-0.5 z"/>
  </symbol>
  <symbol id="ticket" viewBox="0 0 300 300">
    <path d="m 182.76769,270.89304 c -2.03326,-0.77981 -3.01427,-2.11543 -3.83441,-5.22048 -5.92048,-22.41489 -36.15115,-31.45483 -51.60695,-15.43212 -4.68807,4.86003 -6.85474,8.72886 -7.84521,14.00849 -0.37968,2.0239 -1.30544,4.19031 -2.05724,4.81424 -0.91768,0.76161 -5.73082,1.0198 -14.64539,0.78563 -14.78073,-0.38826 -18.34352,-1.59572 -22.379378,-7.58453 -4.208241,-6.2446 -5.803311,-38.71372 -5.834386,-118.76427 -0.02607,-67.165763 0.558875,-79.706472 4.503103,-96.542226 2.406599,-10.272453 4.859129,-14.611482 9.30991,-16.471137 4.294248,-1.794251 19.702451,-2.956947 27.038781,-2.040334 4.94948,0.618396 5.83281,1.063031 6.72049,3.382837 4.72337,12.343709 11.96595,20.655 20.54693,23.578833 15.80661,5.385855 32.08481,-2.485683 39.82884,-19.259767 2.93235,-6.351652 2.93235,-6.351652 17.95978,-5.961033 17.9585,0.466809 20.58016,1.417112 23.76362,8.613855 1.94558,4.398291 2.02723,5.891361 1.45894,26.679001 C 225.36403,77.591013 224.59813,98.75 223.99311,112.5 c -1.90759,43.35339 -2.5226,87.00928 -1.64239,116.58448 0.85072,28.58448 0.85072,28.58448 -1.69616,33.61051 -3.73978,7.3801 -7.04315,8.69241 -22.65456,8.99982 -6.9642,0.13714 -13.71004,-0.21794 -15.23231,-0.80177 z m -33.24791,-96.25456 c 10.50714,0.41209 23.22793,-10.38934 23.63158,-20.89681 0.43159,-11.23483 -12.23571,-24.21416 -23.47883,-24.21598 -10.4923,-0.002 -21.90811,12.09943 -21.91823,22.59172 -0.0101,10.43995 11.33354,22.11193 21.76548,22.52107 z"/>
  </symbol>
  <symbol id="flaps" viewBox="0 0 300 300">
    <path d="m 136.47523,237.14822 c -0.94203,-0.3224 -5.37388,-1.07972 -9.84858,-1.68253 -6.08635,-0.81994 -8.13574,-1.82968 -8.13574,-4.00854 0,-3.48593 23.77276,-108.2021 25.02357,-110.22604 0.47904,-0.77464 2.05942,-1.40839 3.5126,-1.40839 2.34634,0 2.54086,6.41831 1.73763,57.3382 -0.49717,31.536 -1.39201,58.12701 -1.98789,59.09118 -1.03079,1.66784 -6.62617,2.15458 -10.30159,0.89612 z m 17.51621,-0.28161 c -0.46801,-0.78679 -0.96463,-27.44356 -1.10394,-59.23722 -0.24147,-55.13687 -0.10745,-57.80654 2.90681,-57.80654 2.74271,0 4.78594,7.09556 15.47129,53.72648 6.77118,29.5496 12.31131,55.00359 12.31131,56.56442 0,1.56083 -1.7342,3.49422 -3.85377,4.29635 -5.97487,2.26121 -24.78029,4.05652 -25.7317,2.45651 z m -60.335974,-10.7412 c -6.594188,-2.71085 -11.811088,-5.72856 -11.592995,-6.70605 0.455076,-2.03982 47.636719,-93.36567 51.204869,-99.11327 2.37267,-3.82184 7.48709,-3.73438 7.49272,0.12822 0.006,4.85075 -29.74154,108.28833 -31.46597,109.40896 -2.63439,1.71205 -2.14998,1.82722 -15.638624,-3.71782 z m 97.986294,3.7441 c -0.38581,-0.70653 -7.51953,-25.80966 -15.85297,-55.78464 -12.69078,-45.64811 -14.74924,-54.74878 -12.67395,-56.0319 1.5743,-0.97329 3.18737,-0.77378 4.42382,0.54702 1.07033,1.14348 13.33152,23.95905 27.24703,50.70127 19.03723,36.58477 24.89021,49.27335 23.64185,51.25244 -0.91251,1.44663 -6.23686,4.38368 -11.83192,6.5268 -11.04994,4.23259 -13.87777,4.75993 -14.95386,2.7888 z M 61.581968,208.42911 c -5.394009,-3.98685 -10.096575,-8.0196 -10.450229,-8.96162 -0.780636,-2.07963 73.658431,-85.40964 76.997751,-86.19417 1.29872,-0.30493 2.80102,0.59104 3.33846,1.99159 1.3375,3.48534 -54.15109,100.33869 -57.509492,100.38084 -1.413046,0.0194 -6.982482,-3.22978 -12.37649,-7.21664 z m 162.490622,3.4561 c -1.32156,-2.11957 -14.11346,-24.1534 -28.42631,-48.96411 -24.40521,-42.30531 -28.2402,-51.13028 -21.57492,-49.64778 3.64084,0.80978 76.30429,82.23056 76.30429,85.5004 0,2.72937 -18.52006,16.96524 -22.07079,16.96524 -1.00613,0 -2.91063,-1.73419 -4.23227,-3.85375 z m -6.929,-59.352 c -29.36459,-29.38374 -40.61644,-41.71193 -39.86271,-43.67607 0.57743,-1.50516 1.80695,-2.73661 2.73195,-2.73661 3.27231,0 96.05465,62.19995 96.05465,64.39363 0,1.79136 -16.2562,22.95857 -17.63189,22.95857 -0.20848,0 -18.78994,-18.42276 -41.292,-40.93952 z M 35.375365,184.48048 c -6.3137,-7.28719 -10.55209,-14.46167 -9.225041,-15.61571 0.38854,-0.33793 21.781295,-14.64856 47.539412,-31.80142 43.671874,-29.08195 53.016024,-33.97263 51.350784,-26.87654 -0.88643,3.77704 -77.922303,81.57303 -80.776026,81.57303 -1.420159,0 -5.420286,-3.27573 -8.889129,-7.27936 z M 14.046174,151.31723 C 11.103177,145.08834 8.9278304,138.8268 9.2120641,137.40269 9.7961696,134.47614 114.35472,97.114424 118.18931,98.462024 c 1.24719,0.43825 2.01793,2.017596 1.71283,3.509546 -0.57095,2.79152 -94.34732,60.67084 -98.299264,60.67084 -1.213185,0 -4.613705,-5.09635 -7.556702,-11.32518 z M 230.67858,133.54719 c -26.37693,-15.99538 -48.20775,-30.25385 -48.51284,-31.68541 -0.30493,-1.43163 0.46543,-2.973816 1.71276,-3.427086 1.2472,-0.45314 26.15468,7.471556 55.35011,17.610716 39.35875,13.66886 53.22798,19.1902 53.64507,21.35618 0.71759,3.72597 -9.79699,25.24289 -12.33117,25.23454 -1.0482,-0.003 -23.48695,-13.09348 -49.86393,-29.08894 z m -91.90104,-33.00187 c -4.97537,-4.205846 -8.29706,-9.818256 -8.29706,-14.018814 0,-2.61188 18.56188,-26.651395 20.57865,-26.651395 2.06505,0 20.52827,23.843126 20.52827,26.509948 0,4.300911 -4.708,12.388465 -8.93528,15.349381 -5.81259,4.07134 -18.39293,3.44471 -23.87458,-1.18912 z"/>
  </symbol>
  <symbol id="wb" viewBox="0 0 300 300">
    <path d="m 119.90359,232.16367 c -3.07803,-0.36502 -6.3702,-1.3059 -7.31594,-2.09084 -4.35335,-3.61318 -4.59037,-5.53676 -4.53121,-36.77317 0.0632,-33.35578 0.39334,-35.49694 5.92796,-38.44418 C 117.11374,153.18907 120.04336,153 142.7344,153 H 168 v -19.53212 c 0,-21.87023 -1.4436,-25.53682 -6.03026,-29.40873 -8.47712,-7.156129 -22.55706,-4.559226 -27.60261,5.1978 -0.93477,1.80763 -1.93252,7.14319 -2.33778,12.50142 -0.77696,10.27283 -1.95454,12.49163 -6.62964,12.49163 -5.10474,0 -5.79239,-3.09206 -6.39971,-15.20575 -0.3665,-7.31028 0.21759,-11.07083 3.95137,-16.84771 4.58427,-7.092766 10.04143,-11.336938 17.12914,-13.441761 11.58962,-3.441748 23.01125,-1.265442 31.60974,6.593091 9.12375,8.3386 9.30975,9.03609 9.30975,34.9114 v 22.33895 l 3.46972,1.25467 c 1.90835,0.69007 4.38335,2.41615 5.5,3.83575 1.94405,2.47145 2.03028,3.93663 2.03028,34.49588 0,34.30683 -0.26287,36.25454 -5.26035,38.97569 -2.50223,1.36247 -56.91933,2.17948 -66.83606,1.00346 z M 84.5,182.86435 c -15.552175,-6.30357 -34.659004,-22.11066 -44.547513,-36.85418 -5.63259,-8.39805 -11.454554,-21.66033 -14.09867,-32.11639 -3.62162,-14.321565 -1.5018,-41.621334 3.557954,-45.820556 1.322933,-1.097937 8.588012,3.207545 28.426632,16.84639 12.574123,8.644579 12.869272,9.158566 10.521301,18.322286 -1.408188,5.49591 -1.83907,10.65715 -1.774718,21.2581 0.0747,12.30471 0.404599,14.96873 2.724412,22 3.713756,11.25625 8.807134,19.26787 17.878012,28.12116 6.209233,6.0603 7.599711,7.93042 6.701314,9.01292 -1.5044,1.81269 -3.401002,1.6572 -9.388724,-0.76973 z m 120.99792,1.13229 c -0.48413,-0.78334 1.59083,-3.43235 5.7652,-7.36022 16.73109,-15.74306 23.97986,-34.71887 22.36729,-58.55302 -0.35662,-5.27087 -1.32909,-12.46003 -2.16104,-15.97591 -1.3598,-5.746591 -1.35577,-6.631919 0.0399,-8.762002 C 233.63097,90.107384 266.94842,68 269.7068,68 c 3.49588,0 5.46615,7.867518 6.03515,24.099092 0.40136,11.449208 0.15557,14.869088 -1.55475,21.632478 -4.49173,17.7624 -12.99981,33.10561 -25.57854,46.12757 -8.59897,8.90197 -16.35174,14.58379 -27.46824,20.13082 -9.19224,4.58684 -14.4514,5.93392 -15.6425,4.00668 z m -8.4032,-9.38251 c -0.91021,-1.09673 -0.18756,-2.50497 3.46379,-6.75 4.89994,-5.6966 9.11298,-13.23835 12.59655,-22.54901 1.87362,-5.0077 2.05514,-6.9821 1.51302,-16.45703 -0.65837,-11.5068 -2.62511,-18.86803 -7.75754,-29.035306 0,0 -2.32945,-3.779268 -2.2136,-5.865966 0.089,-1.603842 2.19003,-4.292542 2.19003,-4.292542 3.55575,-5.245631 5.6859,-7.046292 7.08824,-6.179597 1.65843,1.024969 5.49432,9.15381 8.9671,19.002701 4.55651,12.92235 5.93722,26.56033 3.70091,36.55589 -3.17525,14.19235 -10.18412,25.04498 -21.57453,33.40631 -5.35709,3.93246 -6.29536,4.18716 -7.97397,2.16455 z M 94.399618,172.17452 c -5.464689,-3.9586 -13.143523,-12.73563 -15.898409,-18.17213 -8.855432,-17.47536 -7.842537,-39.24413 2.908753,-62.513885 1.832357,-3.965897 3.859428,-7.536963 4.504603,-7.935703 1.509946,-0.933198 3.532817,0.783644 7.195105,6.106598 l 2.940888,4.274434 -4.008547,8.477316 C 81.098927,125.55371 83.184279,147.419 98.099892,165.9291 100.79495,169.27363 103,172.68281 103,173.50504 c 0,2.42424 -4.345019,1.75205 -8.600382,-1.33052 z"/>
  </symbol>
  <symbol id="col" viewBox="0 0 300 300">
    <path d="m 159.59804,258.24925 c -0.88775,-2.89577 -0.9154,-8.10924 -0.11298,-21.30355 0.6758,-11.11236 0.77425,-16.24293 -0.72669,-17.74388 -2.11263,-2.11262 -11.93612,-2.21523 -14.67725,-0.21087 -1.72207,1.25921 -1.37247,5.23495 -0.28009,9.96741 1.59259,6.8995 1.59188,26.24873 -0.001,27.84164 -0.66,0.66 -1.48698,1.2 -1.83774,1.2 -0.98837,0 -5.64617,-10.08634 -6.46509,-14 -0.4028,-1.925 -1.01656,-3.95 -1.36391,-4.5 -0.34735,-0.55 -1.8105,-4.825 -3.25144,-9.5 -2.54169,-8.2463 -2.20396,-12.00356 -5.38586,-12.31834 -1.80389,-0.17845 -4.40124,-1.05926 -5.7719,-1.95735 -2.46933,-1.61796 -2.4865,-1.73068 -1.87974,-12.33544 0.54383,-9.50502 2.61175,-22.44712 5.12256,-32.38887 0.48617,-1.925 1.42152,-6.2 2.07857,-9.5 3.32672,-16.70823 6.21132,-24.37547 11.85108,-31.5 5.10688,-6.45136 5.46255,-6.76062 10.9381,-9.51083 6.42543,-3.22731 8.35651,-3.13825 12.59223,0.58076 5.50507,4.83351 8.79003,10.81444 12.04486,21.93007 3.9308,13.42415 11.34848,62.2437 10.41834,70.54182 -0.293,2.61398 -3.02046,4.98966 -5.6061,5.2897 -2.90897,0.33756 -5.28396,5.1875 -5.28396,9.23063 0,2.41232 -4.45947,20.50535 -6.02331,24.43785 -0.43743,1.1 -1.03572,2.75806 -1.32953,3.68459 -0.2938,0.92652 -1.42939,2.16368 -2.52352,2.74924 -1.60144,0.85707 -2.09391,0.72358 -2.5256,-0.68458 z M 142,106.35008 c -4.16441,-1.73188 -8.12419,-6.975336 -10.44703,-13.833723 -3.08285,-9.102395 0.13133,-16.772546 9.94703,-23.737112 5.13465,-3.6432 13.55498,-5.61828 16.80003,-4.46075 4.1784,1.490463 10.69201,6.971699 13.1331,12.131733 5.82803,12.319449 1.46171,22.403232 -12.52962,28.936492 -6.22821,2.90826 -11.50389,3.20893 -16.90351,0.96336 z"/>
  </symbol>
  <symbol id="gift" viewBox="0 0 300 300">
    <path d="m 78.201273,228.05675 c -9.939455,-2.84162 -20.97757,-8.79893 -26.859803,-14.49632 -4.883891,-4.73042 -5.340633,-5.55427 -5.331701,-9.61703 0.01167,-5.30766 3.198393,-12.55491 9.327005,-21.21146 5.930688,-8.377 6.539352,-9.70677 13.145825,-28.72011 3.150984,-9.06849 7.01721,-19.03997 8.591614,-22.15885 4.826422,-9.56108 12.185448,-16.49386 25.846877,-24.34977 6.94285,-3.99244 15.47619,-9.939707 19.87317,-13.850502 11.59866,-10.316185 18.87782,-12.980624 23.32182,-8.536632 1.73811,1.738111 2.03327,2.977816 1.65249,6.940621 -0.39676,4.129244 -1.5596,6.272643 -8.06863,14.872573 -4.54701,6.00764 -7.86502,11.43375 -8.25156,13.4942 -2.11673,11.28313 9.07882,19.38262 29.13834,21.08032 21.40271,1.81138 49.70616,-12.00293 70.10253,-34.21555 15.24289,-16.600228 18.1913,-19.324044 23.68771,-21.883299 5.16213,-2.403605 11.01474,-3.077238 13.42948,-1.545729 1.03315,0.655255 0.5395,3.200979 -2.35983,12.169498 -12.17019,37.64615 -40.77022,72.57389 -73.032,89.19022 -11.91995,6.13933 -18.6328,8.20716 -38.31094,11.80134 -27.76511,5.07125 -32.42732,7.26416 -45.28968,21.30243 -4.22731,4.61378 -9.245317,9.12863 -11.151131,10.03299 -4.419458,2.09717 -11.458649,1.98905 -19.461586,-0.29894 z"/>
  </symbol>
  <symbol id="none" viewBox="0 0 300 300">
    <path transform="rotate(-45.051592)" d="M 108.18977 207.469 C 106.92064 206.19987 105.16472 205.41502 103.21978 205.41502 L 65.4075 205.41549 A 68.48774 68.48774 0 0 0 46.0332 166.28343 A 68.48774 68.48774 0 0 0 -50.823817 166.19621 A 68.48774 68.48774 0 0 0 -70.125037 205.41499 L -107.67491 205.4157 C -111.5648 205.4157 -114.69568 208.54775 -114.69568 212.43764 L -114.69485 216.11542 C -114.69485 220.00532 -111.56418 223.13757 -107.67429 223.13757 L -70.236289 223.13814 A 68.48774 68.48774 0 0 0 -50.911032 263.05323 A 68.48774 68.48774 0 0 0 45.945985 263.14044 A 68.48774 68.48774 0 0 0 65.502028 223.13745 L 103.22039 223.13689 C 107.11028 223.13689 110.24116 220.00484 110.24116 216.11495 L 110.24171 212.43855 C 110.24171 210.4936 109.4589 208.73813 108.18977 207.469 z M 33.34199 179.18913 A 50.374252 50.374252 0 0 1 47.16911 205.41564 L -51.615957 205.41508 A 50.374252 50.374252 0 0 1 -37.89899 179.12498 A 50.374252 50.374252 0 0 1 33.34199 179.18913 z M 47.345122 223.13629 A 50.374252 50.374252 0 0 1 33.276461 250.42873 A 50.374252 50.374252 0 0 1 -37.961756 250.36458 A 50.374252 50.374252 0 0 1 -51.792118 223.13679 L 47.345122 223.13629 z "/>
  </symbol>
  <!-- Item categories -->
  <symbol id="outfit" viewBox="0 0 300 300">
    <path d="M 204.11087,268.31144 C 200.47358,256.46683 197.38,245.07794 188.00004,209 184.06767,193.875 177.50896,169.67 173.42514,155.2111 169.34131,140.75221 166,128.28054 166,127.49629 c 0,-0.78426 0.8868,-1.90052 1.97066,-2.48059 3.22605,-1.72653 32.95233,-6.49848 33.94831,-5.44972 1.14739,1.20821 7.53037,43.72396 10.04895,66.93402 4.76715,43.93191 5.30279,76.09735 1.43212,86 -1.40121,3.58483 -2.56598,5.08815 -4.1153,5.31144 -1.92645,0.27764 -2.48788,-0.75323 -5.17387,-9.5 z M 81.912638,267.29024 C 81.130134,265.24676 81.405282,253.92847 82.940715,225 c 4.398451,-82.86943 5.904923,-101.27421 8.5021,-103.87139 1.366524,-1.36652 6.758715,-0.77297 32.432895,3.5701 l 3.37571,0.57104 -0.68986,7.61291 c -0.86634,9.56033 -9.06898,41.915 -19.04395,75.11734 -14.623418,48.675 -18.351012,58.7701 -22.525712,61.00434 -1.730588,0.92618 -2.159693,0.68731 -3.07926,-1.7141 z M 128,118.99407 c -19.38263,-1.52834 -40.994385,-5.98845 -44.108879,-9.10295 -2.698782,-2.69878 -2.426868,-5.4142 2.551736,-25.48243 8.05264,-32.459347 11.508626,-42.292995 15.465253,-44.004761 4.52824,-1.959064 15.45547,-2.182622 56.22921,-1.150378 l 44.63732,1.130056 4.62118,14.558196 c 7.82663,24.656365 10.89401,42.663261 8.16607,47.938517 -2.08067,4.02358 -9.49834,7.47419 -24.10633,11.21398 -13.71053,3.51004 -35.19517,5.19662 -37.87422,2.9732 -0.8093,-0.67165 -1.99656,-3.77411 -2.63836,-6.89434 -1.37083,-6.66452 -2.60863,-9.24027 -3.40801,-9.2416 -0.66059,-0.001 -2.45859,5.39344 -3.74936,10.06844 -2.68443,9.72262 -1.49606,9.12081 -15.78561,7.99407 z"/>
  </symbol>
  <symbol id="shoes" viewBox="0 0 300 300">
    <path d="m 101.31151,265.28007 c -5.768992,-0.18262 -14.744279,-0.42989 -20.261162,-2.95582 -3.006881,-1.33821 -6.111531,-4.32981 -7.350017,-6.59291 -1.238486,-2.2631 -2.031214,-3.28729 -1.867577,-5.99812 0.12987,-2.15144 9.713257,0.072 13.716989,0.5416 4.348312,0.50996 35.070587,0.97964 46.782887,-0.61106 11.71231,-1.5907 33.40791,-10.20209 45.51148,-17.67396 12.10356,-7.47187 22.5813,-16.75272 28.63432,-22.81855 6.05303,-6.06583 7.24493,-11.8965 10.4991,-11.48711 3.25417,0.40938 4.76666,7.9176 2.59817,12.8048 -13.22347,25.20404 -44.02023,38.63005 -57.05388,45.22287 -13.03365,6.59283 -35.86856,10.11993 -61.21031,9.56826 z M 90.493446,245.82425 c -7.186961,-1.47517 -18.886586,-3.20706 -22.207861,-11.22453 -1.627854,-4.41938 -1.861124,-10.13257 0.605155,-19.39812 2.466278,-9.26555 11.236495,-21.58252 23.037837,-33.20073 12.236773,-11.95397 16.956893,-13.05738 16.323693,-18.81003 -0.83225,-3.81686 -2.66269,-10.65901 -4.23805,-15.91952 -4.453313,-14.91717 -9.837888,-33.82269 -12.821538,-43.61222 -2.98365,-9.789529 -7.915795,-25.535922 -8.015671,-30.88562 -0.148988,-7.980363 0.403831,-9.473185 3.75865,-12.575373 3.354819,-3.102188 16.628459,-9.574757 22.262899,-11.760271 5.63444,-2.185514 28.79001,-7.948065 38.62701,-8.540829 7.87104,-0.474299 14.71372,-0.852445 22.07917,-0.87315 8.29185,-0.02331 17.53338,-0.02386 24,3.264489 5.35455,2.722845 6.99859,3.98338 8.65759,7.75 1.63248,3.706405 2.19255,5.457561 2.25,41.962028 0.0459,29.142896 -0.70627,40.091166 -0.0957,47.683796 0.61056,7.59264 4.27933,24.73754 7.2042,33.13061 1.77606,5.09647 4.8668,12.76222 3.4507,17.18522 -1.4161,4.423 -17.15187,19.38279 -30.5947,29.6244 -13.44284,10.24162 -36.27312,20.67777 -49.26745,23.78277 -12.99434,3.10499 -37.828974,3.89226 -45.015934,2.41708 z m 35.081384,-93.1182 c 1.71968,-0.70339 9.02329,-5.12128 10.63817,-5.74943 1.61489,-0.62815 3.95984,-0.77084 5.61058,-0.34793 1.65073,0.42291 11.29084,3.39159 16.05103,3.45563 4.76019,0.064 11.03191,0.6226 11.99675,-2.06432 -0.50159,-3.65305 -4.92778,-4.4215 -9.05383,-5.158 -2.84672,-0.50813 -7.4607,-1.03828 -7.91432,-3.55271 -0.27743,-1.53784 1.16741,-3.03417 2.48484,-3.72768 7.941,-4.18023 12.73682,-9.83017 10.87906,-12.60651 -1.85775,-2.77633 -7.52654,0.16025 -9.96802,1.67117 -2.44148,1.51093 -3.27773,2.29179 -4.92773,3.37756 -1.65,1.08578 -3.675,2.2394 -4.5,2.5636 -0.825,0.3242 -6.00849,2.65615 -8.52822,3.23314 -2.51972,0.57699 -2.95449,0.51676 -6.37628,0.30717 -3.35282,-0.20536 -14.05902,-2.68787 -16.65437,-4.5759 -3.26818,-2.47193 -5.62293,-1.9493 -5.25755,1.16689 0.21822,1.86118 2.02329,4.08119 5.81642,7.15347 6.08048,4.92495 7.26815,4.12525 6.11191,6.99857 -0.56217,1.39703 -9.02692,5.01351 -9.04759,7.36849 0,1.55834 0.24162,2.03136 1.32598,2.69597 1.08435,0.66462 9.59349,-1.5058 11.31317,-2.20918 z m 0.89001,-42.04223 c 3.55986,-1.65944 5.09437,-1.05253 13.94564,-0.20711 14.28941,1.36485 18.18974,2.40907 21.24152,1.03866 1.22999,-0.55233 1.85854,-3.48553 -1.4095,-4.26988 -3.50076,-0.84021 -7.11887,-1.52673 -11.08765,-2.3893 -4.53149,-0.98486 -4.42928,-3.99708 0.83675,-7.684017 3.43669,-2.659915 7.42732,-5.946942 6.75712,-8.645489 -0.6702,-2.698547 -2.1642,-1.915209 -3.50621,-1.992105 -2.84131,-0.162803 -7.09277,2.460004 -7.85657,3.342196 -3.26563,2.560146 -7.38849,5.066053 -10.77259,7.228037 -2.16137,1.38083 -8.9198,1.76779 -11.03833,1.549651 -2.11853,-0.21814 -8.3589,-1.611064 -11.23288,-2.561367 -2.87397,-0.950302 -10.15466,-3.572431 -11.47744,-0.565067 -0.73986,1.682076 3.06623,4.769381 5.17003,5.730701 3.1145,1.42315 7.35798,3.26675 7.5195,4.84753 0.16151,1.58077 0.057,2.40733 -2.84139,4.07587 -2.89835,1.66853 -6.64851,4.01457 -6.64851,6.19368 0,2.2703 3.14749,1.74042 6.89451,0.67998 4.64305,-1.31402 10.4057,-4.01013 15.506,-6.37197 z m 17.61801,-48.354262 c 8.3977,-2.009338 20.27518,-5.005174 32.90415,-8.869408 3.49979,-1.430938 5.61177,-3.819823 5.38436,-4.44015 -0.78014,-2.128032 -26.62192,-1.671039 -36.27585,-0.887245 -9.65393,0.783794 -18.27265,2.367676 -21.56991,3.387245 -6.55129,2.037887 -28.682206,8.871856 -29.654245,13.507729 14.210875,4.338016 35.099495,0.589015 49.211495,-2.698171 z"/>
  </symbol>
  <symbol id="mask" viewBox="0 0 300 300">
    <path d="m 146.83417,46.097332 c -2.8356,0.05019 -5.50942,0.28327 -7.82549,0.741676 -43.527902,8.615252 -72.758565,33.389947 -80.719166,69.697692 -5.101135,23.26589 -4.633736,59.36436 6.393972,82.46968 13.390429,28.05568 44.480204,49.28155 72.718224,53.93905 8.02735,1.32401 19.69901,1.7567 29.51954,-1.38566 18.74974,-5.99956 34.23807,-17.22184 48.00364,-30.1715 9.99122,-9.39902 16.04755,-17.3856 21.67012,-28.57848 12.93754,-25.75473 14.7893,-57.88908 1.50927,-88.38316 C 226.5852,77.976024 200.65816,58.582112 171.46701,49.377059 165.3076,47.434763 155.34094,45.946755 146.83417,46.097332 Z m 6.94823,18.902791 c 1.20153,0 10.93232,10.908818 14.41862,15.829364 1.71461,2.42002 4.79919,6.334026 4.79919,7.389907 0,2.427941 -5.07112,9.157901 -11.63807,16.508876 -9.43919,10.56612 -8.65262,9.39166 -16.24992,0.81387 -5.74732,-6.489037 -12.11272,-15.941621 -12.11272,-17.400503 0,-2.697775 18.36022,-23.141514 20.7829,-23.141514 z M 93.897978,121.06651 c 4.512929,0.019 8.764212,2.35054 13.932362,7.29315 5.10774,4.8849 6.68525,7.645 7.63608,13.36813 1.10577,6.65572 -0.10704,10.22431 -4.03337,11.86484 -4.33048,1.80941 -20.809933,1.8187 -24.951841,0.0139 -4.257949,-1.85528 -9.259509,-7.91224 -10.060487,-12.18184 -1.378417,-7.34758 2.920329,-15.31223 10.000675,-18.52797 2.676175,-1.21544 5.112668,-1.8402 7.476581,-1.83026 z m 98.635052,0.0259 c 2.46173,0.0301 4.96574,0.63216 7.36891,1.85818 6.12087,3.12262 12.75557,11.22413 14.02009,17.12037 0.5931,2.76552 0.52467,5.6789 0.52467,6.45095 0,3.03748 -2.55596,6.12314 -5.42116,7.12195 -1.65626,0.57738 -6.64442,1.35435 -11.92482,1.35235 -7.62118,-0.003 -10.21912,-0.38712 -12.60053,-1.86615 -8.76395,-5.44309 -11.69866,-13.90081 -7.60618,-21.91935 3.33547,-6.53526 9.34789,-10.19517 15.63902,-10.1183 z"/>
  </symbol>
  <symbol id="face-acc" viewBox="0 0 300 300">
    <path d="M 131,253.46459 C 114.67105,250.00683 101.19154,241.69438 92.263781,229.577 84.029339,218.40063 80.837598,210 84.825686,210 c 2.147953,0 4.201004,2.17862 10.389767,11.02523 2.510646,3.58887 7.708887,9.49119 11.551647,13.11626 11.88349,11.21027 22.93705,15.13592 42.7329,15.17647 26.01561,0.0533 42.5907,-8.32737 58.75362,-29.70692 6.7294,-8.90134 7.42938,-9.57327 9.99638,-9.59573 4.35808,-0.0381 0.0208,9.46235 -9.67104,21.18393 -13.25844,16.03504 -32.74217,23.85377 -59.07896,23.70812 -6.6,-0.0365 -14.925,-0.68575 -18.5,-1.44277 z M 71.215647,190.95613 C 67.2429,189.36119 60.879155,183.6481 58.439728,179.48647 55.543464,174.54547 53.034522,164.2615 53.014781,157.25 53,152 53,152 56.246591,152 c 2.460359,0 18.086662,4.3714 19.484789,5.45079 0.127259,0.0982 0.872643,3.52452 1.656408,7.61392 0.783766,4.08941 2.366918,9.91029 3.518116,12.93529 2.534982,6.66117 2.759503,12.53068 0.512309,13.39301 -2.253201,0.86464 -7.522734,0.63899 -10.202566,-0.43688 z M 110,189.43405 c -3.6379,-0.78744 -7.05346,-2.16174 -7.75695,-3.12114 -2.09931,-2.86296 -5.599784,-14.94089 -4.876503,-16.82573 0.580658,-1.51317 1.502132,-1.6776 6.405833,-1.14307 10.68544,1.16478 13.19237,2.32196 15.28653,7.05616 1.03589,2.3418 2.18336,6.80975 2.54994,9.92877 C 122.27536,191 122.27536,191 119.38768,190.9205 117.79946,190.87678 113.575,190.20787 110,189.43405 Z m 70.34248,0.0161 c -0.78186,-2.0375 0.31657,-8.55754 2.25995,-13.41452 1.35225,-3.3796 2.28294,-4.16894 6.61016,-5.60621 2.76997,-0.92004 7.34281,-1.73053 10.16186,-1.80109 5.12555,-0.1283 5.12555,-0.1283 5.04623,4.02714 -0.047,2.46343 -1.26856,6.5225 -3,9.9688 -3.19978,6.36889 -3.64779,6.61181 -14.20651,7.70299 -5.12652,0.52979 -6.39388,0.36802 -6.87169,-0.87711 z M 220.75,190.3107 c -2.65432,-0.69364 -2.22551,-7.03237 0.94303,-13.93983 1.48116,-3.22896 3.40692,-9.00641 4.27946,-12.83877 1.58643,-6.96793 1.58643,-6.96793 7.13166,-8.65614 3.04987,-0.92851 8.16831,-2.01594 11.37431,-2.41651 5.8291,-0.72829 5.8291,-0.72829 5.26246,4.65614 -0.81371,7.7322 -4.64865,18.60426 -8.22638,23.3218 -6.0175,7.93459 -13.87906,11.67268 -20.76454,9.87331 z M 137.5,154.33213 C 107.70683,151.86179 83.712958,147.39237 54.167472,138.80947 39.834944,134.6459 39.834944,134.6459 36.265377,129.07295 22.812109,108.06917 22.6672,104.46037 34.533689,85.947442 c 4.385663,-6.842081 4.385663,-6.842081 0.175987,-9.179095 -4.16818,-2.313978 -4.208925,-2.390892 -4.133506,-7.802681 0.059,-4.233322 0.960877,-7.269427 4,-13.465666 3.592479,-7.324434 4.197477,-8.026402 7.164333,-8.31265 2.202258,-0.212478 6.607708,1.190344 13.75,4.378396 C 66,56.256793 66,56.256793 66,65.563297 66,75.52964 66.902195,79.185859 70.240926,82.75 72.113092,84.748562 73.318393,85 81.026589,85 c 4.772879,0 17.631938,-1.152106 28.575691,-2.560237 36.34392,-4.676366 57.65264,-4.414002 92.84769,1.143191 21.10407,3.332268 27.57294,3.523184 31.07253,0.917046 1.47711,-1.1 3.64195,-3.649428 4.81075,-5.665395 1.94879,-3.36129 2.01478,-4.025023 0.79545,-8 -0.7313,-2.384033 -1.54796,-6.161809 -1.81479,-8.395059 -0.45627,-3.818768 -0.25388,-4.213501 3.40029,-6.631714 C 247.15663,51.544434 254.77757,48 257.50194,48 c 1.41263,0 3.68777,0.733423 5.05586,1.629828 2.46001,1.611861 13.4422,16.359034 13.4422,18.05054 0,0.481712 -2.87672,3.319218 -6.39272,6.305568 -6.39272,5.429728 -6.39272,5.429728 -0.90526,15.972598 7.98439,15.340146 8.10818,21.093666 0.70418,32.728556 -2.79513,4.39235 -4.41974,5.71988 -10.60354,8.66452 -15.59733,7.42723 -63.77578,20.75335 -81.65861,22.5867 -9.55005,0.97907 -30.12116,1.18342 -39.64405,0.39382 z m 25.85743,-24.29742 C 168.11084,125.10379 172,120.36318 172,119.5 c 0,-0.86318 -3.93373,-5.65004 -8.74163,-10.63747 -8.74164,-9.068059 -8.74164,-9.068059 -11.76122,-5.57492 -1.66077,1.92123 -5.21596,6.67868 -7.90043,10.57211 -4.88086,7.07898 -4.88086,7.07898 -2.0686,10.85963 4.84529,6.51376 11.59294,14.28065 12.40664,14.28065 0.42905,0 4.66926,-4.03438 9.42267,-8.96529 z"/>
  </symbol>
  <symbol id="necklace" viewBox="0 0 300 300">
    <path d="m 98.439805,273.20023 c -10.503842,-5.95636 -13.523576,-11.03018 -13.594504,-22.84181 -0.08292,-13.80825 6.792397,-19.311 24.127779,-19.311 11.90154,0 14.82461,1.44427 14.82461,7.32474 0,4.02861 -2.63332,9.5102 -5.85182,12.18132 -3.2185,2.67111 -5.85182,6.61212 -5.85182,8.75779 0,2.2856 2.27958,2.00933 5.5045,-0.66712 4.21705,-3.49984 6.18715,-3.4638 8.42314,0.15413 1.73458,2.80661 -0.67388,7.63151 -5.93669,11.89308 -10.25633,8.30507 -11.22566,8.41742 -21.645195,2.50888 z m 68.271215,1.87931 c -3.2185,-1.19154 -8.0679,-3.91919 -10.77644,-6.06143 -7.19814,-5.69318 1.19838,-14.17428 11.89519,-12.01501 8.63428,1.74293 8.63428,1.74293 -0.14344,-4.77979 -11.70236,-8.69601 -11.35602,-20.38013 0.69374,-23.40443 30.32767,-7.61176 43.26523,24.55144 17.21521,42.79758 -9.54586,6.68618 -9.96879,6.76374 -18.88426,3.46308 z m -34.9327,-18.45951 c -8.16904,-9.84309 -3.4425,-23.4709 8.6217,-24.85858 12.3212,-1.41724 16.78087,5.6998 13.00317,20.75136 -2.74592,10.9406 -14.15523,13.10758 -21.62487,4.10722 z m -11.88185,-52.8811 c 0,-2.14567 3.40749,-3.90121 7.57219,-3.90121 4.1647,0 8.65717,1.75554 9.98327,3.90121 1.36746,2.2126 -1.9101,3.90121 -7.57219,3.90121 -5.49079,0 -9.98327,-1.75554 -9.98327,-3.90121 z m 39.01213,0.455 c 0,-1.89541 3.51109,-4.36438 7.80242,-5.48659 9.21298,-2.40924 10.58902,3.1275 1.63154,6.56481 -8.18949,3.1426 -9.43396,3.00037 -9.43396,-1.07822 z M 88.686774,190.08469 c -3.949856,-4.75929 -3.764045,-5.85182 0.995243,-5.85182 3.2185,0 8.037277,2.63332 10.708393,5.85182 3.94986,4.75928 3.76405,5.85181 -0.995241,5.85181 -3.2185,0 -8.037277,-2.63331 -10.708395,-5.85181 z m 103.170416,-6.48695 c 3.88361,-4.29134 9.02836,-7.1673 11.17402,-7.1673 2.14567,0 1.14714,4.19914 -2.73646,8.49048 -3.8836,4.29133 -9.24006,7.11437 -11.38573,7.11437 -2.14567,0 -0.93543,-4.14622 2.94817,-8.43755 z M 69.001893,164.39268 c -5.018945,-9.37799 -1.220955,-15.97834 4.232413,-7.35532 3.8273,6.05184 5.006695,15.49187 1.935485,15.49187 -0.997341,0 -3.772893,-3.66145 -6.167898,-8.13655 z M 212.3952,153.02317 c 1.12221,-4.29134 3.59117,-7.80243 5.48659,-7.80243 4.07858,0 4.22081,1.24448 1.07821,9.43397 -3.4373,8.95748 -8.97405,7.58144 -6.5648,-1.63154 z M 60.077885,138.71872 c -4.047001,-4.047 -3.057907,-16.90525 1.300403,-16.90525 2.145667,0 3.901212,4.38886 3.901212,9.75303 0,10.21361 -0.901149,11.45269 -5.201615,7.15222 z M 217.42678,127.66529 c 0,-3.2185 1.75555,-5.85182 3.90122,-5.85182 2.14566,0 3.90121,2.63332 3.90121,5.85182 0,3.2185 -1.75555,5.85182 -3.90121,5.85182 -2.14567,0 -3.90122,-2.63332 -3.90122,-5.85182 z M 57.643955,105.68467 c 0.598802,-5.47645 3.783003,-7.218221 4.961729,-4.57712 0.595716,1.33479 1.923961,9.07926 -0.785928,10.08986 -0.969971,0.36173 -4.758852,-0.18035 -4.175801,-5.51274 z m 159.782825,-1.42666 c 0,-5.364164 1.75555,-9.753028 3.90122,-9.753028 2.14566,0 3.90121,4.388864 3.90121,9.753028 0,5.36417 -1.75555,9.75303 -3.90121,9.75303 -2.14567,0 -3.90122,-4.38886 -3.90122,-9.75303 z M 62.613318,81.590398 c 0,-2.955777 0.15582,-5.441762 3.663084,-8.52025 0.184002,-0.161507 6.647613,-4.352004 5.557779,2.044563 -0.705071,4.138278 -2.653468,6.035527 -2.653468,8.005702 0,1.970179 -1.755546,3.582144 -3.901213,3.582144 -2.145667,0 -2.666182,-2.156386 -2.666182,-5.112159 z M 211.90052,76.391153 c -3.26602,-8.511103 1.07043,-12.467116 5.67864,-5.180467 4.61334,7.294733 4.71156,11.590658 0.26501,11.590658 -1.9161,0 -4.59075,-2.884587 -5.94365,-6.410191 z M 85.759043,50.616342 c 0.893027,-2.682083 4.933415,-5.517886 8.978645,-6.30178 6.363262,-1.233096 6.649782,-0.575573 2.124947,4.876515 -6.188103,7.456208 -13.420771,8.384599 -11.103592,1.425265 z M 189.69565,47.917768 c -5.13171,-4.273598 -7.0411,-7.023945 -5.19951,-7.89997 5.46457,-2.599438 19.66762,10.532426 16.89701,13.303032 -1.30191,1.301917 -6.56579,-1.129463 -11.6975,-5.403062 z m -77.6016,-11.213075 c 0,-3.98567 16.03053,-9.395048 19.01059,-6.414982 2.48235,2.482345 0.008,4.278128 -10.23286,7.425946 -4.83985,1.487692 -8.77773,1.034153 -8.77773,-1.010964 z m 39.01212,-4.61911 c 0,-2.145666 3.40749,-3.901212 7.57219,-3.901212 4.1647,0 8.65717,1.755546 9.98327,3.901212 1.36746,2.212604 -1.9101,3.901213 -7.57219,3.901213 -5.4908,0 -9.98327,-1.755546 -9.98327,-3.901213 z"/>
  </symbol>
  <symbol id="hair" viewBox="0 0 300 300">
    <path d="m 77.850799,269.17386 c -5.674389,-4.98218 -8.858896,-12.70632 -8.806666,-21.36091 0.05721,-9.47984 1.676492,-15.37938 5.975609,-21.77098 3.368498,-5.00802 3.592652,-5.14958 6.980258,-4.40819 1.925,0.42129 7.039604,0.80314 11.365788,0.84856 7.333742,0.077 8.067062,0.28329 10.841422,3.05011 1.6366,1.63215 4.9595,5.80161 7.38421,9.26546 C 116,241.09582 116,241.09582 116,252.9329 c 0,11.63734 -0.0438,11.86576 -2.59419,13.53686 -4.47921,2.93489 -6.48179,1.43568 -11.29656,-8.45704 -4.968336,-10.20823 -8.638763,-14.64808 -10.697256,-12.93968 -1.06548,0.88427 -0.999639,1.75744 0.358552,4.75507 0.915032,2.01954 2.465991,4.86636 3.446575,6.32626 C 98.396987,260.88859 97.103692,267 92.921972,267 c -0.922915,0 -2.295415,0.91477 -3.05,2.03282 -0.767285,1.13686 -2.956379,2.28529 -4.966829,2.60566 -3.024844,0.48202 -4.143404,0.0912 -7.054344,-2.46462 z M 201.37715,218.25 c 0.33964,-3.1625 0.88822,-7.63343 1.21907,-9.93539 0.33084,-2.30197 0.11906,-5.67697 -0.47061,-7.5 -0.58968,-1.82304 -1.17616,-7.96065 -1.30329,-13.63915 -0.25655,-11.45897 -0.20153,-11.34719 -8.908,-18.09846 -5.94475,-4.60974 -18.79321,-20.04037 -29.96311,-35.98482 C 156.90675,125.89148 152.43483,120 152.0136,120 c -0.42123,0 -2.47931,3.2625 -4.57352,7.25 -2.0942,3.9875 -5.29994,9.32874 -7.12386,11.86943 -1.82392,2.54069 -3.31622,5.1426 -3.31622,5.78203 0,1.97741 -15.28448,16.63178 -19.26116,18.4671 -5.25601,2.42577 -7.09652,5.57556 -6.35057,10.86815 1.84663,13.10193 1.86653,14.72547 0.21152,17.25134 C 110.10425,193.77053 109.32105,194 103.02617,194 88.859048,194 82.172831,191.09867 78.499218,183.35711 77.623039,181.5107 76.554475,180 76.124632,180 c -0.429843,0 -0.746231,4.1625 -0.703083,9.25 0.07513,8.85867 -0.01674,9.26352 -2.171549,9.56955 -2.085822,0.29623 -2.25,-0.0598 -2.25,-4.88008 0,-5.19963 0,-5.19963 -14,-19.04415 -7.7,-7.61448 -14,-14.25085 -14,-14.74747 0,-0.49663 0.708686,-1.49112 1.574859,-2.20998 2.857283,-2.37133 14.151418,-20.34825 15.752949,-25.07402 1.556504,-4.59292 7.18983,-12.61918 17.524309,-24.96835 2.943665,-3.51752 6.101207,-7.2955 7.016761,-8.3955 0.915553,-1.1 2.988898,-3.8 4.607433,-6 C 97.050175,83.205191 108.64209,73.537307 119.33506,68.597216 123.52979,66.659274 136.06276,63 138.50546,63 c 0.84193,0 5.01013,-3.522335 9.26266,-7.82741 4.25254,-4.305076 9.30688,-8.938416 11.23188,-10.296311 5.44317,-3.83961 17.17529,-9.352327 19.27584,-10.213105 0.97826,-0.500092 4.54237,-1.64006 6.74616,-1.663174 1.59718,0 5.18728,-0.9 7.978,-2 4.77518,-1.882201 9,-2.595452 9,-1.519417 0,0.26432 -1.575,2.942704 -3.5,5.951963 -1.925,3.009259 -3.5,6.08197 -3.5,6.828246 0,1.702522 -6.57532,12.703742 -8.82478,14.764809 -3.98196,3.648469 -8.97355,6.723383 -12.92522,7.96219 -4.42217,1.3863 -4.96679,3.133841 -2.33709,3.601655 4.01359,1.116845 7.09747,1.522735 11.1153,2.809314 1.14028,0.363101 4.39679,1.730985 7.97179,3.236748 9.34996,3.93813 18.64762,10.203415 25.19087,16.975017 6.19623,6.412462 16.27341,19.988555 16.96351,21.260425 0.23858,0.43973 0.56058,0.78491 0.8715,1.1928 0.65712,0.86208 17.97412,24.4513 17.97412,25.4814 0,0.37995 1.35979,2.23953 3.02175,4.1324 2.90332,3.30671 2.99685,3.70378 2.38649,10.13201 -0.3494,3.67974 -1.25918,7.99708 -2.02175,9.59408 -0.76257,1.597 -1.38649,3.45282 -1.38649,4.12405 0,4.62939 -8.8299,14.86196 -20,23.17709 -8.55401,6.36768 -25.52526,24.96441 -28.26017,30.96688 -0.58347,1.28059 -1.71771,2.32834 -2.52054,2.32834 -1.18192,0 -1.34217,-1.09411 -0.84214,-5.75 z M 96.779627,214.44629 c -0.304539,-0.30453 -3.642039,-0.77821 -7.416667,-1.05261 -7.560871,-0.54963 -10.159059,-1.77565 -12.32006,-5.81352 -2.250027,-4.20421 0.297844,-7.59421 7.51418,-9.99777 5.129359,-1.70844 6.417411,-1.78126 11.809041,-0.66764 8.265429,1.70719 11.534259,3.60259 13.235619,7.6745 1.82028,4.35655 0.59476,7.01287 -4.15011,8.99541 -3.45053,1.44172 -7.672435,1.8612 -8.672003,0.86163 z"/>
  </symbol>
  <symbol id="hat" viewBox="0 0 300 300">
    <path  d="m 110.7755,270.84334 c -8.5549,-1.69156 -14.28898,-6.05409 -14.28898,-11.66107 0,-3.88658 2.31163,-8.7718 5.89328,-10.62394 2.5164,-1.30128 4.04172,-2.18938 7.90197,-0.65164 3.149,1.25441 13.63326,3.29049 25.35662,3.38657 11.72336,0.0961 24.68582,-1.74783 29.79724,-3.01387 17.3457,-4.29635 36.72009,-13.87823 45.90017,-22.4214 8.2605,-7.68739 9.77468,-9.25653 13.97346,-7.50217 4.18876,1.75017 7.69191,6.09277 7.687,9.529 -0.007,5.24356 -7.90649,12.86044 -16.79267,18.93559 -16.908,11.55938 -38.64446,20.65231 -64.24686,23.24818 -13.17513,1.33585 -27.91386,3.08784 -41.18123,0.77475 z M 117,243.61936 c -7.28458,-1.60661 -9.8196,-3.11707 -10.73819,-6.39822 -0.419,-1.49663 -0.67094,-13.29614 -0.55987,-26.22114 0.29507,-34.33738 2.60999,-68.80431 5.80963,-86.5 1.94649,-10.76509 5.62053,-39.701232 5.1062,-40.215567 -0.22631,-0.226302 -2.78161,2.063414 -4.90085,5.454194 -6.37434,10.198972 -6.94643,11.671573 -10.22805,10.847933 -1.56963,-0.39395 -4.63026,-2.492653 -6.80139,-4.663782 -3.566177,-3.566181 -3.304799,-4.295192 -3.423615,-7.853369 -0.131368,-3.934084 5.337575,-8.050833 7.087275,-9.368783 4.48878,-3.381163 10.52349,-6.108661 6.95233,-8.181017 -5.20011,-1.482434 -10.2974,-1.865421 -15.551695,-1.65034 -6.432993,0.03367 -7.522727,-6.114526 -4.488467,-13.376534 1.973129,-4.722361 3.722185,-5.969417 8.394587,-5.237585 1.393315,0.218233 9.259285,2.836444 8.678285,1.79591 -0.4866,-0.871472 -3.85307,-3.100413 -5.661,-3.593228 -4.254043,-1.159587 -1.79901,-5.899305 3.5627,-10.914553 2.72641,-2.550263 5.93273,-4.793391 6.94146,-4.76783 2.33722,0.05922 10.91724,10.774066 14.56924,17.490026 1.2567,2.311039 3.61824,-1.756253 6.62026,-5.207386 9.7622,-11.222667 16.69137,-9.115659 17.23293,-9.003006 0.7151,0.148755 2.25182,0.654337 4.13974,4.35496 3.17261,6.218831 3.67117,9.167144 -0.65908,12.608167 -0.62103,0.493503 -2.1497,1.510308 -3.54436,2.639169 -2.35177,1.903559 -1.02717,1.688841 0.10875,1.633744 3.68417,-0.178699 13.11337,2.08845 14.50753,5.148291 0.89127,1.956133 0.87972,3.830469 -0.0492,7.981269 -1.33656,5.972375 -1.88191,7.070314 -4.84248,6.296107 -0.83671,-0.218806 -6.7048,-3.090602 -11.24835,-4.255154 -8.22052,-2.106992 -12.49665,-2.29581 -12.0019,-1.5036 3.87665,5.578453 17.84152,25.748366 27.83021,40.701224 7.628,11.46241 18.06971,27.81574 23.20379,36.34074 11.74086,19.49536 31.42963,59.39341 31.42963,62.98645 0,10.85204 -32.88861,29.32184 -58.83965,32.9313 -10.13754,1.41 -31.64341,1.24391 -38.6364,-0.29839 z m 40.27818,-35.12618 c 19.56112,-5.04581 18.82288,-6.14987 17.17321,-14.75426 -0.91857,-4.79113 -2.85357,-5.79361 -7.02624,-5.3003 -4.74836,0.56138 -4.31311,0.41666 -5.82709,-3.68862 -2.3444,-6.35699 -6.04465,-19.7656 -9.60986,-34.82334 -4.81804,-20.34906 -5.36402,-22.13036 -7.12322,-23.24003 -3.3316,-2.10152 -7.68865,1.17733 -15.56961,11.71674 -4.15242,5.55315 -8.43351,10.05768 -8.47249,10.70091 -0.11182,1.84541 0.54685,3.80505 2.57959,5.15455 3.13609,2.08199 3.75896,3.02504 7.73696,2.02892 5.58528,-1.3986 5.14804,-0.60341 9.52869,17.39938 4.82612,19.83356 5.10953,17.84026 -0.98143,21.73659 -7.22786,4.62361 -9.21711,4.92065 -6.63858,9.20281 0.87108,1.44661 1.96811,4.14342 2.74422,5.21651 1.99342,2.75621 8.46681,2.00842 21.48585,-1.34986 z"/>
    <path style="fill:#9a5f5f;" d="m 120.09375,51.625 c 0,0 -0.46363,-10.634516 2.375,-18.53125 2.22729,-6.196051 6.46875,-9.90625 11.625,-9.09375 5.43551,0.856504 6.33777,2.427229 5.25,8.34375 -1.20273,6.541767 -6.32241,19.312677 -6.32241,19.312677 l -12.92759,-0.03143 z m 23.02851,35.651878 c 2.33864,3.195487 4.69814,1.251168 6.34465,0.24549 2.41181,-1.473114 6.42555,-4.702689 3.54102,-8.619299 -2.88453,-3.916609 -12.14529,-7.840493 -12.14529,-7.840493 L 128.64668,69.308109 Z M 105.49105,69.757989 c -21.75306,1.746596 -21.028316,5.576756 -21.197324,6.880531 -0.185246,1.429033 2.997592,5.384484 4.115085,6.033695 1.389339,0.80714 4.022465,0.912994 5.186862,0.0397 C 94.76007,81.838613 108.24326,72.8013 108.24326,72.8013 Z"/>
  </symbol>
  <symbol id="cape" viewBox="0 0 300 300">
    <path d="m 128.53743,223.6675 c -11.97709,-2.48338 -23.8976,-8.02767 -27.57892,-11.70899 -2.96054,-2.96054 -2.458165,-8.01626 1.59664,-16.06802 1.95533,-3.88278 3.6434,-7.67162 3.21527,-8.07923 -1.03376,-0.98422 -4.95183,2.85225 -10.588658,7.58455 -5.636829,4.73231 -10.071025,9.22383 -12.152397,8.67794 -6.207824,-1.62814 -27.552543,-19.76015 -28.550232,-22.718 -0.800776,-2.37406 0.236461,-3.54317 11.134069,-14.46925 6.520544,-6.53757 10.499516,-10.6124 9.841894,-11.18989 -1.663236,-1.63574 -7.116805,3.07955 -14.000895,6.83299 -6.884089,3.75344 -13.647522,7.01573 -15.094539,7.37891 -2.336572,0.58644 -3.070517,0.16906 -10.340718,-7.51141 C 27.735,153.64569 25.489392,148.58322 26.515795,145.90845 27.441734,143.49549 115.81703,89 118.75447,89 c 0.61814,0 3.22116,1.81517 5.78448,4.033711 10.96918,9.493759 22.95527,12.211049 35.35099,8.014209 6.45708,-2.18619 15.55002,-8.498061 19.51505,-11.926331 5.22874,-4.52091 9.04433,-2.590283 57.09501,28.668271 16.63137,10.81925 31.88224,19.28968 32.96053,20.31768 1.79689,1.71307 1.8545,2.26654 0.69023,6.63077 -2.44389,9.16086 -6.25673,16.0718 -11.71506,21.23406 -2.92379,2.7652 -6.22072,5.02763 -7.32651,5.02763 -1.10579,0 -7.99523,-2.74625 -15.30986,-6.10277 -14.62107,-6.70929 -22.3426,-10.41538 -22.79933,-9.44404 -0.23425,0.49817 5.85,5.65427 13,12.04681 16.29856,14.5719 16.23408,14.23704 4.75,24.6715 C 218.47464,203.32492 212.96848,207 208.53334,207 c -3.20284,0 -4.66466,-0.88523 -10.38057,-6.28615 -11.20546,-10.58795 -15.52252,-14.21259 -16.19522,-12.82749 -0.43132,0.8881 1.72551,5.61086 3.92568,11.28927 5.85618,15.11418 7.69728,15.54947 -10.88323,21.66576 -15.41887,5.07555 -29.65137,6.31181 -46.46257,2.82611 z"/>
  </symbol>
  <symbol id="held" viewbox="0 0 300 300">
    <path d="M 130.63306,269.90395 C 120.62804,268.84834 113.61828,266.81689 103.1892,261.95062 75.843968,249.19118 58.114741,229.55436 52.522356,205.83223 50.557238,197.49647 50.58851,179.91585 52.585722,170.20784 54.886315,159.02518 63.860239,128.62751 71.836224,105 75.642347,93.725 79.545789,81.242852 80.510539,77.261893 82.848985,67.612494 82.355613,67.042794 72.2084,67.67535 65.513049,68.092724 63.916221,67.849934 60.057966,65.827937 48.565326,59.804988 45.721741,47.801881 53.135805,36.608687 c 4.371198,-6.599304 7.53399,-7.992819 18.068679,-7.960996 7.672892,0.02318 9.169604,0.334096 12.629136,2.623506 4.227302,2.797496 9.980761,9.381607 12.444858,14.241577 0.840144,1.657026 2.07813,5.8114 2.75108,9.231941 2.091052,10.628598 -1.923917,9.716258 44.138972,10.029915 22.18231,0.151046 43.66573,-0.07395 47.74094,-0.5 L 198.31893,63.5 200.51045,57 c 3.19513,-9.476699 6.08972,-14.658229 11.30086,-20.229357 6.29468,-6.729528 9.09365,-7.992865 17.7085,-7.992865 11.78638,0 18.21905,3.957658 21.32724,13.121445 2.01742,5.947916 1.43426,11.265636 -1.79359,16.355432 -5.4354,8.570726 -14.09809,11.987464 -22.36856,8.8226 -10.36425,-3.96609 -9.97938,-0.03047 4.29517,43.922745 17.40769,53.60051 19.51043,62.67817 18.74578,80.92659 -0.57218,13.65503 -1.92082,19.32179 -7.27618,30.57341 -11.18554,23.50082 -41.84147,44.23176 -70.21534,47.48282 -10.11128,1.15854 -30.23467,1.12039 -41.60127,-0.0789 z m 15.07163,-30.57456 C 146.32684,235.59415 146.5,199.05 146.5,154.5 v -81 h -6 -6 l 0.19102,80 c 0.10506,44 1.94408,87.88801 1.94408,87.88801 0,0 2.70863,0.0445 4.39207,0.43692 1.64355,0.38307 3.73047,1.09852 3.73047,1.09852 0,0 0.52713,-1.07297 0.94705,-3.59406 z m 20.85379,-81.07871 C 166.1604,112.18856 165.75939,74.434157 165.66735,74.352015 165.57531,74.269874 163.025,74.044567 160,73.851334 L 154.5,73.5 l -0.25826,83 c -0.14205,45.65 -0.0437,83.5625 0.21861,84.25 0.31035,0.81349 2.63239,1.25 6.6494,1.25 h 6.17251 z M 180.89216,238.25 c 1.21445,-1.00547 2.56381,-3.87722 3.17166,-6.75 0.65827,-3.1111 1.27149,-33.34214 1.62323,-80.02284 0.52844,-70.131629 0.1224,-75.658391 -1.07493,-76.661709 -1.05634,-0.885179 -0.51792,-0.659006 -5.16158,-0.79433 -3.98028,-0.115992 -3.96715,0.207741 -4.81282,1.053369 -1.85483,1.854735 -1.70847,159.42628 0.14748,162.67551 1.54452,2.70401 3.27386,2.8456 6.10698,0.5 z M 127.30412,227.5 C 128.23535,216.40332 127.7917,75.41395 126.95258,74.671252 126.70366,74.450938 123.6875,74.02745 120.25,73.730168 l -6.64695,0.04169 L 114,155.52528 v 82.33562 l 2.25,0.45601 c 1.2375,0.25081 3.97018,0.51319 6.17061,0.45187 l 3.94707,-0.11 z m -19.7895,-20.17034 C 108.28134,180.74793 106.7145,80.216966 105.47166,76.25 104.50506,73.164768 100.52582,73.26787 98.452689,76.431861 96.419933,79.53424 90.539075,103.56306 83.996245,135.5 76.3824,172.66479 75.962385,194.36315 82.575286,208.90807 85.229598,214.74616 102.40667,233 105.24607,233 c 1.31191,0 1.63288,-3.63201 2.26855,-25.67034 z m 93.33045,21.61496 c 10.79435,-7.20819 17.7759,-17.98955 20.79718,-32.11637 2.07667,-9.71006 1.25847,-27.50775 -2.15282,-46.82825 -3.06149,-17.33939 -13.94351,-68.433915 -15.37912,-72.209858 -0.61675,-1.622188 -1.48024,-3.565929 -2.38356,-4.150721 C 198.68589,72.965912 196.29118,73.367374 193.5,73.5 l -0.25599,79.75 c -0.14847,46.25627 0.11866,79.75 0.63605,79.75 0.49062,0 3.62488,-1.82492 6.96501,-4.05538 z"/>
  </symbol>
  <symbol id="prop" viewbox="0 0 300 300">
    <path d="m 88.571429,269.42857 c -0.864286,-0.86428 -1.603084,-3.00178 -1.641775,-4.75 C 86.890964,262.93036 86.471253,232.025 85.996962,196 L 85.134615,130.5 81.437287,96 C 79.403757,77.025 77.032823,54.600906 76.951587,45.385126 L 76.79834,28 h 7.500449 7.500449 l 1.569203,7.25 c 0.863061,3.9875 2.279208,11.453606 3.146993,16.591348 0.867784,5.137741 2.711354,14.812741 4.096826,21.5 1.38546,6.687258 3.55159,18.008652 4.81361,25.158652 6.78691,38.45143 7.94585,43.62615 10.04032,44.83052 1.45763,0.83816 15.77389,1.24419 50.53381,1.4332 26.675,0.14505 50.65742,0.45745 51.89147,0.75034 1.07592,10.77132 1.57958,16.32538 0.44866,27.42365 -0.0732,0.4947 -0.75715,1.50391 -1.86558,1.63089 -0.55422,0.0635 -1.85141,0.17932 -2.80311,0.29718 -0.9517,0.11786 -1.13516,0.61506 -1.1754,0.90286 -0.0391,0.27955 -0.0526,2.28842 -0.0526,2.28842 l 0.0481,44.78905 c 0.0402,37.40865 -0.99668,45.51623 -2.19009,46.70964 -1.08999,1.08998 -4.23898,1.44425 -12.83764,1.44425 -9.82994,0 -11.521,-0.24014 -12.32328,-1.75 -0.51144,-0.9625 -1.26205,-14.27137 -1.66803,-29.57526 l -0.73813,-27.82525 -2.61716,-0.99565 c -3.52217,-1.33994 -60.76806,-1.31866 -64.29717,0.0239 l -2.68001,1.01954 -0.31999,28.58889 c -0.26956,24.08331 -0.55639,28.73816 -1.81999,29.53605 -0.825,0.52093 -5.85536,0.95405 -11.178571,0.96247 -7.480447,0.0118 -10.035463,-0.34158 -11.25,-1.55612 z M 183.7791,184.13273 c 0.53395,-7.67344 0.17259,-7.82157 -12.43708,-7.37198 0,0 -53.68036,-1.45301 -56.41986,-0.74728 -3.55074,0.91471 -2.31929,11.8473 -0.37426,11.89821 9.48931,0.24838 39.62558,0.8991 54.65369,1.19829 15.02811,0.29919 14.25744,-0.37754 14.57751,-4.97724 z"/>
  </symbol>
  <symbol id="stance" viewBox="0 0 300 300">
    <path d="m 172.71608,272.24423 c -4.24377,-2.65889 -7.50563,-11.22159 -11.51874,-28.42243 -7.53304,-32.28777 -11.75088,-49.35048 -14.44741,-49.16911 -0.90417,0.0608 -0.7326,15.85981 -0.91617,33.59731 -0.30916,29.87267 -0.48119,32.54383 -2.33376,36.23595 -4.075,8.12137 -10.81962,8.61671 -14.47623,1.06316 -3.42226,-7.06945 -11.31276,-47.10493 -12.98401,-65.87938 -0.97233,-10.92288 -2.56793,-14.07724 -6.60794,-13.06326 -3.05855,0.76765 -6.21284,-0.32878 -7.41658,-2.57799 -1.51757,-2.8356 1.7398,-13.94697 12.50964,-42.67232 17.17732,-45.815367 21.32931,-53.501725 31.66369,-58.617277 7.39502,-3.259242 13.88449,-1.771138 19.41901,4.567438 7.50801,8.911872 21.57829,45.684149 29.89187,78.121509 4.0129,15.65725 4.03804,15.89183 1.92912,18.00074 -2.70343,2.70344 -7.03617,1.92073 -11.45212,-2.06881 -2.21612,-2.00213 -4.26384,-3.4057 -4.55049,-3.11905 -0.28665,0.28665 -0.006,8.33725 0.62407,17.89023 0.62989,9.55299 1.21381,29.06906 1.29761,43.36906 0.14166,24.17376 0.0119,26.28096 -1.84764,30 -2.28786,4.57571 -4.67195,5.32054 -8.78392,2.74423 z M 146.68564,75.273986 c -13.32284,-0.450732 -22.6407,-11.978155 -22.47955,-24.413697 0.20836,-16.079037 10.8596,-24.235061 23.82939,-25.345865 14.62452,1.173916 25.46041,12.322407 24.75873,26.752568 -0.76299,15.69109 -9.83092,23.557693 -26.10857,23.006994 z"/>
  </symbol>
  <symbol id="call" viewBox="0 0 300 300">
    <path d="M 63.5,248.43495 C 52.594571,242.79057 39.616649,221.36028 30.23206,193.5 25.516233,179.5 25.516233,179.5 25.614413,166 25.808298,139.3403 32.042456,118.86125 46.228357,98.28372 57.486634,81.952895 68.653746,76.13361 76.037311,82.75 c 3.518404,3.15283 5.207819,8.908486 3.926358,13.376679 -0.471333,1.643442 -4.036356,7.410521 -7.922273,12.815741 -12.424659,17.28239 -16.311145,28.12008 -18.067414,50.38201 -2.055767,26.05827 3.26989,45.41223 17.278786,62.79281 C 79.71386,232.61476 81,234.90381 81,239.46523 c 0,4.60664 -2.28295,7.56153 -7.3151,9.46816 -3.867404,1.46532 -6.654266,1.32893 -10.1849,-0.49844 z m 114.68182,-21.93093 c -1.2,-1.52556 -2.18182,-3.60448 -2.18182,-4.61983 0,-2.1701 -1.16399,-2.49028 -14,-3.85101 -11.39702,-1.20819 -14.75759,-2.11503 -20.66323,-5.57597 -9.05554,-5.3069 -17.22065,-23.16089 -18.10531,-39.58946 -0.46484,-8.63225 -0.39857,-8.54401 5.17898,-12.80159 3.95784,-3.02119 3.1399,-5.18844 2.70971,-6.70938 -0.32914,-1.16369 -0.5496,-3.41354 -0.17467,-5.06917 0.62411,-2.75595 2.40996,-5.73531 3.60287,-17.09046 2.18615,-20.80958 6.35311,-30.1274 17.37775,-38.858807 10.53348,-8.342405 21.59423,-12.273693 40.5739,-14.421054 26.75331,-3.026871 53.15783,3.489447 65.5,16.164608 2.475,2.541775 7.33783,9.750663 10.80629,16.019753 6.3063,11.39835 6.07493,19.52294 6.53533,29.62483 0.39228,8.60712 -1.0243,21.10356 -3.24919,25.64313 -3.71832,7.5867 -13.25828,18.88909 -21.79183,25.81769 -13.56075,11.01032 -18.95399,16.8091 -20.28723,21.8127 -1.67344,6.28036 -2.31154,7.3106 -5.49453,8.87115 -4.25626,2.08675 -24.89218,6.07384 -35.08702,6.7792 -9.03729,0.62527 -9.07561,0.61796 -11.25,-2.14633 z m -82.981337,-5.12021 c -4.42431,-2.25482 -9.278526,-8.10077 -13.677239,-16.47153 -5.331143,-10.14518 -7.314335,-16.75534 -8.594635,-28.64669 -1.397003,-12.97528 -0.691195,-20.09174 3.129505,-31.55388 4.690669,-14.07206 11.314113,-22.79999 21.085416,-27.78493 4.78014,-2.43865 7.47895,-2.03157 11.19985,1.68933 3.64949,3.64949 3.47308,7.76981 -0.59338,13.85873 -1.7875,2.67652 -4.46929,6.70212 -5.95954,8.94578 -4.18225,6.29664 -8.197704,19.63115 -7.404785,24.5898 1.628078,10.18143 6.762505,23.08891 12.651435,31.8045 6.5197,9.64915 7.84092,13.65112 5.98556,18.13034 -2.43753,5.88473 -11.51278,8.6541 -17.822187,5.43855 z"/>
  </symbol>
  <symbol id="emote" viewBox="0 0 300 300">
    <path d="m 267.37906,256.51733 c -6.51007,-2.73727 -13.98911,-14.14631 -22.83395,-34.83244 -5.38558,-12.59569 -9.42387,-20.81484 -9.50091,-19.33724 -0.0243,0.4662 1.71332,6.80055 3.8614,14.07633 4.50309,15.25245 6.70218,27.01828 5.75513,30.79166 -0.46731,1.8619 -1.69069,2.96917 -4.19294,3.79499 -13.62489,4.49662 -54.35992,2.1118 -68.1542,-3.99007 -11.18364,-4.94705 -14.09051,-9.83009 -17.27595,-29.02056 -4.57678,-27.57258 -10.54331,-40.66162 -20.94296,-45.94355 -9.76637,-4.96028 -31.13331,-9.99261 -64.057046,-15.08669 -28.410169,-4.39573 -31.350107,-5.41706 -40.269248,-13.9895 -1.111005,-1.55694 -7.391262,-6.54105 -6.010363,-8.11183 1.640815,-1.39519 8.150343,-1.43046 16.875233,-1.91364 21.253246,-1.177 138.309474,-1.14917 160.659084,0.0382 16.86604,0.89605 18.13045,1.10663 24.28679,4.04478 11.85176,5.65632 23.09012,18.23629 31.68031,35.46223 9.61591,19.28283 19.77916,55.1853 20.09865,71 0.2137,10.57821 -3.68491,15.66381 -9.97903,13.01733 z M 147.5,82.622198 c -0.0144,-19.005255 14.20813,-41.405451 40.02059,-40.609751 25.81246,0.7957 40.00012,21.2742 39.73378,39.859613 -0.30888,21.55335 -16.61989,39.57108 -41.1115,39.84339 C 161.65125,121.98776 147.51386,100.94508 147.5,82.622198 Z"/>
  </symbol>
  <symbol id="resize" viewBox="0 0 300 300">
    <path d="m 136.30188,265.14439 c -6.02308,-4.76097 -13.47724,-13.11183 -13.00119,-14.56518 0.19442,-0.59356 1.8938,-2.11894 3.7764,-3.38971 4.17345,-2.81713 4.73758,-5.5066 4.8641,-23.1895 0.0492,-6.875 0.51735,-13.175 1.04036,-14 0.72947,-1.15067 2.61887,-1.43706 8.11299,-1.22972 3.93913,0.14865 7.55433,0.51271 8.03376,0.80901 0.47944,0.29631 0.8717,8.07288 0.8717,17.28126 v 16.74251 l 5,2.11244 c 3.62471,1.5314 5,2.66152 5,4.10867 C 160,253.57625 145.85163,269 142.4098,269 c -0.67661,0 -3.42518,-1.73503 -6.10792,-3.85561 z m -98.325228,-5.18802 c -2.833168,-5.29382 -2.107101,-37.09128 1.573521,-68.91096 0.903427,-7.81031 1.08863,-12.80661 0.49666,-13.39858 -0.59197,-0.59197 -3.628233,1.33233 -8.142341,5.16038 -8.763233,7.4314 -13.387158,9.86703 -15.462391,8.14474 -1.973675,-1.63801 -1.810714,-7.77231 0.309453,-11.64872 2.612943,-4.77738 20.72383,-26.84412 28.365325,-34.56099 7.379778,-7.45258 17.303697,-12.93097 23.72921,-13.09946 8.611718,-0.22581 17.062627,7.19723 31.714631,27.85722 11.1836,15.76939 14.77243,22.25283 14.86003,26.84559 0.0771,4.03943 -0.008,4.15061 -3.07664,4.0172 -3.29087,-0.14308 -10.04895,-4.29446 -16.545184,-10.16341 -2.950197,-2.66533 -3.904446,-3.08797 -4.350072,-1.92669 -0.313967,0.81818 0.397296,12.90404 1.580585,26.85746 1.183289,13.95342 2.223238,31.71171 2.310997,39.46288 C 95.513803,259.90517 94.904659,262 90.278765,262 c -4.885786,0 -7.60287,-4.73638 -14.718252,-25.65662 -3.692363,-10.85608 -7.395693,-21.05776 -8.229623,-22.6704 -1.482459,-2.86676 -1.557652,-2.89021 -3.375441,-1.05253 -1.051067,1.06257 -3.854569,8.83425 -6.449747,17.87955 -5.839817,20.35425 -9.210044,29.2714 -11.53296,30.51459 -3.080903,1.64885 -6.811544,1.15513 -7.99609,-1.05822 z m 161.152858,-0.51885 c -3.64027,-4.62786 -4.45713,-9.06487 -3.75158,-20.37773 0.36222,-5.80789 1.33048,-22.03479 2.15169,-36.05979 1.72374,-29.43883 3.22526,-49.92897 4.0412,-55.14737 0.32123,-2.05444 0.12267,-3.92403 -0.45464,-4.28083 -0.56372,-0.34839 -4.99585,3.12978 -9.84919,7.72928 -11.35834,10.76428 -13.49694,12.18141 -16.19993,10.73481 -2.5884,-1.38527 -2.65984,-5.13434 -0.20099,-10.5469 3.05708,-6.72941 21.81017,-40.00736 27.47514,-48.75548 6.96511,-10.755879 10.63662,-14.253655 19.36721,-18.450737 6.50697,-3.12812 7.54289,-3.354937 10.64574,-2.330903 6.85537,2.262476 16.11282,14.060466 33.42442,42.59717 5.98941,9.87303 12.4004,20.34354 14.24665,23.2678 2.56767,4.0669 3.45771,6.71166 3.78599,11.25 0.38215,5.2833 0.22432,5.93269 -1.44103,5.92888 -2.42828,-0.006 -8.24773,-3.91617 -17.85103,-11.99572 -11.92708,-10.03461 -12.44065,-10.41184 -13.17512,-9.67737 -0.70688,0.70688 0.85297,36.69161 2.82528,65.17737 0.60929,8.8 1.15795,23.52186 1.21924,32.71526 0.10654,15.97963 0.0143,16.81271 -2.09617,18.92983 -1.88686,1.89281 -2.57108,2.04896 -4.70927,1.07474 -4.85855,-2.21371 -8.03325,-11.94038 -16.06493,-49.21983 -3.4727,-16.11874 -4.74306,-20.40291 -6.3432,-21.39185 -1.83891,-1.13651 -3.21648,2.23124 -5.11607,12.50721 -4.57862,24.76839 -10.91935,50.78028 -13.67938,56.11758 -1.85226,3.58189 -5.52186,3.67288 -8.25003,0.20458 z m -62.25983,-75.8242 c -1.39056,-3.05195 0.75753,-7.98499 3.65893,-8.40263 2.6315,-0.37879 6.47139,3.2575 6.47139,6.12827 0,3.16083 -1.84151,4.66104 -5.72144,4.66104 -2.53039,0 -3.58043,-0.56842 -4.40888,-2.38668 z m 1.99193,-15.63279 c -2.21587,-1.29159 -3.08471,-5.26352 -1.85747,-8.49143 0.55408,-1.45733 3.41876,-5.20105 6.36596,-8.31939 8.20936,-8.68607 9.46789,-12.56336 5.6524,-17.41397 -2.5127,-3.19438 -6.64024,-4.0073 -10.68024,-2.10348 -3.11348,1.46721 -4.27738,3.46726 -6.0217,10.34774 -1.06619,4.2056 -3.85263,5.00947 -7.40128,2.13523 -5.41668,-4.38727 -1.28208,-16.84163 7.06512,-21.28177 4.69055,-2.49505 15.06202,-2.46968 20.61106,0.0504 7.85536,3.56752 10.71306,13.45655 6.52976,22.59612 -1.65208,3.60942 -16.43193,22.68933 -17.98515,23.21776 -0.35204,0.11977 -1.37734,-0.21198 -2.27846,-0.73723 z m -82.609536,-42.0848 c -4.449575,-2.2025 -9.472727,-7.71569 -11.222097,-12.31689 -3.564397,-9.37507 2.312498,-20.883168 12.937852,-25.334813 5.645049,-2.365074 14.198985,-1.26489 18.766817,2.413736 5.485417,4.417588 8.229148,9.780837 8.248904,16.124357 0.02181,7.00186 -1.81961,11.06574 -7.038076,15.53256 -6.967707,5.96409 -14.400364,7.19105 -21.6934,3.58105 z M 133.65171,91.25 C 133.30109,87.5375 132.98509,81.125 132.94948,77 132.84073,64.401325 132.04635,61.77321 127.73308,59.74213 123.36605,57.685738 122.96175,55.415992 126.0674,50.390943 128.12239,47.065904 139.66679,36 141.08062,36 c 0.40688,0 3.02435,1.805844 5.81659,4.012987 6.14702,4.858939 13.30816,13.682085 12.88562,15.876195 -0.16901,0.877575 -1.65178,2.230985 -3.29506,3.007579 -1.64327,0.776593 -3.31838,1.905019 -3.72246,2.507613 C 152.36123,62.006968 152.00414,68.125 151.97176,75 c -0.0651,13.826947 -1.04586,20.798821 -3.10975,22.106445 -0.74911,0.474611 -4.33444,0.86982 -7.96741,0.878242 L 134.28921,98 Z m 82.55201,-14.37819 c -2.36296,-1.169638 -5.38654,-3.556005 -6.71906,-5.303038 -8.15303,-10.689173 -6.9699,-22.288864 3.05405,-29.942724 9.44922,-7.215015 16.46599,-6.775233 26.01545,1.630542 7.80772,6.872626 9.26423,13.296332 5.06136,22.322274 -2.7925,5.997102 -5.83134,8.609889 -13.23603,11.380339 -6.86105,2.567049 -8.83777,2.554862 -14.17577,-0.08739 z"/>
  </symbol>
  <symbol id="bonfire" viewBox="0 0 300 300">
    <path d="m 148.7332,264.12 c -9.27893,-2.41984 -15.1276,-6.61187 -15.56943,-11.15937 -0.41806,-4.30272 2.13839,-16.55813 5.97812,-28.65864 2.50455,-7.89283 3.50754,-9.70203 7.06841,-12.75 5.46293,-4.67606 8.34695,-4.61382 13.1289,0.28334 5.39664,5.52666 14.72013,30.14362 14.62758,38.62144 -0.0478,4.38014 -4.74918,10.66548 -9.9432,13.29323 -5.25344,2.65781 -6.41037,2.68581 -15.29038,0.37 z M 221.5,255.19546 c -6.04969,-2.85357 -24.59374,-17.3952 -42.75,-33.52314 -6.24957,-5.5514 -7.75,-7.43697 -7.75,-9.73931 0,-3.24167 2.93016,-6.44768 6.77484,-7.41263 5.88323,-1.4766 58.5159,24.30624 68.97516,33.78843 2.63009,2.3844 2.986,7.19539 0.76671,10.36387 -4.6921,6.69891 -18.37205,10.12868 -26.01671,6.52278 z M 60.854123,252.82193 c -7.057804,-1.88039 -10.529071,-8.42286 -6.910047,-13.0237 2.359113,-2.99913 69.196454,-36.82689 72.728004,-36.80914 3.09952,0.0156 9.54059,7.73484 8.71934,10.44965 -0.96829,3.20085 -5.1479,8.38318 -13.35995,16.56508 -6.08444,6.0621 -9.64492,8.58477 -18.53147,13.12991 -17.549027,8.97567 -23.161195,10.88291 -31.670555,10.76292 -4.031195,-0.0568 -8.97009,-0.54047 -10.975322,-1.07472 z M 39.762571,223.43461 c -5.474816,-2.9706 -7.697581,-12.82341 -3.939835,-17.46403 2.018263,-2.49244 9.811919,-4.00997 41.177264,-8.01776 9.075,-1.15958 18.697363,-2.52305 21.383028,-3.02992 4.171892,-0.78737 5.358922,-0.62747 8.150772,1.09799 3.87028,2.39196 5.04578,4.8281 3.21371,6.66017 -3.48775,3.48775 -59.054675,22.41655 -65.401417,22.2789 -1.015351,-0.022 -3.077936,-0.70843 -4.583522,-1.52535 z M 248.5,222.0766 c -10.11577,-2.29703 -26.72795,-8.18102 -36.47876,-12.92069 -6.39431,-3.10813 -7.56897,-4.0713 -7.83982,-6.42828 -0.27041,-2.35321 0.21611,-2.99578 3.21788,-4.25 6.9058,-2.88543 26.00092,-1.24045 40.05124,3.45028 14.34306,4.78846 17.99274,8.40043 17.36369,17.18427 -0.31239,4.36208 -0.3377,4.38897 -4.31423,4.58442 -2.2,0.10813 -7.6,-0.62087 -12,-1.62 z M 146.39828,196.93735 c -12.56851,-1.51221 -21.19309,-5.69617 -33.81682,-16.40521 -5.92671,-5.02778 -6.8725,-5.51638 -7.91597,-4.08935 -3.33288,4.55799 -20.024813,-7.44048 -23.71784,-17.04885 -3.809663,-9.91181 -2.95219,-22.6434 2.249085,-33.39394 4.77698,-9.87356 13.62005,-18.31709 32.741355,-31.262043 30.68756,-20.775209 38.22469,-31.875712 33.62633,-49.524027 -0.90083,-3.457338 -1.39626,-6.677006 -1.10095,-7.154818 0.89339,-1.445536 8.59534,0.0057 16.47021,3.103354 17.15635,6.748644 31.47534,21.387275 37.08423,37.912057 2.88158,8.489624 3.64967,23.078007 1.69212,32.138637 -0.7977,3.69224 -1.22463,6.93891 -0.94872,7.21482 0.92548,0.92548 4.69806,-1.61767 9.90931,-6.68001 3.18717,-3.09609 5.73576,-4.806 6.64386,-4.45753 0.81029,0.31093 2.75851,4.31028 4.32938,8.88745 2.5487,7.4263 2.85614,9.67525 2.85614,20.89282 0,12.02101 -0.1324,12.82998 -3.02788,18.5 -2.311,4.52548 -4.5602,7.07617 -9.5,10.7734 -3.55966,2.66426 -10.30299,8.51426 -14.98517,13 -4.70433,4.50696 -11.24212,9.60348 -14.61291,11.39146 -10.56184,5.60236 -24.30456,7.84667 -37.97576,6.20178 z m 13.49843,-28.33115 c 8.69876,-3.74656 12.69252,-7.1382 15.77213,-13.39427 4.6394,-9.42467 1.98448,-18.80713 -9.74466,-34.43754 -2.77581,-3.69908 -6.33749,-7.64457 -7.91485,-8.76775 l -2.86792,-2.04213 -7.3207,2.94136 c -16.00511,6.43064 -27.76641,15.11435 -31.66321,23.37787 -2.66674,5.65508 -3.57347,13.45775 -2.16969,18.67097 1.56176,5.79996 7.95175,12.48206 14.35811,15.01448 7.76861,3.07091 22.7598,2.42329 31.55079,-1.36299 z M 83.116097,92.116097 C 80.425001,89.425001 80.466472,87.677489 83.368034,81.5 c 2.705604,-5.76029 4.742264,-7.812485 9.886446,-9.961862 5.139432,-2.147392 8.18718,-2.057618 7.1925,0.211862 -0.42185,0.9625 -1.07411,5.04389 -1.449471,9.069756 -0.816105,8.752981 -3.27445,12.005318 -9.72883,12.871032 -3.235448,0.433965 -4.456422,0.121469 -6.152582,-1.574691 z"/>
  </symbol>
  <!-- Items -->
  <symbol id="trail" viewBox="0 0 300 300">
    <path style="fill:#888" d="M 145.5,277.17447 C 122.72376,265.25816 114.02559,259.09289 99.452062,244.53562 84.074549,229.17525 75.565141,218.20934 62.953037,197.5 56.097538,186.24313 48.140005,171.42924 45.911033,165.77429 44.775122,162.89246 42.814717,158.27682 41.554576,155.5173 38.401688,148.61296 31.199595,125.69398 30.079324,119 c -1.905601,-11.38659 -2.220788,-16.21382 -1.032802,-15.81783 0.62795,0.20932 4.181414,5.99146 7.896586,12.8492 12.040212,22.22473 15.885802,28.73355 24.517181,41.49638 18.953417,28.02554 36.431678,46.50549 59.539711,62.95197 6.17714,4.39641 14.14976,8.95804 31,17.73705 17.3452,9.03689 25.8933,13.80157 26.48848,14.76459 0.93276,1.50923 -18.32634,30.02248 -20.2521,29.98342 -0.95501,-0.0194 -6.68638,-2.62501 -12.73638,-5.79031 z m 50.16315,-84.99419 c -0.90575,-1.00084 -2.51199,-4.33436 -3.56941,-7.40782 -3.65201,-10.61475 -15.19065,-31.8912 -23.05412,-42.51016 -1.31865,-1.78074 -2.20452,-3.38879 -1.96859,-3.57345 0.7238,-0.5665 18.9061,-9.68885 19.31144,-9.68885 0.76184,0 7.47859,16.68624 9.45951,23.5 4.0522,13.9383 5.96362,30.7945 4.2244,37.2535 -1.26806,4.7092 -1.98172,5.10252 -4.40323,2.42678 z m -20.5748,-8.2748 c -3.32502,-1.32445 -14.76872,-9.43831 -19.467,-13.80257 -6.05394,-5.62355 -15.47296,-18.79499 -16.19578,-22.64798 C 138.42315,142.1116 139.98786,141 148.51166,141 c 5.46033,0 7.78472,0.43503 9.35033,1.75 1.14595,0.9625 5.03067,7.6 8.63269,14.75 3.60202,7.15 7.88132,15.06263 9.50954,17.58363 3.09569,4.79309 4.19941,8.98954 2.49578,9.48919 -0.55,0.16131 -2.08524,-0.139 -3.41165,-0.66734 z M 117.5,134.35256 c -13.8153,-1.60154 -31.742436,-5.47895 -34.001952,-7.35418 -0.562285,-0.46666 -3.509841,-1.77916 -6.550124,-2.91667 C 69.747463,121.38767 54.129526,112.13193 47.698086,106.74722 41.373374,101.45188 31.314847,88.921063 28.743569,83.133876 27.037786,79.294662 26.980883,78.590545 28.272057,77.299371 30.085766,75.485663 42.767779,73.550989 62.5,72.077809 c 8.25,-0.615934 17.475,-1.349155 20.5,-1.62938 3.025,-0.280226 12.925,-0.902786 22,-1.383467 17.83621,-0.944742 22.32765,-1.991983 32.5,-7.577812 7.34587,-4.033757 25.87059,-11.349283 38,-15.006435 4.95,-1.49248 9.5067,-3.119987 10.12599,-3.616682 1.8355,-1.472139 16.56749,-3.247332 20.61186,-2.483713 4.789,0.904216 5.85215,2.968849 6.43507,12.496923 0.72544,11.857553 -3.58165,30.730014 -10.18384,44.622757 -3.14984,6.62809 -10.01666,14.57711 -17.71653,20.50862 -5.73904,4.42101 -19.1471,11.09959 -26.06071,12.9809 -11.79713,3.21018 -29.8338,4.68204 -41.21184,3.36304 z M 271,91.892235 C 265.775,89.098243 258.23065,84.326583 254.23477,81.288545 244.09744,73.581195 230.02075,58.163995 230.00374,54.75 c -0.01,-1.93372 5.44569,-0.313489 14.28728,4.243321 11.40636,5.878644 24.38804,11.114299 34.35661,13.856397 3.9312,1.081372 9.2152,2.88071 11.74222,3.99853 l 4.59457,2.032401 -5.74221,9.028952 C 286.084,92.875525 282.825,96.946128 282,96.955386 c -0.825,0.0093 -5.775,-2.26916 -11,-5.063151 z M 107.00051,59.929818 C 101.14742,57.471126 96,49.786284 96,43.506594 c 0,-1.965195 1.128973,-5.801003 2.50883,-8.524018 3.44439,-6.797169 8.4188,-9.347526 17.14799,-8.791693 10.09849,0.643023 15.42655,5.813538 16.1389,15.661691 0.81496,11.266733 -5.26051,18.35009 -16.16576,18.847561 -3.37148,0.153799 -7.25473,-0.192844 -8.62945,-0.770317 z"/>
  </symbol>
</svg>
