<?xml version="1.0" encoding="UTF-8" standalone="no"?>
<!-- Various icons created with help of Inkscape (http://www.inkscape.org/) -->
<svg version="1.1">
  <symbol id="heart" viewBox="0 0 300 300">
    <path d="M 142.60959,239.44301 C 113.95321,222.16358 85.878166,200.14007 65.960999,179.31593 34.762678,146.69692 25.58634,117.48388 38.520684,91.959182 44.836353,79.49581 59.46944,65.48697 70.949494,60.913786 78.618407,57.858805 93.1368,57.186091 101.94215,59.477733 c 13.29152,3.459193 26.87142,11.182516 40.38467,22.968066 l 7.75335,6.762057 8.70991,-8.364533 c 24.65648,-23.678741 50.65888,-30.815814 72.23571,-19.827073 11.53148,5.872805 25.70955,20.774076 31.15572,32.744938 10.07795,22.151642 2.90076,46.630652 -22.5704,76.980142 -16.43339,19.58077 -46.61543,44.60439 -77.99281,64.66304 -6.53493,4.1776 -12.15993,7.59447 -12.5,7.59306 -0.34006,-0.001 -3.26898,-1.6009 -6.50871,-3.55442 z"/>
  </symbol>
  <symbol id="season-heart" viewBox="0 0 300 300">
    <path fill="#fdab2b" d="M 142.60959,239.44301 C 113.95321,222.16358 85.878166,200.14007 65.960999,179.31593 34.762678,146.69692 25.58634,117.48388 38.520684,91.959182 44.836353,79.49581 59.46944,65.48697 70.949494,60.913786 78.618407,57.858805 93.1368,57.186091 101.94215,59.477733 c 13.29152,3.459193 26.87142,11.182516 40.38467,22.968066 l 7.75335,6.762057 8.70991,-8.364533 c 24.65648,-23.678741 50.65888,-30.815814 72.23571,-19.827073 11.53148,5.872805 25.70955,20.774076 31.15572,32.744938 10.07795,22.151642 2.90076,46.630652 -22.5704,76.980142 -16.43339,19.58077 -46.61543,44.60439 -77.99281,64.66304 -6.53493,4.1776 -12.15993,7.59447 -12.5,7.59306 -0.34006,-0.001 -3.26898,-1.6009 -6.50871,-3.55442 z"/>
  </symbol>
  <symbol id="candle" viewBox="0 0 300 300">
    <path d="M 120.5,270.37631 C 106.13946,268.69198 97.386844,266.22075 90.081499,261.78791 80.205463,255.7952 80.590573,257.28941 79.87295,222.17903 79.528072,205.30556 78.958924,189.25 78.608176,186.5 78.257428,183.75 77.535605,167.79625 77.004124,151.04722 76.472644,134.29819 75.307902,113.78047 74.415809,105.45228 72.483555,87.413618 73.251287,81.451427 78.371933,74.729097 84.871113,66.197042 94.077339,63.135901 115.75,62.300604 L 131,61.712845 V 48.034561 c 0,-16.305565 1.47967,-22.13649 6.37489,-25.121471 5.61845,-3.425991 10.65579,-2.13244 12.51993,3.215024 0.60785,1.743683 1.10518,9.573082 1.10518,17.398665 0,11.826071 0.27029,14.452655 1.60091,15.556972 1.03298,0.857292 8.90504,1.959415 22.18984,3.106673 23.6378,2.04133 30.18343,3.583756 34.80002,8.200348 5.53852,5.538518 5.80917,8.220618 4.55201,45.109228 -0.61855,18.15 -1.59068,51.225 -2.16029,73.5 -1.68697,65.97002 -1.30846,60.10258 -4.26705,66.1449 -3.25131,6.64014 -8.00613,9.90886 -18.51891,12.73091 -15.89725,4.26745 -44.69467,5.31565 -68.69653,2.5005 z M 153.01155,196.25 c 3.93595,-2.28267 10.79008,-8.05418 17.5168,-14.75 13.37165,-13.31022 17.50437,-20.22507 18.24102,-30.52079 1.03974,-14.5317 -6.39421,-24.1634 -20.89797,-27.07617 -8.96987,-1.80141 -14.83949,0.75865 -21.5673,9.40664 l -2.18582,2.80967 -5.57937,-4.54445 C 131.25148,125.6392 127.93817,124 123.2278,124 c -10.23621,0 -18.14947,5.91689 -22.22651,16.61917 -2.965743,7.78512 -2.824923,13.1771 0.52285,20.01969 7.47958,15.28771 33.43154,39.31803 42.49861,39.35176 1.38752,0.005 5.43247,-1.67812 8.9888,-3.74062 z"/>
  </symbol>
  <symbol id="season-candle" viewBox="0 0 300 300">
    <path fill="#fdab2b" d="M 120.5,270.37631 C 106.13946,268.69198 97.386844,266.22075 90.081499,261.78791 80.205463,255.7952 80.590573,257.28941 79.87295,222.17903 79.528072,205.30556 78.958924,189.25 78.608176,186.5 78.257428,183.75 77.535605,167.79625 77.004124,151.04722 76.472644,134.29819 75.307902,113.78047 74.415809,105.45228 72.483555,87.413618 73.251287,81.451427 78.371933,74.729097 84.871113,66.197042 94.077339,63.135901 115.75,62.300604 L 131,61.712845 V 48.034561 c 0,-16.305565 1.47967,-22.13649 6.37489,-25.121471 5.61845,-3.425991 10.65579,-2.13244 12.51993,3.215024 0.60785,1.743683 1.10518,9.573082 1.10518,17.398665 0,11.826071 0.27029,14.452655 1.60091,15.556972 1.03298,0.857292 8.90504,1.959415 22.18984,3.106673 23.6378,2.04133 30.18343,3.583756 34.80002,8.200348 5.53852,5.538518 5.80917,8.220618 4.55201,45.109228 -0.61855,18.15 -1.59068,51.225 -2.16029,73.5 -1.68697,65.97002 -1.30846,60.10258 -4.26705,66.1449 -3.25131,6.64014 -8.00613,9.90886 -18.51891,12.73091 -15.89725,4.26745 -44.69467,5.31565 -68.69653,2.5005 z M 153.01155,196.25 c 3.93595,-2.28267 10.79008,-8.05418 17.5168,-14.75 13.37165,-13.31022 17.50437,-20.22507 18.24102,-30.52079 1.03974,-14.5317 -6.39421,-24.1634 -20.89797,-27.07617 -8.96987,-1.80141 -14.83949,0.75865 -21.5673,9.40664 l -2.18582,2.80967 -5.57937,-4.54445 C 131.25148,125.6392 127.93817,124 123.2278,124 c -10.23621,0 -18.14947,5.91689 -22.22651,16.61917 -2.965743,7.78512 -2.824923,13.1771 0.52285,20.01969 7.47958,15.28771 33.43154,39.31803 42.49861,39.35176 1.38752,0.005 5.43247,-1.67812 8.9888,-3.74062 z"/>
  </symbol>
  <symbol id="ascended-candle" viewBox="0 0 300 300">
    <defs>
      <radialGradient id="ac-gradient" gradientUnits="userSpaceOnUse" cx="48%" cy="52%" r="100">
        <stop offset="35%" stop-color="#9D3752"/>
        <stop offset="100%" stop-color="#FFDCCF"/>
      </radialGradient>
    </defs>
    <path style="fill:url('#ac-gradient');stroke: #9D3752;stroke-width: 2px;" d="M 132.19253,271.95392 C 109.84932,270.24014 97.72766,267.24222 88.061479,261.03945 79.819795,255.75078 79.721195,255.29293 78.900339,218.5 77.899922,173.6587 76.263326,133.04076 74.770363,116 74.071664,108.025 73.511182,97.225 73.524849,92 c 0.02912,-11.133955 1.803503,-15.557322 8.560808,-21.341324 6.489118,-5.554444 13.995804,-7.609561 32.485773,-8.893684 l 16.07144,-1.116157 -0.0714,-12.574417 c -0.0841,-14.798712 1.33242,-20.974279 5.64275,-24.601186 3.5813,-3.013464 9.66455,-3.369707 12.07419,-0.70708 2.74694,3.035331 3.82011,10.744087 3.148,22.612567 -0.85742,15.14074 -1.25595,14.726189 15.17162,15.78167 28.83453,1.852636 37.83926,3.715032 43.17231,8.929073 6.13884,6.001848 5.98043,1.253327 3.21615,96.410538 -0.51128,17.6 -1.20867,42.8 -1.54977,56 -0.72442,28.03361 -1.61228,32.6656 -7.36387,38.41719 -4.41499,4.41499 -11.90372,7.24094 -25.08281,9.46527 -11.35149,1.91586 -32.88987,2.63897 -46.80747,1.57146 z"/>
    <path style="fill:#fff" d="m 140.78738,211.25 c -0.97969,-1.12602 -1.72812,-4.78076 -2.09902,-10.25 -1.18159,-17.42369 -7.36292,-29.73213 -17.40411,-34.65552 C 116.1549,163.82946 114.19795,163.46824 104,163.15414 92.035288,162.78563 89,161.74267 89,158 c 0,-3.26299 3.252468,-4.73243 11.95614,-5.4017 15.31156,-1.17738 25.88251,-4.55111 30.81059,-9.83324 3.93609,-4.21887 6.41475,-13.19983 6.97291,-25.26506 0.54544,-11.79016 1.62804,-14.5 5.7929,-14.5 1.22242,0 2.67423,0.5625 3.22626,1.25 0.55203,0.6875 1.22744,6.2 1.50091,12.25 0.6374,14.10138 3.33173,22.01489 9.74029,28.60813 6.23844,6.41821 13.37124,8.96103 27.39521,9.76627 8.84755,0.50802 11.10188,0.9545 11.99488,2.3756 0.79965,1.27254 0.79946,2.22746 -7.1e-4,3.5 -0.85493,1.35965 -3.19591,1.92163 -10.49488,2.51944 -16.11782,1.32011 -25.11446,4.76537 -31.55735,12.08487 -5.01982,5.70283 -7.4862,13.50763 -8.10421,25.64569 -0.26604,5.225 -0.93238,10.0625 -1.48076,10.75 -1.41826,1.77804 -4.18453,1.54616 -5.9648,-0.5 z"/>
  </symbol>
  <symbol id="flaps" viewBox="0 0 300 300">
    <path d="m 136.47523,237.14822 c -0.94203,-0.3224 -5.37388,-1.07972 -9.84858,-1.68253 -6.08635,-0.81994 -8.13574,-1.82968 -8.13574,-4.00854 0,-3.48593 23.77276,-108.2021 25.02357,-110.22604 0.47904,-0.77464 2.05942,-1.40839 3.5126,-1.40839 2.34634,0 2.54086,6.41831 1.73763,57.3382 -0.49717,31.536 -1.39201,58.12701 -1.98789,59.09118 -1.03079,1.66784 -6.62617,2.15458 -10.30159,0.89612 z m 17.51621,-0.28161 c -0.46801,-0.78679 -0.96463,-27.44356 -1.10394,-59.23722 -0.24147,-55.13687 -0.10745,-57.80654 2.90681,-57.80654 2.74271,0 4.78594,7.09556 15.47129,53.72648 6.77118,29.5496 12.31131,55.00359 12.31131,56.56442 0,1.56083 -1.7342,3.49422 -3.85377,4.29635 -5.97487,2.26121 -24.78029,4.05652 -25.7317,2.45651 z m -60.335974,-10.7412 c -6.594188,-2.71085 -11.811088,-5.72856 -11.592995,-6.70605 0.455076,-2.03982 47.636719,-93.36567 51.204869,-99.11327 2.37267,-3.82184 7.48709,-3.73438 7.49272,0.12822 0.006,4.85075 -29.74154,108.28833 -31.46597,109.40896 -2.63439,1.71205 -2.14998,1.82722 -15.638624,-3.71782 z m 97.986294,3.7441 c -0.38581,-0.70653 -7.51953,-25.80966 -15.85297,-55.78464 -12.69078,-45.64811 -14.74924,-54.74878 -12.67395,-56.0319 1.5743,-0.97329 3.18737,-0.77378 4.42382,0.54702 1.07033,1.14348 13.33152,23.95905 27.24703,50.70127 19.03723,36.58477 24.89021,49.27335 23.64185,51.25244 -0.91251,1.44663 -6.23686,4.38368 -11.83192,6.5268 -11.04994,4.23259 -13.87777,4.75993 -14.95386,2.7888 z M 61.581968,208.42911 c -5.394009,-3.98685 -10.096575,-8.0196 -10.450229,-8.96162 -0.780636,-2.07963 73.658431,-85.40964 76.997751,-86.19417 1.29872,-0.30493 2.80102,0.59104 3.33846,1.99159 1.3375,3.48534 -54.15109,100.33869 -57.509492,100.38084 -1.413046,0.0194 -6.982482,-3.22978 -12.37649,-7.21664 z m 162.490622,3.4561 c -1.32156,-2.11957 -14.11346,-24.1534 -28.42631,-48.96411 -24.40521,-42.30531 -28.2402,-51.13028 -21.57492,-49.64778 3.64084,0.80978 76.30429,82.23056 76.30429,85.5004 0,2.72937 -18.52006,16.96524 -22.07079,16.96524 -1.00613,0 -2.91063,-1.73419 -4.23227,-3.85375 z m -6.929,-59.352 c -29.36459,-29.38374 -40.61644,-41.71193 -39.86271,-43.67607 0.57743,-1.50516 1.80695,-2.73661 2.73195,-2.73661 3.27231,0 96.05465,62.19995 96.05465,64.39363 0,1.79136 -16.2562,22.95857 -17.63189,22.95857 -0.20848,0 -18.78994,-18.42276 -41.292,-40.93952 z M 35.375365,184.48048 c -6.3137,-7.28719 -10.55209,-14.46167 -9.225041,-15.61571 0.38854,-0.33793 21.781295,-14.64856 47.539412,-31.80142 43.671874,-29.08195 53.016024,-33.97263 51.350784,-26.87654 -0.88643,3.77704 -77.922303,81.57303 -80.776026,81.57303 -1.420159,0 -5.420286,-3.27573 -8.889129,-7.27936 z M 14.046174,151.31723 C 11.103177,145.08834 8.9278304,138.8268 9.2120641,137.40269 9.7961696,134.47614 114.35472,97.114424 118.18931,98.462024 c 1.24719,0.43825 2.01793,2.017596 1.71283,3.509546 -0.57095,2.79152 -94.34732,60.67084 -98.299264,60.67084 -1.213185,0 -4.613705,-5.09635 -7.556702,-11.32518 z M 230.67858,133.54719 c -26.37693,-15.99538 -48.20775,-30.25385 -48.51284,-31.68541 -0.30493,-1.43163 0.46543,-2.973816 1.71276,-3.427086 1.2472,-0.45314 26.15468,7.471556 55.35011,17.610716 39.35875,13.66886 53.22798,19.1902 53.64507,21.35618 0.71759,3.72597 -9.79699,25.24289 -12.33117,25.23454 -1.0482,-0.003 -23.48695,-13.09348 -49.86393,-29.08894 z m -91.90104,-33.00187 c -4.97537,-4.205846 -8.29706,-9.818256 -8.29706,-14.018814 0,-2.61188 18.56188,-26.651395 20.57865,-26.651395 2.06505,0 20.52827,23.843126 20.52827,26.509948 0,4.300911 -4.708,12.388465 -8.93528,15.349381 -5.81259,4.07134 -18.39293,3.44471 -23.87458,-1.18912 z"/>
  </symbol>
  <symbol id="gift" viewBox="0 0 300 300">
    <path d="m 78.201273,228.05675 c -9.939455,-2.84162 -20.97757,-8.79893 -26.859803,-14.49632 -4.883891,-4.73042 -5.340633,-5.55427 -5.331701,-9.61703 0.01167,-5.30766 3.198393,-12.55491 9.327005,-21.21146 5.930688,-8.377 6.539352,-9.70677 13.145825,-28.72011 3.150984,-9.06849 7.01721,-19.03997 8.591614,-22.15885 4.826422,-9.56108 12.185448,-16.49386 25.846877,-24.34977 6.94285,-3.99244 15.47619,-9.939707 19.87317,-13.850502 11.59866,-10.316185 18.87782,-12.980624 23.32182,-8.536632 1.73811,1.738111 2.03327,2.977816 1.65249,6.940621 -0.39676,4.129244 -1.5596,6.272643 -8.06863,14.872573 -4.54701,6.00764 -7.86502,11.43375 -8.25156,13.4942 -2.11673,11.28313 9.07882,19.38262 29.13834,21.08032 21.40271,1.81138 49.70616,-12.00293 70.10253,-34.21555 15.24289,-16.600228 18.1913,-19.324044 23.68771,-21.883299 5.16213,-2.403605 11.01474,-3.077238 13.42948,-1.545729 1.03315,0.655255 0.5395,3.200979 -2.35983,12.169498 -12.17019,37.64615 -40.77022,72.57389 -73.032,89.19022 -11.91995,6.13933 -18.6328,8.20716 -38.31094,11.80134 -27.76511,5.07125 -32.42732,7.26416 -45.28968,21.30243 -4.22731,4.61378 -9.245317,9.12863 -11.151131,10.03299 -4.419458,2.09717 -11.458649,1.98905 -19.461586,-0.29894 z"/>
  </symbol>
  <!-- Items -->
  <symbol id="double-deck-chairs" viewBox="0 0 300 300">
    <path style="fill:#888" d="m 131.12323,259.53545 c -2.21446,-2.18362 -2.32674,-2.81075 -1.64427,-9.18355 0.40287,-3.76194 1.33604,-8.41759 2.07371,-10.34589 1.39558,-3.64811 6.78457,-25.54021 8.00172,-32.50601 0.80832,-4.62605 2.95861,-7.5 5.6115,-7.5 1.63329,0 6.33612,1.82401 13.58411,5.26864 2.59213,1.23192 2.82552,3.22268 0.85906,7.32772 -0.76502,1.597 -2.11502,4.59114 -3,6.65364 -6.43101,14.98781 -7.74088,18.06886 -8.60906,20.25 -0.43784,1.1 -1.4879,3.58176 -2.33345,5.51502 -0.84555,1.93325 -2.01711,4.77682 -2.60346,6.31904 -1.28439,3.37821 -7.16323,10.64685 -8.56309,10.58747 -0.55,-0.0233 -2.06954,-1.09706 -3.37677,-2.38608 z M 216,223.28819 C 198.675,216.40571 183.08199,210.15031 181.34887,209.3873 179.61575,208.62428 177.88376,208 177.5,208 c -0.38376,0 -2.11575,-0.62377 -3.84887,-1.38616 -1.73312,-0.76238 -5.85113,-2.40755 -9.15113,-3.65592 -3.3,-1.24837 -6.4275,-2.6496 -6.95,-3.11384 -0.5225,-0.46425 -1.6475,-0.85547 -2.5,-0.86939 -0.8525,-0.0139 -5.15,-1.86325 -9.55,-4.10963 -4.4,-2.24638 -9.00899,-4.59749 -10.2422,-5.22469 -1.96441,-0.99909 -2.24316,-1.92283 -2.25,-7.45611 -0.0121,-9.80349 0.35125,-10.12541 10.73588,-9.51162 9.43521,0.55767 9.33256,0.51918 28.75632,10.78464 24.34027,12.86384 27.92105,14.59513 29.18421,14.1104 0.72369,-0.2777 1.31282,-1.75653 1.30918,-3.2863 -0.004,-1.52976 0.43271,-6.15638 0.96964,-10.28138 2.05893,-15.81762 4.91753,-42.7542 7.05722,-66.5 0.44603,-4.95 1.08687,-11.025 1.42408,-13.5 0.33721,-2.475 1.08408,-8.55 1.6597,-13.5 1.05055,-9.034047 2.71705,-14.865906 7.80164,-27.301638 3.35312,-8.200963 5.00376,-8.670549 13.59433,-3.867413 l 6,3.354705 1.16402,9.907173 c 2.19965,18.721513 1.86733,20.633826 -7.63,43.907173 -1.68196,4.12168 -4.32423,13.15447 -5.11908,17.5 -0.45271,2.475 -1.2938,6.75 -1.86909,9.5 -3.18502,15.22507 -3.18068,15.28092 2.95727,38 1.18873,4.4 2.38323,9.125 2.65443,10.5 0.27121,1.375 0.86107,3.4 1.31082,4.5 1.27139,3.10961 5.03163,17.15548 5.03163,18.795 0,1.33116 6.00035,6.705 7.48671,6.705 1.17845,0 7.51323,5.50334 7.51326,6.52714 4e-5,1.31093 -5.623,7.50534 -6.6936,7.37375 -0.4435,-0.0545 -14.98137,-5.73023 -32.30637,-12.6127 z m 8.19204,-15.94081 c -1.28082,-2.49982 -2.92688,-8.0417 -3.74499,-12.60843 C 219.43882,189.11099 218,189.19508 218,194.88197 c 0,2.75 -0.45,5.27811 -1,5.61803 -2.02568,1.25194 -0.89209,3.46547 3.25,6.34622 4.63297,3.22215 5.38518,3.31778 3.94204,0.50116 z M 118.88895,186.55561 c -0.24442,-0.24441 -3.80692,-0.91755 -7.91667,-1.49587 -20.809129,-2.92821 -32.282669,-6.71956 -39.22228,-12.96071 -2.947304,-2.65066 -3.411278,-4.9949 -1.642661,-8.2996 1.029356,-1.92336 1.67736,-2.02154 9.201389,-1.39406 9.309209,0.77636 21.180282,-0.7734 27.203162,-3.55136 5.29515,-2.4423 16.24885,-12.41261 22.12363,-20.13743 4.75956,-6.25841 10.16347,-16.30437 12.21969,-22.71658 0.61729,-1.925 2.52647,-8 4.24261,-13.5 1.71614,-5.5 3.48282,-10.9 3.92594,-12 0.44313,-1.1 1.36174,-6.179449 2.04137,-11.287664 1.10448,-8.301538 1.54639,-9.549106 4.162,-11.75 3.3137,-2.788295 5.44698,-3.070904 8.30036,-1.099601 2.99525,2.069307 7.81386,2.836662 20.97251,3.339828 12.68546,0.485071 20.04792,-0.581923 26.71016,-3.870934 7.29927,-3.603495 8.44048,-2.036854 4.13185,5.672134 -3.1465,5.62969 -4.17433,9.898876 -5.29572,21.996237 -2.25238,24.29834 -4.24598,40.23909 -5.31517,42.5 -0.65024,1.375 -3.40877,5.875 -6.13006,10 -11.79576,17.8803 -23.41392,31 -27.45208,31 -1.04264,0 -5.35529,-2.07938 -9.58367,-4.62085 l -7.68796,-4.62085 -11.38533,-0.41308 c -13.33328,-0.48376 -12.90313,-0.80818 -13.79756,10.40634 -0.3181,3.98836 -0.85604,7.70086 -1.19543,8.25 -0.60303,0.97574 -7.7298,1.43434 -8.61008,0.55405 z m 68.60527,-97.54626 c 0.89627,-1.450194 -4.84908,-11.454009 -6.79325,-11.828422 -1.07207,-0.20646 -2.72448,1.363515 -4.67916,4.445729 -3.46893,5.469944 -3.72911,7.041859 -1.27181,7.684017 3.38614,0.884891 12.139,0.677938 12.74422,-0.301324 z m 14.83621,-0.08414 c 2.55941,-0.710696 3.65794,-1.513147 3.31059,-2.418312 C 204.62476,83.858575 199.96202,77 199.17783,77 c -0.88665,0 -3.06577,11.778726 -2.31754,12.526957 0.65716,0.657155 1.11978,0.606263 5.47014,-0.601747 z M 166,85.059017 c 0,-1.617541 -0.45,-3.219098 -1,-3.559017 -0.55,-0.339919 -1,-1.941476 -1,-3.559017 0,-4.700512 -2.18683,-3.825708 -6.78291,2.713387 -2.93072,4.169698 -2.81294,4.865166 1.03291,6.098882 6.07913,1.950133 7.75,1.584863 7.75,-1.694235 z M 129.49137,118.75 c 0.35765,-1.7875 1.30331,-5.91252 2.10147,-9.16672 0.79816,-3.25419 1.66164,-12.569075 1.91886,-20.699741 0.39226,-12.399632 0.85255,-15.805612 2.85499,-21.1256 1.31304,-3.488414 2.7123,-8.266006 3.10948,-10.616871 1.11078,-6.57464 3.56289,-7.127181 11.28611,-2.543133 3.43075,2.036287 6.23772,4.303394 6.23772,5.038014 0,0.734621 -1.70675,2.465149 -3.79278,3.845618 -3.29173,2.178364 -3.94542,3.270121 -4.9482,8.264189 -0.63548,3.164834 -1.39431,8.21623 -1.68629,11.225324 -0.50096,5.162881 -2.74473,13.416742 -4.69348,17.26535 -0.48359,0.95504 -0.87925,2.19744 -0.87925,2.7609 0,1.11123 -2.88576,7.97878 -6.1991,14.75267 -1.38215,2.8257 -2.72914,4.25 -4.01932,4.25 -1.656,0 -1.84515,-0.47648 -1.29021,-3.25 z" />
    <path style="fill:#cb6371" d="m 116,244.966 c -0.825,-0.504 -3.75,-1.87239 -6.5,-3.04085 -2.75,-1.16846 -5.9,-2.513 -7,-2.98788 -1.80721,-0.78018 -12.436314,-3.72194 -21.5,-5.95044 -1.925,-0.4733 -5.561553,-1.37618 -8.081229,-2.0064 -7.517627,-1.88029 -9.917835,-1.13356 -11.795991,3.66987 -3.986886,10.19655 -10.286971,11.27504 -11.789158,2.01814 -0.578385,-3.56416 0.380561,-7.47416 5.804802,-23.66844 1.565882,-4.675 2.850324,-9.48594 2.854317,-10.69098 0.004,-1.20504 0.396607,-2.43162 0.872476,-2.72572 0.475869,-0.2941 1.147372,-2.00816 1.492228,-3.80902 0.344856,-1.80085 1.017722,-5.17386 1.495257,-7.49556 C 62.8437,183.46064 62.387544,182.83624 55,178.89857 52.525,177.57936 50.35,176.1625 50.166667,175.75 49.983333,175.3375 49.265578,175 48.571654,175 c -0.693923,0 -2.037341,-0.8571 -2.985373,-1.90466 -1.51316,-1.67202 -1.572089,-2.4354 -0.482464,-6.25 C 46.972662,160.30282 48.501562,159 54.310597,159 c 3.801126,0 5.791484,0.60322 8.297679,2.51479 3.018146,2.30205 3.322209,3.03635 3.59439,8.68027 l 0.297334,6.16549 6.959159,3.76206 c 14.714841,7.95472 30.990471,12.11428 46.047981,11.76849 8.98526,-0.20634 10.62278,0.0261 13.73478,1.9494 4.92512,3.04389 6.37955,4.93803 4.9157,6.40188 -0.63669,0.63669 -1.15762,1.94645 -1.15762,2.91057 0,0.96412 -0.52223,2.89912 -1.16052,4.3 C 134.93175,209.4452 133.9486,210 131.32592,210 c -1.84418,0 -4.13445,-0.45237 -5.08949,-1.00526 -0.95504,-0.55289 -6.68643,-2.98149 -12.73643,-5.39688 -6.05,-2.41539 -15.854601,-6.44233 -21.788001,-8.94877 -5.933401,-2.50644 -11.339245,-4.34562 -12.012988,-4.08708 -0.673743,0.25854 -1.819368,1.92535 -2.545832,3.70403 -0.726465,1.77868 -1.688274,4.13396 -2.137353,5.23396 -0.449078,1.1 -1.680079,4.025 -2.735557,6.5 -4.038732,9.47046 -4.710354,12.71277 -2.989764,14.43336 0.861651,0.86165 1.979644,1.56664 2.484428,1.56664 0.504785,0 2.224428,0.62592 3.821429,1.39094 1.597001,0.76502 4.478638,2.06266 6.403638,2.88364 1.925,0.82099 5.632596,2.44506 8.239102,3.60906 2.606505,1.164 5.419005,2.11636 6.25,2.11636 C 97.320096,232 98,232.45 98,233 c 0,0.60065 4.09337,1.00601 10.25,1.01506 11.06982,0.0163 18.02691,1.68839 18.58856,4.46776 0.1862,0.92146 -0.20589,2.98978 -0.87132,4.59628 -1.03106,2.48919 -1.7462,2.91221 -4.83856,2.86209 C 119.13291,245.90885 116.825,245.47001 116,244.966 Z m 48.25,-22.99716 c -2.9985,-1.20525 -2.88681,-4.44516 0.29714,-8.61953 l 2.54714,-3.33948 2.90424,2.1472 c 4.05659,2.99916 4.29242,4.34376 1.37081,7.81589 -2.69774,3.20608 -3.52889,3.4391 -7.11933,1.99592 z" />
  </symbol>
  <symbol id="trail" viewBox="0 0 300 300">
    <path style="fill:#888" d="M 145.5,277.17447 C 122.72376,265.25816 114.02559,259.09289 99.452062,244.53562 84.074549,229.17525 75.565141,218.20934 62.953037,197.5 56.097538,186.24313 48.140005,171.42924 45.911033,165.77429 44.775122,162.89246 42.814717,158.27682 41.554576,155.5173 38.401688,148.61296 31.199595,125.69398 30.079324,119 c -1.905601,-11.38659 -2.220788,-16.21382 -1.032802,-15.81783 0.62795,0.20932 4.181414,5.99146 7.896586,12.8492 12.040212,22.22473 15.885802,28.73355 24.517181,41.49638 18.953417,28.02554 36.431678,46.50549 59.539711,62.95197 6.17714,4.39641 14.14976,8.95804 31,17.73705 17.3452,9.03689 25.8933,13.80157 26.48848,14.76459 0.93276,1.50923 -18.32634,30.02248 -20.2521,29.98342 -0.95501,-0.0194 -6.68638,-2.62501 -12.73638,-5.79031 z m 50.16315,-84.99419 c -0.90575,-1.00084 -2.51199,-4.33436 -3.56941,-7.40782 -3.65201,-10.61475 -15.19065,-31.8912 -23.05412,-42.51016 -1.31865,-1.78074 -2.20452,-3.38879 -1.96859,-3.57345 0.7238,-0.5665 18.9061,-9.68885 19.31144,-9.68885 0.76184,0 7.47859,16.68624 9.45951,23.5 4.0522,13.9383 5.96362,30.7945 4.2244,37.2535 -1.26806,4.7092 -1.98172,5.10252 -4.40323,2.42678 z m -20.5748,-8.2748 c -3.32502,-1.32445 -14.76872,-9.43831 -19.467,-13.80257 -6.05394,-5.62355 -15.47296,-18.79499 -16.19578,-22.64798 C 138.42315,142.1116 139.98786,141 148.51166,141 c 5.46033,0 7.78472,0.43503 9.35033,1.75 1.14595,0.9625 5.03067,7.6 8.63269,14.75 3.60202,7.15 7.88132,15.06263 9.50954,17.58363 3.09569,4.79309 4.19941,8.98954 2.49578,9.48919 -0.55,0.16131 -2.08524,-0.139 -3.41165,-0.66734 z M 117.5,134.35256 c -13.8153,-1.60154 -31.742436,-5.47895 -34.001952,-7.35418 -0.562285,-0.46666 -3.509841,-1.77916 -6.550124,-2.91667 C 69.747463,121.38767 54.129526,112.13193 47.698086,106.74722 41.373374,101.45188 31.314847,88.921063 28.743569,83.133876 27.037786,79.294662 26.980883,78.590545 28.272057,77.299371 30.085766,75.485663 42.767779,73.550989 62.5,72.077809 c 8.25,-0.615934 17.475,-1.349155 20.5,-1.62938 3.025,-0.280226 12.925,-0.902786 22,-1.383467 17.83621,-0.944742 22.32765,-1.991983 32.5,-7.577812 7.34587,-4.033757 25.87059,-11.349283 38,-15.006435 4.95,-1.49248 9.5067,-3.119987 10.12599,-3.616682 1.8355,-1.472139 16.56749,-3.247332 20.61186,-2.483713 4.789,0.904216 5.85215,2.968849 6.43507,12.496923 0.72544,11.857553 -3.58165,30.730014 -10.18384,44.622757 -3.14984,6.62809 -10.01666,14.57711 -17.71653,20.50862 -5.73904,4.42101 -19.1471,11.09959 -26.06071,12.9809 -11.79713,3.21018 -29.8338,4.68204 -41.21184,3.36304 z M 271,91.892235 C 265.775,89.098243 258.23065,84.326583 254.23477,81.288545 244.09744,73.581195 230.02075,58.163995 230.00374,54.75 c -0.01,-1.93372 5.44569,-0.313489 14.28728,4.243321 11.40636,5.878644 24.38804,11.114299 34.35661,13.856397 3.9312,1.081372 9.2152,2.88071 11.74222,3.99853 l 4.59457,2.032401 -5.74221,9.028952 C 286.084,92.875525 282.825,96.946128 282,96.955386 c -0.825,0.0093 -5.775,-2.26916 -11,-5.063151 z M 107.00051,59.929818 C 101.14742,57.471126 96,49.786284 96,43.506594 c 0,-1.965195 1.128973,-5.801003 2.50883,-8.524018 3.44439,-6.797169 8.4188,-9.347526 17.14799,-8.791693 10.09849,0.643023 15.42655,5.813538 16.1389,15.661691 0.81496,11.266733 -5.26051,18.35009 -16.16576,18.847561 -3.37148,0.153799 -7.25473,-0.192844 -8.62945,-0.770317 z"/>
  </symbol>
</svg>
