<?xml version="1.0" encoding="UTF-8" standalone="no"?>
<!-- Various icons created with help of Inkscape (http://www.inkscape.org/) -->
<svg version="1.1">
  <symbol id="heart" viewBox="0 0 300 300">
    <path d="M 142.60959,239.44301 C 113.95321,222.16358 85.878166,200.14007 65.960999,179.31593 34.762678,146.69692 25.58634,117.48388 38.520684,91.959182 44.836353,79.49581 59.46944,65.48697 70.949494,60.913786 78.618407,57.858805 93.1368,57.186091 101.94215,59.477733 c 13.29152,3.459193 26.87142,11.182516 40.38467,22.968066 l 7.75335,6.762057 8.70991,-8.364533 c 24.65648,-23.678741 50.65888,-30.815814 72.23571,-19.827073 11.53148,5.872805 25.70955,20.774076 31.15572,32.744938 10.07795,22.151642 2.90076,46.630652 -22.5704,76.980142 -16.43339,19.58077 -46.61543,44.60439 -77.99281,64.66304 -6.53493,4.1776 -12.15993,7.59447 -12.5,7.59306 -0.34006,-0.001 -3.26898,-1.6009 -6.50871,-3.55442 z"/>
  </symbol>
  <symbol id="season-heart" viewBox="0 0 300 300">
    <path fill="#fdab2b" d="M 142.60959,239.44301 C 113.95321,222.16358 85.878166,200.14007 65.960999,179.31593 34.762678,146.69692 25.58634,117.48388 38.520684,91.959182 44.836353,79.49581 59.46944,65.48697 70.949494,60.913786 78.618407,57.858805 93.1368,57.186091 101.94215,59.477733 c 13.29152,3.459193 26.87142,11.182516 40.38467,22.968066 l 7.75335,6.762057 8.70991,-8.364533 c 24.65648,-23.678741 50.65888,-30.815814 72.23571,-19.827073 11.53148,5.872805 25.70955,20.774076 31.15572,32.744938 10.07795,22.151642 2.90076,46.630652 -22.5704,76.980142 -16.43339,19.58077 -46.61543,44.60439 -77.99281,64.66304 -6.53493,4.1776 -12.15993,7.59447 -12.5,7.59306 -0.34006,-0.001 -3.26898,-1.6009 -6.50871,-3.55442 z"/>
  </symbol>
  <symbol id="candle" viewBox="0 0 300 300">
    <path d="M 120.5,270.37631 C 106.13946,268.69198 97.386844,266.22075 90.081499,261.78791 80.205463,255.7952 80.590573,257.28941 79.87295,222.17903 79.528072,205.30556 78.958924,189.25 78.608176,186.5 78.257428,183.75 77.535605,167.79625 77.004124,151.04722 76.472644,134.29819 75.307902,113.78047 74.415809,105.45228 72.483555,87.413618 73.251287,81.451427 78.371933,74.729097 84.871113,66.197042 94.077339,63.135901 115.75,62.300604 L 131,61.712845 V 48.034561 c 0,-16.305565 1.47967,-22.13649 6.37489,-25.121471 5.61845,-3.425991 10.65579,-2.13244 12.51993,3.215024 0.60785,1.743683 1.10518,9.573082 1.10518,17.398665 0,11.826071 0.27029,14.452655 1.60091,15.556972 1.03298,0.857292 8.90504,1.959415 22.18984,3.106673 23.6378,2.04133 30.18343,3.583756 34.80002,8.200348 5.53852,5.538518 5.80917,8.220618 4.55201,45.109228 -0.61855,18.15 -1.59068,51.225 -2.16029,73.5 -1.68697,65.97002 -1.30846,60.10258 -4.26705,66.1449 -3.25131,6.64014 -8.00613,9.90886 -18.51891,12.73091 -15.89725,4.26745 -44.69467,5.31565 -68.69653,2.5005 z M 153.01155,196.25 c 3.93595,-2.28267 10.79008,-8.05418 17.5168,-14.75 13.37165,-13.31022 17.50437,-20.22507 18.24102,-30.52079 1.03974,-14.5317 -6.39421,-24.1634 -20.89797,-27.07617 -8.96987,-1.80141 -14.83949,0.75865 -21.5673,9.40664 l -2.18582,2.80967 -5.57937,-4.54445 C 131.25148,125.6392 127.93817,124 123.2278,124 c -10.23621,0 -18.14947,5.91689 -22.22651,16.61917 -2.965743,7.78512 -2.824923,13.1771 0.52285,20.01969 7.47958,15.28771 33.43154,39.31803 42.49861,39.35176 1.38752,0.005 5.43247,-1.67812 8.9888,-3.74062 z"/>
  </symbol>
  <symbol id="season-candle" viewBox="0 0 300 300">
    <path fill="#fdab2b" d="M 120.5,270.37631 C 106.13946,268.69198 97.386844,266.22075 90.081499,261.78791 80.205463,255.7952 80.590573,257.28941 79.87295,222.17903 79.528072,205.30556 78.958924,189.25 78.608176,186.5 78.257428,183.75 77.535605,167.79625 77.004124,151.04722 76.472644,134.29819 75.307902,113.78047 74.415809,105.45228 72.483555,87.413618 73.251287,81.451427 78.371933,74.729097 84.871113,66.197042 94.077339,63.135901 115.75,62.300604 L 131,61.712845 V 48.034561 c 0,-16.305565 1.47967,-22.13649 6.37489,-25.121471 5.61845,-3.425991 10.65579,-2.13244 12.51993,3.215024 0.60785,1.743683 1.10518,9.573082 1.10518,17.398665 0,11.826071 0.27029,14.452655 1.60091,15.556972 1.03298,0.857292 8.90504,1.959415 22.18984,3.106673 23.6378,2.04133 30.18343,3.583756 34.80002,8.200348 5.53852,5.538518 5.80917,8.220618 4.55201,45.109228 -0.61855,18.15 -1.59068,51.225 -2.16029,73.5 -1.68697,65.97002 -1.30846,60.10258 -4.26705,66.1449 -3.25131,6.64014 -8.00613,9.90886 -18.51891,12.73091 -15.89725,4.26745 -44.69467,5.31565 -68.69653,2.5005 z M 153.01155,196.25 c 3.93595,-2.28267 10.79008,-8.05418 17.5168,-14.75 13.37165,-13.31022 17.50437,-20.22507 18.24102,-30.52079 1.03974,-14.5317 -6.39421,-24.1634 -20.89797,-27.07617 -8.96987,-1.80141 -14.83949,0.75865 -21.5673,9.40664 l -2.18582,2.80967 -5.57937,-4.54445 C 131.25148,125.6392 127.93817,124 123.2278,124 c -10.23621,0 -18.14947,5.91689 -22.22651,16.61917 -2.965743,7.78512 -2.824923,13.1771 0.52285,20.01969 7.47958,15.28771 33.43154,39.31803 42.49861,39.35176 1.38752,0.005 5.43247,-1.67812 8.9888,-3.74062 z"/>
  </symbol>
  <symbol id="ascended-candle" viewBox="0 0 300 300">
    <defs>
      <radialGradient id="ac-gradient" gradientUnits="userSpaceOnUse" cx="48%" cy="52%" r="100">
        <stop offset="35%" stop-color="#9D3752"/>
        <stop offset="100%" stop-color="#FFDCCF"/>
      </radialGradient>
    </defs>
    <path style="fill:url('#ac-gradient');stroke: #9D3752;stroke-width: 2px;" d="M 132.19253,271.95392 C 109.84932,270.24014 97.72766,267.24222 88.061479,261.03945 79.819795,255.75078 79.721195,255.29293 78.900339,218.5 77.899922,173.6587 76.263326,133.04076 74.770363,116 74.071664,108.025 73.511182,97.225 73.524849,92 c 0.02912,-11.133955 1.803503,-15.557322 8.560808,-21.341324 6.489118,-5.554444 13.995804,-7.609561 32.485773,-8.893684 l 16.07144,-1.116157 -0.0714,-12.574417 c -0.0841,-14.798712 1.33242,-20.974279 5.64275,-24.601186 3.5813,-3.013464 9.66455,-3.369707 12.07419,-0.70708 2.74694,3.035331 3.82011,10.744087 3.148,22.612567 -0.85742,15.14074 -1.25595,14.726189 15.17162,15.78167 28.83453,1.852636 37.83926,3.715032 43.17231,8.929073 6.13884,6.001848 5.98043,1.253327 3.21615,96.410538 -0.51128,17.6 -1.20867,42.8 -1.54977,56 -0.72442,28.03361 -1.61228,32.6656 -7.36387,38.41719 -4.41499,4.41499 -11.90372,7.24094 -25.08281,9.46527 -11.35149,1.91586 -32.88987,2.63897 -46.80747,1.57146 z"/>
    <path style="fill:#fff" d="m 140.78738,211.25 c -0.97969,-1.12602 -1.72812,-4.78076 -2.09902,-10.25 -1.18159,-17.42369 -7.36292,-29.73213 -17.40411,-34.65552 C 116.1549,163.82946 114.19795,163.46824 104,163.15414 92.035288,162.78563 89,161.74267 89,158 c 0,-3.26299 3.252468,-4.73243 11.95614,-5.4017 15.31156,-1.17738 25.88251,-4.55111 30.81059,-9.83324 3.93609,-4.21887 6.41475,-13.19983 6.97291,-25.26506 0.54544,-11.79016 1.62804,-14.5 5.7929,-14.5 1.22242,0 2.67423,0.5625 3.22626,1.25 0.55203,0.6875 1.22744,6.2 1.50091,12.25 0.6374,14.10138 3.33173,22.01489 9.74029,28.60813 6.23844,6.41821 13.37124,8.96103 27.39521,9.76627 8.84755,0.50802 11.10188,0.9545 11.99488,2.3756 0.79965,1.27254 0.79946,2.22746 -7.1e-4,3.5 -0.85493,1.35965 -3.19591,1.92163 -10.49488,2.51944 -16.11782,1.32011 -25.11446,4.76537 -31.55735,12.08487 -5.01982,5.70283 -7.4862,13.50763 -8.10421,25.64569 -0.26604,5.225 -0.93238,10.0625 -1.48076,10.75 -1.41826,1.77804 -4.18453,1.54616 -5.9648,-0.5 z"/>
  </symbol>
  <symbol id="ticket" viewBox="0 0 300 300">
    <path d="m 182.76769,270.89304 c -2.03326,-0.77981 -3.01427,-2.11543 -3.83441,-5.22048 -5.92048,-22.41489 -36.15115,-31.45483 -51.60695,-15.43212 -4.68807,4.86003 -6.85474,8.72886 -7.84521,14.00849 -0.37968,2.0239 -1.30544,4.19031 -2.05724,4.81424 -0.91768,0.76161 -5.73082,1.0198 -14.64539,0.78563 -14.78073,-0.38826 -18.34352,-1.59572 -22.379378,-7.58453 -4.208241,-6.2446 -5.803311,-38.71372 -5.834386,-118.76427 -0.02607,-67.165763 0.558875,-79.706472 4.503103,-96.542226 2.406599,-10.272453 4.859129,-14.611482 9.30991,-16.471137 4.294248,-1.794251 19.702451,-2.956947 27.038781,-2.040334 4.94948,0.618396 5.83281,1.063031 6.72049,3.382837 4.72337,12.343709 11.96595,20.655 20.54693,23.578833 15.80661,5.385855 32.08481,-2.485683 39.82884,-19.259767 2.93235,-6.351652 2.93235,-6.351652 17.95978,-5.961033 17.9585,0.466809 20.58016,1.417112 23.76362,8.613855 1.94558,4.398291 2.02723,5.891361 1.45894,26.679001 C 225.36403,77.591013 224.59813,98.75 223.99311,112.5 c -1.90759,43.35339 -2.5226,87.00928 -1.64239,116.58448 0.85072,28.58448 0.85072,28.58448 -1.69616,33.61051 -3.73978,7.3801 -7.04315,8.69241 -22.65456,8.99982 -6.9642,0.13714 -13.71004,-0.21794 -15.23231,-0.80177 z m -33.24791,-96.25456 c 10.50714,0.41209 23.22793,-10.38934 23.63158,-20.89681 0.43159,-11.23483 -12.23571,-24.21416 -23.47883,-24.21598 -10.4923,-0.002 -21.90811,12.09943 -21.91823,22.59172 -0.0101,10.43995 11.33354,22.11193 21.76548,22.52107 z"/>
  </symbol>
  <symbol id="flaps" viewBox="0 0 300 300">
    <path d="m 136.47523,237.14822 c -0.94203,-0.3224 -5.37388,-1.07972 -9.84858,-1.68253 -6.08635,-0.81994 -8.13574,-1.82968 -8.13574,-4.00854 0,-3.48593 23.77276,-108.2021 25.02357,-110.22604 0.47904,-0.77464 2.05942,-1.40839 3.5126,-1.40839 2.34634,0 2.54086,6.41831 1.73763,57.3382 -0.49717,31.536 -1.39201,58.12701 -1.98789,59.09118 -1.03079,1.66784 -6.62617,2.15458 -10.30159,0.89612 z m 17.51621,-0.28161 c -0.46801,-0.78679 -0.96463,-27.44356 -1.10394,-59.23722 -0.24147,-55.13687 -0.10745,-57.80654 2.90681,-57.80654 2.74271,0 4.78594,7.09556 15.47129,53.72648 6.77118,29.5496 12.31131,55.00359 12.31131,56.56442 0,1.56083 -1.7342,3.49422 -3.85377,4.29635 -5.97487,2.26121 -24.78029,4.05652 -25.7317,2.45651 z m -60.335974,-10.7412 c -6.594188,-2.71085 -11.811088,-5.72856 -11.592995,-6.70605 0.455076,-2.03982 47.636719,-93.36567 51.204869,-99.11327 2.37267,-3.82184 7.48709,-3.73438 7.49272,0.12822 0.006,4.85075 -29.74154,108.28833 -31.46597,109.40896 -2.63439,1.71205 -2.14998,1.82722 -15.638624,-3.71782 z m 97.986294,3.7441 c -0.38581,-0.70653 -7.51953,-25.80966 -15.85297,-55.78464 -12.69078,-45.64811 -14.74924,-54.74878 -12.67395,-56.0319 1.5743,-0.97329 3.18737,-0.77378 4.42382,0.54702 1.07033,1.14348 13.33152,23.95905 27.24703,50.70127 19.03723,36.58477 24.89021,49.27335 23.64185,51.25244 -0.91251,1.44663 -6.23686,4.38368 -11.83192,6.5268 -11.04994,4.23259 -13.87777,4.75993 -14.95386,2.7888 z M 61.581968,208.42911 c -5.394009,-3.98685 -10.096575,-8.0196 -10.450229,-8.96162 -0.780636,-2.07963 73.658431,-85.40964 76.997751,-86.19417 1.29872,-0.30493 2.80102,0.59104 3.33846,1.99159 1.3375,3.48534 -54.15109,100.33869 -57.509492,100.38084 -1.413046,0.0194 -6.982482,-3.22978 -12.37649,-7.21664 z m 162.490622,3.4561 c -1.32156,-2.11957 -14.11346,-24.1534 -28.42631,-48.96411 -24.40521,-42.30531 -28.2402,-51.13028 -21.57492,-49.64778 3.64084,0.80978 76.30429,82.23056 76.30429,85.5004 0,2.72937 -18.52006,16.96524 -22.07079,16.96524 -1.00613,0 -2.91063,-1.73419 -4.23227,-3.85375 z m -6.929,-59.352 c -29.36459,-29.38374 -40.61644,-41.71193 -39.86271,-43.67607 0.57743,-1.50516 1.80695,-2.73661 2.73195,-2.73661 3.27231,0 96.05465,62.19995 96.05465,64.39363 0,1.79136 -16.2562,22.95857 -17.63189,22.95857 -0.20848,0 -18.78994,-18.42276 -41.292,-40.93952 z M 35.375365,184.48048 c -6.3137,-7.28719 -10.55209,-14.46167 -9.225041,-15.61571 0.38854,-0.33793 21.781295,-14.64856 47.539412,-31.80142 43.671874,-29.08195 53.016024,-33.97263 51.350784,-26.87654 -0.88643,3.77704 -77.922303,81.57303 -80.776026,81.57303 -1.420159,0 -5.420286,-3.27573 -8.889129,-7.27936 z M 14.046174,151.31723 C 11.103177,145.08834 8.9278304,138.8268 9.2120641,137.40269 9.7961696,134.47614 114.35472,97.114424 118.18931,98.462024 c 1.24719,0.43825 2.01793,2.017596 1.71283,3.509546 -0.57095,2.79152 -94.34732,60.67084 -98.299264,60.67084 -1.213185,0 -4.613705,-5.09635 -7.556702,-11.32518 z M 230.67858,133.54719 c -26.37693,-15.99538 -48.20775,-30.25385 -48.51284,-31.68541 -0.30493,-1.43163 0.46543,-2.973816 1.71276,-3.427086 1.2472,-0.45314 26.15468,7.471556 55.35011,17.610716 39.35875,13.66886 53.22798,19.1902 53.64507,21.35618 0.71759,3.72597 -9.79699,25.24289 -12.33117,25.23454 -1.0482,-0.003 -23.48695,-13.09348 -49.86393,-29.08894 z m -91.90104,-33.00187 c -4.97537,-4.205846 -8.29706,-9.818256 -8.29706,-14.018814 0,-2.61188 18.56188,-26.651395 20.57865,-26.651395 2.06505,0 20.52827,23.843126 20.52827,26.509948 0,4.300911 -4.708,12.388465 -8.93528,15.349381 -5.81259,4.07134 -18.39293,3.44471 -23.87458,-1.18912 z"/>
  </symbol>
  <symbol id="gift" viewBox="0 0 300 300">
    <path d="m 78.201273,228.05675 c -9.939455,-2.84162 -20.97757,-8.79893 -26.859803,-14.49632 -4.883891,-4.73042 -5.340633,-5.55427 -5.331701,-9.61703 0.01167,-5.30766 3.198393,-12.55491 9.327005,-21.21146 5.930688,-8.377 6.539352,-9.70677 13.145825,-28.72011 3.150984,-9.06849 7.01721,-19.03997 8.591614,-22.15885 4.826422,-9.56108 12.185448,-16.49386 25.846877,-24.34977 6.94285,-3.99244 15.47619,-9.939707 19.87317,-13.850502 11.59866,-10.316185 18.87782,-12.980624 23.32182,-8.536632 1.73811,1.738111 2.03327,2.977816 1.65249,6.940621 -0.39676,4.129244 -1.5596,6.272643 -8.06863,14.872573 -4.54701,6.00764 -7.86502,11.43375 -8.25156,13.4942 -2.11673,11.28313 9.07882,19.38262 29.13834,21.08032 21.40271,1.81138 49.70616,-12.00293 70.10253,-34.21555 15.24289,-16.600228 18.1913,-19.324044 23.68771,-21.883299 5.16213,-2.403605 11.01474,-3.077238 13.42948,-1.545729 1.03315,0.655255 0.5395,3.200979 -2.35983,12.169498 -12.17019,37.64615 -40.77022,72.57389 -73.032,89.19022 -11.91995,6.13933 -18.6328,8.20716 -38.31094,11.80134 -27.76511,5.07125 -32.42732,7.26416 -45.28968,21.30243 -4.22731,4.61378 -9.245317,9.12863 -11.151131,10.03299 -4.419458,2.09717 -11.458649,1.98905 -19.461586,-0.29894 z"/>
  </symbol>
  <symbol id="none" viewBox="0 0 300 300">
    <path transform="rotate(-45.051592)" d="M 108.18977 207.469 C 106.92064 206.19987 105.16472 205.41502 103.21978 205.41502 L 65.4075 205.41549 A 68.48774 68.48774 0 0 0 46.0332 166.28343 A 68.48774 68.48774 0 0 0 -50.823817 166.19621 A 68.48774 68.48774 0 0 0 -70.125037 205.41499 L -107.67491 205.4157 C -111.5648 205.4157 -114.69568 208.54775 -114.69568 212.43764 L -114.69485 216.11542 C -114.69485 220.00532 -111.56418 223.13757 -107.67429 223.13757 L -70.236289 223.13814 A 68.48774 68.48774 0 0 0 -50.911032 263.05323 A 68.48774 68.48774 0 0 0 45.945985 263.14044 A 68.48774 68.48774 0 0 0 65.502028 223.13745 L 103.22039 223.13689 C 107.11028 223.13689 110.24116 220.00484 110.24116 216.11495 L 110.24171 212.43855 C 110.24171 210.4936 109.4589 208.73813 108.18977 207.469 z M 33.34199 179.18913 A 50.374252 50.374252 0 0 1 47.16911 205.41564 L -51.615957 205.41508 A 50.374252 50.374252 0 0 1 -37.89899 179.12498 A 50.374252 50.374252 0 0 1 33.34199 179.18913 z M 47.345122 223.13629 A 50.374252 50.374252 0 0 1 33.276461 250.42873 A 50.374252 50.374252 0 0 1 -37.961756 250.36458 A 50.374252 50.374252 0 0 1 -51.792118 223.13679 L 47.345122 223.13629 z "/>
  </symbol>
  <!-- Item categories -->
  <symbol id="outfit" viewBox="0 0 300 300">
    <path d="M 204.11087,268.31144 C 200.47358,256.46683 197.38,245.07794 188.00004,209 184.06767,193.875 177.50896,169.67 173.42514,155.2111 169.34131,140.75221 166,128.28054 166,127.49629 c 0,-0.78426 0.8868,-1.90052 1.97066,-2.48059 3.22605,-1.72653 32.95233,-6.49848 33.94831,-5.44972 1.14739,1.20821 7.53037,43.72396 10.04895,66.93402 4.76715,43.93191 5.30279,76.09735 1.43212,86 -1.40121,3.58483 -2.56598,5.08815 -4.1153,5.31144 -1.92645,0.27764 -2.48788,-0.75323 -5.17387,-9.5 z M 81.912638,267.29024 C 81.130134,265.24676 81.405282,253.92847 82.940715,225 c 4.398451,-82.86943 5.904923,-101.27421 8.5021,-103.87139 1.366524,-1.36652 6.758715,-0.77297 32.432895,3.5701 l 3.37571,0.57104 -0.68986,7.61291 c -0.86634,9.56033 -9.06898,41.915 -19.04395,75.11734 -14.623418,48.675 -18.351012,58.7701 -22.525712,61.00434 -1.730588,0.92618 -2.159693,0.68731 -3.07926,-1.7141 z M 128,118.99407 c -19.38263,-1.52834 -40.994385,-5.98845 -44.108879,-9.10295 -2.698782,-2.69878 -2.426868,-5.4142 2.551736,-25.48243 8.05264,-32.459347 11.508626,-42.292995 15.465253,-44.004761 4.52824,-1.959064 15.45547,-2.182622 56.22921,-1.150378 l 44.63732,1.130056 4.62118,14.558196 c 7.82663,24.656365 10.89401,42.663261 8.16607,47.938517 -2.08067,4.02358 -9.49834,7.47419 -24.10633,11.21398 -13.71053,3.51004 -35.19517,5.19662 -37.87422,2.9732 -0.8093,-0.67165 -1.99656,-3.77411 -2.63836,-6.89434 -1.37083,-6.66452 -2.60863,-9.24027 -3.40801,-9.2416 -0.66059,-0.001 -2.45859,5.39344 -3.74936,10.06844 -2.68443,9.72262 -1.49606,9.12081 -15.78561,7.99407 z"/>
  </symbol>
  <symbol id="mask" viewBox="0 0 300 300">
    <path d="m 146.83417,46.097332 c -2.8356,0.05019 -5.50942,0.28327 -7.82549,0.741676 -43.527902,8.615252 -72.758565,33.389947 -80.719166,69.697692 -5.101135,23.26589 -4.633736,59.36436 6.393972,82.46968 13.390429,28.05568 44.480204,49.28155 72.718224,53.93905 8.02735,1.32401 19.69901,1.7567 29.51954,-1.38566 18.74974,-5.99956 34.23807,-17.22184 48.00364,-30.1715 9.99122,-9.39902 16.04755,-17.3856 21.67012,-28.57848 12.93754,-25.75473 14.7893,-57.88908 1.50927,-88.38316 C 226.5852,77.976024 200.65816,58.582112 171.46701,49.377059 165.3076,47.434763 155.34094,45.946755 146.83417,46.097332 Z m 6.94823,18.902791 c 1.20153,0 10.93232,10.908818 14.41862,15.829364 1.71461,2.42002 4.79919,6.334026 4.79919,7.389907 0,2.427941 -5.07112,9.157901 -11.63807,16.508876 -9.43919,10.56612 -8.65262,9.39166 -16.24992,0.81387 -5.74732,-6.489037 -12.11272,-15.941621 -12.11272,-17.400503 0,-2.697775 18.36022,-23.141514 20.7829,-23.141514 z M 93.897978,121.06651 c 4.512929,0.019 8.764212,2.35054 13.932362,7.29315 5.10774,4.8849 6.68525,7.645 7.63608,13.36813 1.10577,6.65572 -0.10704,10.22431 -4.03337,11.86484 -4.33048,1.80941 -20.809933,1.8187 -24.951841,0.0139 -4.257949,-1.85528 -9.259509,-7.91224 -10.060487,-12.18184 -1.378417,-7.34758 2.920329,-15.31223 10.000675,-18.52797 2.676175,-1.21544 5.112668,-1.8402 7.476581,-1.83026 z m 98.635052,0.0259 c 2.46173,0.0301 4.96574,0.63216 7.36891,1.85818 6.12087,3.12262 12.75557,11.22413 14.02009,17.12037 0.5931,2.76552 0.52467,5.6789 0.52467,6.45095 0,3.03748 -2.55596,6.12314 -5.42116,7.12195 -1.65626,0.57738 -6.64442,1.35435 -11.92482,1.35235 -7.62118,-0.003 -10.21912,-0.38712 -12.60053,-1.86615 -8.76395,-5.44309 -11.69866,-13.90081 -7.60618,-21.91935 3.33547,-6.53526 9.34789,-10.19517 15.63902,-10.1183 z"/>
  </symbol>
  <symbol id="necklace" viewBox="0 0 300 300">
    <path d="m 98.439805,273.20023 c -10.503842,-5.95636 -13.523576,-11.03018 -13.594504,-22.84181 -0.08292,-13.80825 6.792397,-19.311 24.127779,-19.311 11.90154,0 14.82461,1.44427 14.82461,7.32474 0,4.02861 -2.63332,9.5102 -5.85182,12.18132 -3.2185,2.67111 -5.85182,6.61212 -5.85182,8.75779 0,2.2856 2.27958,2.00933 5.5045,-0.66712 4.21705,-3.49984 6.18715,-3.4638 8.42314,0.15413 1.73458,2.80661 -0.67388,7.63151 -5.93669,11.89308 -10.25633,8.30507 -11.22566,8.41742 -21.645195,2.50888 z m 68.271215,1.87931 c -3.2185,-1.19154 -8.0679,-3.91919 -10.77644,-6.06143 -7.19814,-5.69318 1.19838,-14.17428 11.89519,-12.01501 8.63428,1.74293 8.63428,1.74293 -0.14344,-4.77979 -11.70236,-8.69601 -11.35602,-20.38013 0.69374,-23.40443 30.32767,-7.61176 43.26523,24.55144 17.21521,42.79758 -9.54586,6.68618 -9.96879,6.76374 -18.88426,3.46308 z m -34.9327,-18.45951 c -8.16904,-9.84309 -3.4425,-23.4709 8.6217,-24.85858 12.3212,-1.41724 16.78087,5.6998 13.00317,20.75136 -2.74592,10.9406 -14.15523,13.10758 -21.62487,4.10722 z m -11.88185,-52.8811 c 0,-2.14567 3.40749,-3.90121 7.57219,-3.90121 4.1647,0 8.65717,1.75554 9.98327,3.90121 1.36746,2.2126 -1.9101,3.90121 -7.57219,3.90121 -5.49079,0 -9.98327,-1.75554 -9.98327,-3.90121 z m 39.01213,0.455 c 0,-1.89541 3.51109,-4.36438 7.80242,-5.48659 9.21298,-2.40924 10.58902,3.1275 1.63154,6.56481 -8.18949,3.1426 -9.43396,3.00037 -9.43396,-1.07822 z M 88.686774,190.08469 c -3.949856,-4.75929 -3.764045,-5.85182 0.995243,-5.85182 3.2185,0 8.037277,2.63332 10.708393,5.85182 3.94986,4.75928 3.76405,5.85181 -0.995241,5.85181 -3.2185,0 -8.037277,-2.63331 -10.708395,-5.85181 z m 103.170416,-6.48695 c 3.88361,-4.29134 9.02836,-7.1673 11.17402,-7.1673 2.14567,0 1.14714,4.19914 -2.73646,8.49048 -3.8836,4.29133 -9.24006,7.11437 -11.38573,7.11437 -2.14567,0 -0.93543,-4.14622 2.94817,-8.43755 z M 69.001893,164.39268 c -5.018945,-9.37799 -1.220955,-15.97834 4.232413,-7.35532 3.8273,6.05184 5.006695,15.49187 1.935485,15.49187 -0.997341,0 -3.772893,-3.66145 -6.167898,-8.13655 z M 212.3952,153.02317 c 1.12221,-4.29134 3.59117,-7.80243 5.48659,-7.80243 4.07858,0 4.22081,1.24448 1.07821,9.43397 -3.4373,8.95748 -8.97405,7.58144 -6.5648,-1.63154 z M 60.077885,138.71872 c -4.047001,-4.047 -3.057907,-16.90525 1.300403,-16.90525 2.145667,0 3.901212,4.38886 3.901212,9.75303 0,10.21361 -0.901149,11.45269 -5.201615,7.15222 z M 217.42678,127.66529 c 0,-3.2185 1.75555,-5.85182 3.90122,-5.85182 2.14566,0 3.90121,2.63332 3.90121,5.85182 0,3.2185 -1.75555,5.85182 -3.90121,5.85182 -2.14567,0 -3.90122,-2.63332 -3.90122,-5.85182 z M 57.643955,105.68467 c 0.598802,-5.47645 3.783003,-7.218221 4.961729,-4.57712 0.595716,1.33479 1.923961,9.07926 -0.785928,10.08986 -0.969971,0.36173 -4.758852,-0.18035 -4.175801,-5.51274 z m 159.782825,-1.42666 c 0,-5.364164 1.75555,-9.753028 3.90122,-9.753028 2.14566,0 3.90121,4.388864 3.90121,9.753028 0,5.36417 -1.75555,9.75303 -3.90121,9.75303 -2.14567,0 -3.90122,-4.38886 -3.90122,-9.75303 z M 62.613318,81.590398 c 0,-2.955777 0.15582,-5.441762 3.663084,-8.52025 0.184002,-0.161507 6.647613,-4.352004 5.557779,2.044563 -0.705071,4.138278 -2.653468,6.035527 -2.653468,8.005702 0,1.970179 -1.755546,3.582144 -3.901213,3.582144 -2.145667,0 -2.666182,-2.156386 -2.666182,-5.112159 z M 211.90052,76.391153 c -3.26602,-8.511103 1.07043,-12.467116 5.67864,-5.180467 4.61334,7.294733 4.71156,11.590658 0.26501,11.590658 -1.9161,0 -4.59075,-2.884587 -5.94365,-6.410191 z M 85.759043,50.616342 c 0.893027,-2.682083 4.933415,-5.517886 8.978645,-6.30178 6.363262,-1.233096 6.649782,-0.575573 2.124947,4.876515 -6.188103,7.456208 -13.420771,8.384599 -11.103592,1.425265 z M 189.69565,47.917768 c -5.13171,-4.273598 -7.0411,-7.023945 -5.19951,-7.89997 5.46457,-2.599438 19.66762,10.532426 16.89701,13.303032 -1.30191,1.301917 -6.56579,-1.129463 -11.6975,-5.403062 z m -77.6016,-11.213075 c 0,-3.98567 16.03053,-9.395048 19.01059,-6.414982 2.48235,2.482345 0.008,4.278128 -10.23286,7.425946 -4.83985,1.487692 -8.77773,1.034153 -8.77773,-1.010964 z m 39.01212,-4.61911 c 0,-2.145666 3.40749,-3.901212 7.57219,-3.901212 4.1647,0 8.65717,1.755546 9.98327,3.901212 1.36746,2.212604 -1.9101,3.901213 -7.57219,3.901213 -5.4908,0 -9.98327,-1.755546 -9.98327,-3.901213 z"/>
  </symbol>
  <symbol id="hair" viewBox="0 0 300 300">
    <path d="m 77.850799,269.17386 c -5.674389,-4.98218 -8.858896,-12.70632 -8.806666,-21.36091 0.05721,-9.47984 1.676492,-15.37938 5.975609,-21.77098 3.368498,-5.00802 3.592652,-5.14958 6.980258,-4.40819 1.925,0.42129 7.039604,0.80314 11.365788,0.84856 7.333742,0.077 8.067062,0.28329 10.841422,3.05011 1.6366,1.63215 4.9595,5.80161 7.38421,9.26546 C 116,241.09582 116,241.09582 116,252.9329 c 0,11.63734 -0.0438,11.86576 -2.59419,13.53686 -4.47921,2.93489 -6.48179,1.43568 -11.29656,-8.45704 -4.968336,-10.20823 -8.638763,-14.64808 -10.697256,-12.93968 -1.06548,0.88427 -0.999639,1.75744 0.358552,4.75507 0.915032,2.01954 2.465991,4.86636 3.446575,6.32626 C 98.396987,260.88859 97.103692,267 92.921972,267 c -0.922915,0 -2.295415,0.91477 -3.05,2.03282 -0.767285,1.13686 -2.956379,2.28529 -4.966829,2.60566 -3.024844,0.48202 -4.143404,0.0912 -7.054344,-2.46462 z M 201.37715,218.25 c 0.33964,-3.1625 0.88822,-7.63343 1.21907,-9.93539 0.33084,-2.30197 0.11906,-5.67697 -0.47061,-7.5 -0.58968,-1.82304 -1.17616,-7.96065 -1.30329,-13.63915 -0.25655,-11.45897 -0.20153,-11.34719 -8.908,-18.09846 -5.94475,-4.60974 -18.79321,-20.04037 -29.96311,-35.98482 C 156.90675,125.89148 152.43483,120 152.0136,120 c -0.42123,0 -2.47931,3.2625 -4.57352,7.25 -2.0942,3.9875 -5.29994,9.32874 -7.12386,11.86943 -1.82392,2.54069 -3.31622,5.1426 -3.31622,5.78203 0,1.97741 -15.28448,16.63178 -19.26116,18.4671 -5.25601,2.42577 -7.09652,5.57556 -6.35057,10.86815 1.84663,13.10193 1.86653,14.72547 0.21152,17.25134 C 110.10425,193.77053 109.32105,194 103.02617,194 88.859048,194 82.172831,191.09867 78.499218,183.35711 77.623039,181.5107 76.554475,180 76.124632,180 c -0.429843,0 -0.746231,4.1625 -0.703083,9.25 0.07513,8.85867 -0.01674,9.26352 -2.171549,9.56955 -2.085822,0.29623 -2.25,-0.0598 -2.25,-4.88008 0,-5.19963 0,-5.19963 -14,-19.04415 -7.7,-7.61448 -14,-14.25085 -14,-14.74747 0,-0.49663 0.708686,-1.49112 1.574859,-2.20998 2.857283,-2.37133 14.151418,-20.34825 15.752949,-25.07402 1.556504,-4.59292 7.18983,-12.61918 17.524309,-24.96835 2.943665,-3.51752 6.101207,-7.2955 7.016761,-8.3955 0.915553,-1.1 2.988898,-3.8 4.607433,-6 C 97.050175,83.205191 108.64209,73.537307 119.33506,68.597216 123.52979,66.659274 136.06276,63 138.50546,63 c 0.84193,0 5.01013,-3.522335 9.26266,-7.82741 4.25254,-4.305076 9.30688,-8.938416 11.23188,-10.296311 5.44317,-3.83961 17.17529,-9.352327 19.27584,-10.213105 0.97826,-0.500092 4.54237,-1.64006 6.74616,-1.663174 1.59718,0 5.18728,-0.9 7.978,-2 4.77518,-1.882201 9,-2.595452 9,-1.519417 0,0.26432 -1.575,2.942704 -3.5,5.951963 -1.925,3.009259 -3.5,6.08197 -3.5,6.828246 0,1.702522 -6.57532,12.703742 -8.82478,14.764809 -3.98196,3.648469 -8.97355,6.723383 -12.92522,7.96219 -4.42217,1.3863 -4.96679,3.133841 -2.33709,3.601655 4.01359,1.116845 7.09747,1.522735 11.1153,2.809314 1.14028,0.363101 4.39679,1.730985 7.97179,3.236748 9.34996,3.93813 18.64762,10.203415 25.19087,16.975017 6.19623,6.412462 16.27341,19.988555 16.96351,21.260425 0.23858,0.43973 0.56058,0.78491 0.8715,1.1928 0.65712,0.86208 17.97412,24.4513 17.97412,25.4814 0,0.37995 1.35979,2.23953 3.02175,4.1324 2.90332,3.30671 2.99685,3.70378 2.38649,10.13201 -0.3494,3.67974 -1.25918,7.99708 -2.02175,9.59408 -0.76257,1.597 -1.38649,3.45282 -1.38649,4.12405 0,4.62939 -8.8299,14.86196 -20,23.17709 -8.55401,6.36768 -25.52526,24.96441 -28.26017,30.96688 -0.58347,1.28059 -1.71771,2.32834 -2.52054,2.32834 -1.18192,0 -1.34217,-1.09411 -0.84214,-5.75 z M 96.779627,214.44629 c -0.304539,-0.30453 -3.642039,-0.77821 -7.416667,-1.05261 -7.560871,-0.54963 -10.159059,-1.77565 -12.32006,-5.81352 -2.250027,-4.20421 0.297844,-7.59421 7.51418,-9.99777 5.129359,-1.70844 6.417411,-1.78126 11.809041,-0.66764 8.265429,1.70719 11.534259,3.60259 13.235619,7.6745 1.82028,4.35655 0.59476,7.01287 -4.15011,8.99541 -3.45053,1.44172 -7.672435,1.8612 -8.672003,0.86163 z"/>
  </symbol>
  <symbol id="hat" viewBox="0 0 300 300">
    <path  d="m 110.7755,270.84334 c -8.5549,-1.69156 -14.28898,-6.05409 -14.28898,-11.66107 0,-3.88658 2.31163,-8.7718 5.89328,-10.62394 2.5164,-1.30128 4.04172,-2.18938 7.90197,-0.65164 3.149,1.25441 13.63326,3.29049 25.35662,3.38657 11.72336,0.0961 24.68582,-1.74783 29.79724,-3.01387 17.3457,-4.29635 36.72009,-13.87823 45.90017,-22.4214 8.2605,-7.68739 9.77468,-9.25653 13.97346,-7.50217 4.18876,1.75017 7.69191,6.09277 7.687,9.529 -0.007,5.24356 -7.90649,12.86044 -16.79267,18.93559 -16.908,11.55938 -38.64446,20.65231 -64.24686,23.24818 -13.17513,1.33585 -27.91386,3.08784 -41.18123,0.77475 z M 117,243.61936 c -7.28458,-1.60661 -9.8196,-3.11707 -10.73819,-6.39822 -0.419,-1.49663 -0.67094,-13.29614 -0.55987,-26.22114 0.29507,-34.33738 2.60999,-68.80431 5.80963,-86.5 1.94649,-10.76509 5.62053,-39.701232 5.1062,-40.215567 -0.22631,-0.226302 -2.78161,2.063414 -4.90085,5.454194 -6.37434,10.198972 -6.94643,11.671573 -10.22805,10.847933 -1.56963,-0.39395 -4.63026,-2.492653 -6.80139,-4.663782 -3.566177,-3.566181 -3.304799,-4.295192 -3.423615,-7.853369 -0.131368,-3.934084 5.337575,-8.050833 7.087275,-9.368783 4.48878,-3.381163 10.52349,-6.108661 6.95233,-8.181017 -5.20011,-1.482434 -10.2974,-1.865421 -15.551695,-1.65034 -6.432993,0.03367 -7.522727,-6.114526 -4.488467,-13.376534 1.973129,-4.722361 3.722185,-5.969417 8.394587,-5.237585 1.393315,0.218233 9.259285,2.836444 8.678285,1.79591 -0.4866,-0.871472 -3.85307,-3.100413 -5.661,-3.593228 -4.254043,-1.159587 -1.79901,-5.899305 3.5627,-10.914553 2.72641,-2.550263 5.93273,-4.793391 6.94146,-4.76783 2.33722,0.05922 10.91724,10.774066 14.56924,17.490026 1.2567,2.311039 3.61824,-1.756253 6.62026,-5.207386 9.7622,-11.222667 16.69137,-9.115659 17.23293,-9.003006 0.7151,0.148755 2.25182,0.654337 4.13974,4.35496 3.17261,6.218831 3.67117,9.167144 -0.65908,12.608167 -0.62103,0.493503 -2.1497,1.510308 -3.54436,2.639169 -2.35177,1.903559 -1.02717,1.688841 0.10875,1.633744 3.68417,-0.178699 13.11337,2.08845 14.50753,5.148291 0.89127,1.956133 0.87972,3.830469 -0.0492,7.981269 -1.33656,5.972375 -1.88191,7.070314 -4.84248,6.296107 -0.83671,-0.218806 -6.7048,-3.090602 -11.24835,-4.255154 -8.22052,-2.106992 -12.49665,-2.29581 -12.0019,-1.5036 3.87665,5.578453 17.84152,25.748366 27.83021,40.701224 7.628,11.46241 18.06971,27.81574 23.20379,36.34074 11.74086,19.49536 31.42963,59.39341 31.42963,62.98645 0,10.85204 -32.88861,29.32184 -58.83965,32.9313 -10.13754,1.41 -31.64341,1.24391 -38.6364,-0.29839 z m 40.27818,-35.12618 c 19.56112,-5.04581 18.82288,-6.14987 17.17321,-14.75426 -0.91857,-4.79113 -2.85357,-5.79361 -7.02624,-5.3003 -4.74836,0.56138 -4.31311,0.41666 -5.82709,-3.68862 -2.3444,-6.35699 -6.04465,-19.7656 -9.60986,-34.82334 -4.81804,-20.34906 -5.36402,-22.13036 -7.12322,-23.24003 -3.3316,-2.10152 -7.68865,1.17733 -15.56961,11.71674 -4.15242,5.55315 -8.43351,10.05768 -8.47249,10.70091 -0.11182,1.84541 0.54685,3.80505 2.57959,5.15455 3.13609,2.08199 3.75896,3.02504 7.73696,2.02892 5.58528,-1.3986 5.14804,-0.60341 9.52869,17.39938 4.82612,19.83356 5.10953,17.84026 -0.98143,21.73659 -7.22786,4.62361 -9.21711,4.92065 -6.63858,9.20281 0.87108,1.44661 1.96811,4.14342 2.74422,5.21651 1.99342,2.75621 8.46681,2.00842 21.48585,-1.34986 z"/>
    <path style="fill:#9a5f5f;" d="m 120.09375,51.625 c 0,0 -0.46363,-10.634516 2.375,-18.53125 2.22729,-6.196051 6.46875,-9.90625 11.625,-9.09375 5.43551,0.856504 6.33777,2.427229 5.25,8.34375 -1.20273,6.541767 -6.32241,19.312677 -6.32241,19.312677 l -12.92759,-0.03143 z m 23.02851,35.651878 c 2.33864,3.195487 4.69814,1.251168 6.34465,0.24549 2.41181,-1.473114 6.42555,-4.702689 3.54102,-8.619299 -2.88453,-3.916609 -12.14529,-7.840493 -12.14529,-7.840493 L 128.64668,69.308109 Z M 105.49105,69.757989 c -21.75306,1.746596 -21.028316,5.576756 -21.197324,6.880531 -0.185246,1.429033 2.997592,5.384484 4.115085,6.033695 1.389339,0.80714 4.022465,0.912994 5.186862,0.0397 C 94.76007,81.838613 108.24326,72.8013 108.24326,72.8013 Z"/>
  </symbol>
  <symbol id="cape" viewBox="0 0 300 300">
    <path d="m 128.53743,223.6675 c -11.97709,-2.48338 -23.8976,-8.02767 -27.57892,-11.70899 -2.96054,-2.96054 -2.458165,-8.01626 1.59664,-16.06802 1.95533,-3.88278 3.6434,-7.67162 3.21527,-8.07923 -1.03376,-0.98422 -4.95183,2.85225 -10.588658,7.58455 -5.636829,4.73231 -10.071025,9.22383 -12.152397,8.67794 -6.207824,-1.62814 -27.552543,-19.76015 -28.550232,-22.718 -0.800776,-2.37406 0.236461,-3.54317 11.134069,-14.46925 6.520544,-6.53757 10.499516,-10.6124 9.841894,-11.18989 -1.663236,-1.63574 -7.116805,3.07955 -14.000895,6.83299 -6.884089,3.75344 -13.647522,7.01573 -15.094539,7.37891 -2.336572,0.58644 -3.070517,0.16906 -10.340718,-7.51141 C 27.735,153.64569 25.489392,148.58322 26.515795,145.90845 27.441734,143.49549 115.81703,89 118.75447,89 c 0.61814,0 3.22116,1.81517 5.78448,4.033711 10.96918,9.493759 22.95527,12.211049 35.35099,8.014209 6.45708,-2.18619 15.55002,-8.498061 19.51505,-11.926331 5.22874,-4.52091 9.04433,-2.590283 57.09501,28.668271 16.63137,10.81925 31.88224,19.28968 32.96053,20.31768 1.79689,1.71307 1.8545,2.26654 0.69023,6.63077 -2.44389,9.16086 -6.25673,16.0718 -11.71506,21.23406 -2.92379,2.7652 -6.22072,5.02763 -7.32651,5.02763 -1.10579,0 -7.99523,-2.74625 -15.30986,-6.10277 -14.62107,-6.70929 -22.3426,-10.41538 -22.79933,-9.44404 -0.23425,0.49817 5.85,5.65427 13,12.04681 16.29856,14.5719 16.23408,14.23704 4.75,24.6715 C 218.47464,203.32492 212.96848,207 208.53334,207 c -3.20284,0 -4.66466,-0.88523 -10.38057,-6.28615 -11.20546,-10.58795 -15.52252,-14.21259 -16.19522,-12.82749 -0.43132,0.8881 1.72551,5.61086 3.92568,11.28927 5.85618,15.11418 7.69728,15.54947 -10.88323,21.66576 -15.41887,5.07555 -29.65137,6.31181 -46.46257,2.82611 z"/>
  </symbol>
  <symbol id="held" viewbox="0 0 300 300">
    <path d="M 130.63306,269.90395 C 120.62804,268.84834 113.61828,266.81689 103.1892,261.95062 75.843968,249.19118 58.114741,229.55436 52.522356,205.83223 50.557238,197.49647 50.58851,179.91585 52.585722,170.20784 54.886315,159.02518 63.860239,128.62751 71.836224,105 75.642347,93.725 79.545789,81.242852 80.510539,77.261893 82.848985,67.612494 82.355613,67.042794 72.2084,67.67535 65.513049,68.092724 63.916221,67.849934 60.057966,65.827937 48.565326,59.804988 45.721741,47.801881 53.135805,36.608687 c 4.371198,-6.599304 7.53399,-7.992819 18.068679,-7.960996 7.672892,0.02318 9.169604,0.334096 12.629136,2.623506 4.227302,2.797496 9.980761,9.381607 12.444858,14.241577 0.840144,1.657026 2.07813,5.8114 2.75108,9.231941 2.091052,10.628598 -1.923917,9.716258 44.138972,10.029915 22.18231,0.151046 43.66573,-0.07395 47.74094,-0.5 L 198.31893,63.5 200.51045,57 c 3.19513,-9.476699 6.08972,-14.658229 11.30086,-20.229357 6.29468,-6.729528 9.09365,-7.992865 17.7085,-7.992865 11.78638,0 18.21905,3.957658 21.32724,13.121445 2.01742,5.947916 1.43426,11.265636 -1.79359,16.355432 -5.4354,8.570726 -14.09809,11.987464 -22.36856,8.8226 -10.36425,-3.96609 -9.97938,-0.03047 4.29517,43.922745 17.40769,53.60051 19.51043,62.67817 18.74578,80.92659 -0.57218,13.65503 -1.92082,19.32179 -7.27618,30.57341 -11.18554,23.50082 -41.84147,44.23176 -70.21534,47.48282 -10.11128,1.15854 -30.23467,1.12039 -41.60127,-0.0789 z m 15.07163,-30.57456 C 146.32684,235.59415 146.5,199.05 146.5,154.5 v -81 h -6 -6 l 0.19102,80 c 0.10506,44 1.94408,87.88801 1.94408,87.88801 0,0 2.70863,0.0445 4.39207,0.43692 1.64355,0.38307 3.73047,1.09852 3.73047,1.09852 0,0 0.52713,-1.07297 0.94705,-3.59406 z m 20.85379,-81.07871 C 166.1604,112.18856 165.75939,74.434157 165.66735,74.352015 165.57531,74.269874 163.025,74.044567 160,73.851334 L 154.5,73.5 l -0.25826,83 c -0.14205,45.65 -0.0437,83.5625 0.21861,84.25 0.31035,0.81349 2.63239,1.25 6.6494,1.25 h 6.17251 z M 180.89216,238.25 c 1.21445,-1.00547 2.56381,-3.87722 3.17166,-6.75 0.65827,-3.1111 1.27149,-33.34214 1.62323,-80.02284 0.52844,-70.131629 0.1224,-75.658391 -1.07493,-76.661709 -1.05634,-0.885179 -0.51792,-0.659006 -5.16158,-0.79433 -3.98028,-0.115992 -3.96715,0.207741 -4.81282,1.053369 -1.85483,1.854735 -1.70847,159.42628 0.14748,162.67551 1.54452,2.70401 3.27386,2.8456 6.10698,0.5 z M 127.30412,227.5 C 128.23535,216.40332 127.7917,75.41395 126.95258,74.671252 126.70366,74.450938 123.6875,74.02745 120.25,73.730168 l -6.64695,0.04169 L 114,155.52528 v 82.33562 l 2.25,0.45601 c 1.2375,0.25081 3.97018,0.51319 6.17061,0.45187 l 3.94707,-0.11 z m -19.7895,-20.17034 C 108.28134,180.74793 106.7145,80.216966 105.47166,76.25 104.50506,73.164768 100.52582,73.26787 98.452689,76.431861 96.419933,79.53424 90.539075,103.56306 83.996245,135.5 76.3824,172.66479 75.962385,194.36315 82.575286,208.90807 85.229598,214.74616 102.40667,233 105.24607,233 c 1.31191,0 1.63288,-3.63201 2.26855,-25.67034 z m 93.33045,21.61496 c 10.79435,-7.20819 17.7759,-17.98955 20.79718,-32.11637 2.07667,-9.71006 1.25847,-27.50775 -2.15282,-46.82825 -3.06149,-17.33939 -13.94351,-68.433915 -15.37912,-72.209858 -0.61675,-1.622188 -1.48024,-3.565929 -2.38356,-4.150721 C 198.68589,72.965912 196.29118,73.367374 193.5,73.5 l -0.25599,79.75 c -0.14847,46.25627 0.11866,79.75 0.63605,79.75 0.49062,0 3.62488,-1.82492 6.96501,-4.05538 z"/>
  </symbol>
  <symbol id="prop" viewbox="0 0 300 300">
    <path d="m 88.571429,269.42857 c -0.864286,-0.86428 -1.603084,-3.00178 -1.641775,-4.75 C 86.890964,262.93036 86.471253,232.025 85.996962,196 L 85.134615,130.5 81.437287,96 C 79.403757,77.025 77.032823,54.600906 76.951587,45.385126 L 76.79834,28 h 7.500449 7.500449 l 1.569203,7.25 c 0.863061,3.9875 2.279208,11.453606 3.146993,16.591348 0.867784,5.137741 2.711354,14.812741 4.096826,21.5 1.38546,6.687258 3.55159,18.008652 4.81361,25.158652 6.78691,38.45143 7.94585,43.62615 10.04032,44.83052 1.45763,0.83816 15.77389,1.24419 50.53381,1.4332 26.675,0.14505 50.65742,0.45745 51.89147,0.75034 1.07592,10.77132 1.57958,16.32538 0.44866,27.42365 -0.0732,0.4947 -0.75715,1.50391 -1.86558,1.63089 -0.55422,0.0635 -1.85141,0.17932 -2.80311,0.29718 -0.9517,0.11786 -1.13516,0.61506 -1.1754,0.90286 -0.0391,0.27955 -0.0526,2.28842 -0.0526,2.28842 l 0.0481,44.78905 c 0.0402,37.40865 -0.99668,45.51623 -2.19009,46.70964 -1.08999,1.08998 -4.23898,1.44425 -12.83764,1.44425 -9.82994,0 -11.521,-0.24014 -12.32328,-1.75 -0.51144,-0.9625 -1.26205,-14.27137 -1.66803,-29.57526 l -0.73813,-27.82525 -2.61716,-0.99565 c -3.52217,-1.33994 -60.76806,-1.31866 -64.29717,0.0239 l -2.68001,1.01954 -0.31999,28.58889 c -0.26956,24.08331 -0.55639,28.73816 -1.81999,29.53605 -0.825,0.52093 -5.85536,0.95405 -11.178571,0.96247 -7.480447,0.0118 -10.035463,-0.34158 -11.25,-1.55612 z M 183.7791,184.13273 c 0.53395,-7.67344 0.17259,-7.82157 -12.43708,-7.37198 0,0 -53.68036,-1.45301 -56.41986,-0.74728 -3.55074,0.91471 -2.31929,11.8473 -0.37426,11.89821 9.48931,0.24838 39.62558,0.8991 54.65369,1.19829 15.02811,0.29919 14.25744,-0.37754 14.57751,-4.97724 z"/>
  </symbol>
  <!-- Items -->
  <symbol id="double-deck-chairs" viewBox="0 0 300 300">
    <path style="fill:#888" d="m 131.12323,259.53545 c -2.21446,-2.18362 -2.32674,-2.81075 -1.64427,-9.18355 0.40287,-3.76194 1.33604,-8.41759 2.07371,-10.34589 1.39558,-3.64811 6.78457,-25.54021 8.00172,-32.50601 0.80832,-4.62605 2.95861,-7.5 5.6115,-7.5 1.63329,0 6.33612,1.82401 13.58411,5.26864 2.59213,1.23192 2.82552,3.22268 0.85906,7.32772 -0.76502,1.597 -2.11502,4.59114 -3,6.65364 -6.43101,14.98781 -7.74088,18.06886 -8.60906,20.25 -0.43784,1.1 -1.4879,3.58176 -2.33345,5.51502 -0.84555,1.93325 -2.01711,4.77682 -2.60346,6.31904 -1.28439,3.37821 -7.16323,10.64685 -8.56309,10.58747 -0.55,-0.0233 -2.06954,-1.09706 -3.37677,-2.38608 z M 216,223.28819 C 198.675,216.40571 183.08199,210.15031 181.34887,209.3873 179.61575,208.62428 177.88376,208 177.5,208 c -0.38376,0 -2.11575,-0.62377 -3.84887,-1.38616 -1.73312,-0.76238 -5.85113,-2.40755 -9.15113,-3.65592 -3.3,-1.24837 -6.4275,-2.6496 -6.95,-3.11384 -0.5225,-0.46425 -1.6475,-0.85547 -2.5,-0.86939 -0.8525,-0.0139 -5.15,-1.86325 -9.55,-4.10963 -4.4,-2.24638 -9.00899,-4.59749 -10.2422,-5.22469 -1.96441,-0.99909 -2.24316,-1.92283 -2.25,-7.45611 -0.0121,-9.80349 0.35125,-10.12541 10.73588,-9.51162 9.43521,0.55767 9.33256,0.51918 28.75632,10.78464 24.34027,12.86384 27.92105,14.59513 29.18421,14.1104 0.72369,-0.2777 1.31282,-1.75653 1.30918,-3.2863 -0.004,-1.52976 0.43271,-6.15638 0.96964,-10.28138 2.05893,-15.81762 4.91753,-42.7542 7.05722,-66.5 0.44603,-4.95 1.08687,-11.025 1.42408,-13.5 0.33721,-2.475 1.08408,-8.55 1.6597,-13.5 1.05055,-9.034047 2.71705,-14.865906 7.80164,-27.301638 3.35312,-8.200963 5.00376,-8.670549 13.59433,-3.867413 l 6,3.354705 1.16402,9.907173 c 2.19965,18.721513 1.86733,20.633826 -7.63,43.907173 -1.68196,4.12168 -4.32423,13.15447 -5.11908,17.5 -0.45271,2.475 -1.2938,6.75 -1.86909,9.5 -3.18502,15.22507 -3.18068,15.28092 2.95727,38 1.18873,4.4 2.38323,9.125 2.65443,10.5 0.27121,1.375 0.86107,3.4 1.31082,4.5 1.27139,3.10961 5.03163,17.15548 5.03163,18.795 0,1.33116 6.00035,6.705 7.48671,6.705 1.17845,0 7.51323,5.50334 7.51326,6.52714 4e-5,1.31093 -5.623,7.50534 -6.6936,7.37375 -0.4435,-0.0545 -14.98137,-5.73023 -32.30637,-12.6127 z m 8.19204,-15.94081 c -1.28082,-2.49982 -2.92688,-8.0417 -3.74499,-12.60843 C 219.43882,189.11099 218,189.19508 218,194.88197 c 0,2.75 -0.45,5.27811 -1,5.61803 -2.02568,1.25194 -0.89209,3.46547 3.25,6.34622 4.63297,3.22215 5.38518,3.31778 3.94204,0.50116 z M 118.88895,186.55561 c -0.24442,-0.24441 -3.80692,-0.91755 -7.91667,-1.49587 -20.809129,-2.92821 -32.282669,-6.71956 -39.22228,-12.96071 -2.947304,-2.65066 -3.411278,-4.9949 -1.642661,-8.2996 1.029356,-1.92336 1.67736,-2.02154 9.201389,-1.39406 9.309209,0.77636 21.180282,-0.7734 27.203162,-3.55136 5.29515,-2.4423 16.24885,-12.41261 22.12363,-20.13743 4.75956,-6.25841 10.16347,-16.30437 12.21969,-22.71658 0.61729,-1.925 2.52647,-8 4.24261,-13.5 1.71614,-5.5 3.48282,-10.9 3.92594,-12 0.44313,-1.1 1.36174,-6.179449 2.04137,-11.287664 1.10448,-8.301538 1.54639,-9.549106 4.162,-11.75 3.3137,-2.788295 5.44698,-3.070904 8.30036,-1.099601 2.99525,2.069307 7.81386,2.836662 20.97251,3.339828 12.68546,0.485071 20.04792,-0.581923 26.71016,-3.870934 7.29927,-3.603495 8.44048,-2.036854 4.13185,5.672134 -3.1465,5.62969 -4.17433,9.898876 -5.29572,21.996237 -2.25238,24.29834 -4.24598,40.23909 -5.31517,42.5 -0.65024,1.375 -3.40877,5.875 -6.13006,10 -11.79576,17.8803 -23.41392,31 -27.45208,31 -1.04264,0 -5.35529,-2.07938 -9.58367,-4.62085 l -7.68796,-4.62085 -11.38533,-0.41308 c -13.33328,-0.48376 -12.90313,-0.80818 -13.79756,10.40634 -0.3181,3.98836 -0.85604,7.70086 -1.19543,8.25 -0.60303,0.97574 -7.7298,1.43434 -8.61008,0.55405 z m 68.60527,-97.54626 c 0.89627,-1.450194 -4.84908,-11.454009 -6.79325,-11.828422 -1.07207,-0.20646 -2.72448,1.363515 -4.67916,4.445729 -3.46893,5.469944 -3.72911,7.041859 -1.27181,7.684017 3.38614,0.884891 12.139,0.677938 12.74422,-0.301324 z m 14.83621,-0.08414 c 2.55941,-0.710696 3.65794,-1.513147 3.31059,-2.418312 C 204.62476,83.858575 199.96202,77 199.17783,77 c -0.88665,0 -3.06577,11.778726 -2.31754,12.526957 0.65716,0.657155 1.11978,0.606263 5.47014,-0.601747 z M 166,85.059017 c 0,-1.617541 -0.45,-3.219098 -1,-3.559017 -0.55,-0.339919 -1,-1.941476 -1,-3.559017 0,-4.700512 -2.18683,-3.825708 -6.78291,2.713387 -2.93072,4.169698 -2.81294,4.865166 1.03291,6.098882 6.07913,1.950133 7.75,1.584863 7.75,-1.694235 z M 129.49137,118.75 c 0.35765,-1.7875 1.30331,-5.91252 2.10147,-9.16672 0.79816,-3.25419 1.66164,-12.569075 1.91886,-20.699741 0.39226,-12.399632 0.85255,-15.805612 2.85499,-21.1256 1.31304,-3.488414 2.7123,-8.266006 3.10948,-10.616871 1.11078,-6.57464 3.56289,-7.127181 11.28611,-2.543133 3.43075,2.036287 6.23772,4.303394 6.23772,5.038014 0,0.734621 -1.70675,2.465149 -3.79278,3.845618 -3.29173,2.178364 -3.94542,3.270121 -4.9482,8.264189 -0.63548,3.164834 -1.39431,8.21623 -1.68629,11.225324 -0.50096,5.162881 -2.74473,13.416742 -4.69348,17.26535 -0.48359,0.95504 -0.87925,2.19744 -0.87925,2.7609 0,1.11123 -2.88576,7.97878 -6.1991,14.75267 -1.38215,2.8257 -2.72914,4.25 -4.01932,4.25 -1.656,0 -1.84515,-0.47648 -1.29021,-3.25 z"/>
    <path style="fill:#cb6371" d="m 116,244.966 c -0.825,-0.504 -3.75,-1.87239 -6.5,-3.04085 -2.75,-1.16846 -5.9,-2.513 -7,-2.98788 -1.80721,-0.78018 -12.436314,-3.72194 -21.5,-5.95044 -1.925,-0.4733 -5.561553,-1.37618 -8.081229,-2.0064 -7.517627,-1.88029 -9.917835,-1.13356 -11.795991,3.66987 -3.986886,10.19655 -10.286971,11.27504 -11.789158,2.01814 -0.578385,-3.56416 0.380561,-7.47416 5.804802,-23.66844 1.565882,-4.675 2.850324,-9.48594 2.854317,-10.69098 0.004,-1.20504 0.396607,-2.43162 0.872476,-2.72572 0.475869,-0.2941 1.147372,-2.00816 1.492228,-3.80902 0.344856,-1.80085 1.017722,-5.17386 1.495257,-7.49556 C 62.8437,183.46064 62.387544,182.83624 55,178.89857 52.525,177.57936 50.35,176.1625 50.166667,175.75 49.983333,175.3375 49.265578,175 48.571654,175 c -0.693923,0 -2.037341,-0.8571 -2.985373,-1.90466 -1.51316,-1.67202 -1.572089,-2.4354 -0.482464,-6.25 C 46.972662,160.30282 48.501562,159 54.310597,159 c 3.801126,0 5.791484,0.60322 8.297679,2.51479 3.018146,2.30205 3.322209,3.03635 3.59439,8.68027 l 0.297334,6.16549 6.959159,3.76206 c 14.714841,7.95472 30.990471,12.11428 46.047981,11.76849 8.98526,-0.20634 10.62278,0.0261 13.73478,1.9494 4.92512,3.04389 6.37955,4.93803 4.9157,6.40188 -0.63669,0.63669 -1.15762,1.94645 -1.15762,2.91057 0,0.96412 -0.52223,2.89912 -1.16052,4.3 C 134.93175,209.4452 133.9486,210 131.32592,210 c -1.84418,0 -4.13445,-0.45237 -5.08949,-1.00526 -0.95504,-0.55289 -6.68643,-2.98149 -12.73643,-5.39688 -6.05,-2.41539 -15.854601,-6.44233 -21.788001,-8.94877 -5.933401,-2.50644 -11.339245,-4.34562 -12.012988,-4.08708 -0.673743,0.25854 -1.819368,1.92535 -2.545832,3.70403 -0.726465,1.77868 -1.688274,4.13396 -2.137353,5.23396 -0.449078,1.1 -1.680079,4.025 -2.735557,6.5 -4.038732,9.47046 -4.710354,12.71277 -2.989764,14.43336 0.861651,0.86165 1.979644,1.56664 2.484428,1.56664 0.504785,0 2.224428,0.62592 3.821429,1.39094 1.597001,0.76502 4.478638,2.06266 6.403638,2.88364 1.925,0.82099 5.632596,2.44506 8.239102,3.60906 2.606505,1.164 5.419005,2.11636 6.25,2.11636 C 97.320096,232 98,232.45 98,233 c 0,0.60065 4.09337,1.00601 10.25,1.01506 11.06982,0.0163 18.02691,1.68839 18.58856,4.46776 0.1862,0.92146 -0.20589,2.98978 -0.87132,4.59628 -1.03106,2.48919 -1.7462,2.91221 -4.83856,2.86209 C 119.13291,245.90885 116.825,245.47001 116,244.966 Z m 48.25,-22.99716 c -2.9985,-1.20525 -2.88681,-4.44516 0.29714,-8.61953 l 2.54714,-3.33948 2.90424,2.1472 c 4.05659,2.99916 4.29242,4.34376 1.37081,7.81589 -2.69774,3.20608 -3.52889,3.4391 -7.11933,1.99592 z"/>
  </symbol>
  <symbol id="trail" viewBox="0 0 300 300">
    <path style="fill:#888" d="M 145.5,277.17447 C 122.72376,265.25816 114.02559,259.09289 99.452062,244.53562 84.074549,229.17525 75.565141,218.20934 62.953037,197.5 56.097538,186.24313 48.140005,171.42924 45.911033,165.77429 44.775122,162.89246 42.814717,158.27682 41.554576,155.5173 38.401688,148.61296 31.199595,125.69398 30.079324,119 c -1.905601,-11.38659 -2.220788,-16.21382 -1.032802,-15.81783 0.62795,0.20932 4.181414,5.99146 7.896586,12.8492 12.040212,22.22473 15.885802,28.73355 24.517181,41.49638 18.953417,28.02554 36.431678,46.50549 59.539711,62.95197 6.17714,4.39641 14.14976,8.95804 31,17.73705 17.3452,9.03689 25.8933,13.80157 26.48848,14.76459 0.93276,1.50923 -18.32634,30.02248 -20.2521,29.98342 -0.95501,-0.0194 -6.68638,-2.62501 -12.73638,-5.79031 z m 50.16315,-84.99419 c -0.90575,-1.00084 -2.51199,-4.33436 -3.56941,-7.40782 -3.65201,-10.61475 -15.19065,-31.8912 -23.05412,-42.51016 -1.31865,-1.78074 -2.20452,-3.38879 -1.96859,-3.57345 0.7238,-0.5665 18.9061,-9.68885 19.31144,-9.68885 0.76184,0 7.47859,16.68624 9.45951,23.5 4.0522,13.9383 5.96362,30.7945 4.2244,37.2535 -1.26806,4.7092 -1.98172,5.10252 -4.40323,2.42678 z m -20.5748,-8.2748 c -3.32502,-1.32445 -14.76872,-9.43831 -19.467,-13.80257 -6.05394,-5.62355 -15.47296,-18.79499 -16.19578,-22.64798 C 138.42315,142.1116 139.98786,141 148.51166,141 c 5.46033,0 7.78472,0.43503 9.35033,1.75 1.14595,0.9625 5.03067,7.6 8.63269,14.75 3.60202,7.15 7.88132,15.06263 9.50954,17.58363 3.09569,4.79309 4.19941,8.98954 2.49578,9.48919 -0.55,0.16131 -2.08524,-0.139 -3.41165,-0.66734 z M 117.5,134.35256 c -13.8153,-1.60154 -31.742436,-5.47895 -34.001952,-7.35418 -0.562285,-0.46666 -3.509841,-1.77916 -6.550124,-2.91667 C 69.747463,121.38767 54.129526,112.13193 47.698086,106.74722 41.373374,101.45188 31.314847,88.921063 28.743569,83.133876 27.037786,79.294662 26.980883,78.590545 28.272057,77.299371 30.085766,75.485663 42.767779,73.550989 62.5,72.077809 c 8.25,-0.615934 17.475,-1.349155 20.5,-1.62938 3.025,-0.280226 12.925,-0.902786 22,-1.383467 17.83621,-0.944742 22.32765,-1.991983 32.5,-7.577812 7.34587,-4.033757 25.87059,-11.349283 38,-15.006435 4.95,-1.49248 9.5067,-3.119987 10.12599,-3.616682 1.8355,-1.472139 16.56749,-3.247332 20.61186,-2.483713 4.789,0.904216 5.85215,2.968849 6.43507,12.496923 0.72544,11.857553 -3.58165,30.730014 -10.18384,44.622757 -3.14984,6.62809 -10.01666,14.57711 -17.71653,20.50862 -5.73904,4.42101 -19.1471,11.09959 -26.06071,12.9809 -11.79713,3.21018 -29.8338,4.68204 -41.21184,3.36304 z M 271,91.892235 C 265.775,89.098243 258.23065,84.326583 254.23477,81.288545 244.09744,73.581195 230.02075,58.163995 230.00374,54.75 c -0.01,-1.93372 5.44569,-0.313489 14.28728,4.243321 11.40636,5.878644 24.38804,11.114299 34.35661,13.856397 3.9312,1.081372 9.2152,2.88071 11.74222,3.99853 l 4.59457,2.032401 -5.74221,9.028952 C 286.084,92.875525 282.825,96.946128 282,96.955386 c -0.825,0.0093 -5.775,-2.26916 -11,-5.063151 z M 107.00051,59.929818 C 101.14742,57.471126 96,49.786284 96,43.506594 c 0,-1.965195 1.128973,-5.801003 2.50883,-8.524018 3.44439,-6.797169 8.4188,-9.347526 17.14799,-8.791693 10.09849,0.643023 15.42655,5.813538 16.1389,15.661691 0.81496,11.266733 -5.26051,18.35009 -16.16576,18.847561 -3.37148,0.153799 -7.25473,-0.192844 -8.62945,-0.770317 z"/>
  </symbol>
</svg>
