<?xml version="1.0" encoding="UTF-8" standalone="no"?>
<!-- Various icons created with help of Inkscape (http://www.inkscape.org/) -->
<svg version="1.1">
  <symbol id="heart" viewBox="0 0 300 300">
    <path d="M 142.60959,239.44301 C 113.95321,222.16358 85.878166,200.14007 65.960999,179.31593 34.762678,146.69692 25.58634,117.48388 38.520684,91.959182 44.836353,79.49581 59.46944,65.48697 70.949494,60.913786 78.618407,57.858805 93.1368,57.186091 101.94215,59.477733 c 13.29152,3.459193 26.87142,11.182516 40.38467,22.968066 l 7.75335,6.762057 8.70991,-8.364533 c 24.65648,-23.678741 50.65888,-30.815814 72.23571,-19.827073 11.53148,5.872805 25.70955,20.774076 31.15572,32.744938 10.07795,22.151642 2.90076,46.630652 -22.5704,76.980142 -16.43339,19.58077 -46.61543,44.60439 -77.99281,64.66304 -6.53493,4.1776 -12.15993,7.59447 -12.5,7.59306 -0.34006,-0.001 -3.26898,-1.6009 -6.50871,-3.55442 z"/>
  </symbol>
  <symbol id="candle" viewBox="0 0 300 300">
    <path d="M 120.5,270.37631 C 106.13946,268.69198 97.386844,266.22075 90.081499,261.78791 80.205463,255.7952 80.590573,257.28941 79.87295,222.17903 79.528072,205.30556 78.958924,189.25 78.608176,186.5 78.257428,183.75 77.535605,167.79625 77.004124,151.04722 76.472644,134.29819 75.307902,113.78047 74.415809,105.45228 72.483555,87.413618 73.251287,81.451427 78.371933,74.729097 84.871113,66.197042 94.077339,63.135901 115.75,62.300604 L 131,61.712845 V 48.034561 c 0,-16.305565 1.47967,-22.13649 6.37489,-25.121471 5.61845,-3.425991 10.65579,-2.13244 12.51993,3.215024 0.60785,1.743683 1.10518,9.573082 1.10518,17.398665 0,11.826071 0.27029,14.452655 1.60091,15.556972 1.03298,0.857292 8.90504,1.959415 22.18984,3.106673 23.6378,2.04133 30.18343,3.583756 34.80002,8.200348 5.53852,5.538518 5.80917,8.220618 4.55201,45.109228 -0.61855,18.15 -1.59068,51.225 -2.16029,73.5 -1.68697,65.97002 -1.30846,60.10258 -4.26705,66.1449 -3.25131,6.64014 -8.00613,9.90886 -18.51891,12.73091 -15.89725,4.26745 -44.69467,5.31565 -68.69653,2.5005 z M 153.01155,196.25 c 3.93595,-2.28267 10.79008,-8.05418 17.5168,-14.75 13.37165,-13.31022 17.50437,-20.22507 18.24102,-30.52079 1.03974,-14.5317 -6.39421,-24.1634 -20.89797,-27.07617 -8.96987,-1.80141 -14.83949,0.75865 -21.5673,9.40664 l -2.18582,2.80967 -5.57937,-4.54445 C 131.25148,125.6392 127.93817,124 123.2278,124 c -10.23621,0 -18.14947,5.91689 -22.22651,16.61917 -2.965743,7.78512 -2.824923,13.1771 0.52285,20.01969 7.47958,15.28771 33.43154,39.31803 42.49861,39.35176 1.38752,0.005 5.43247,-1.67812 8.9888,-3.74062 z"/>
  </symbol>
  <symbol id="ascended-candle" viewBox="0 0 300 300">
    <defs>
      <radialGradient id="ac-gradient" gradientUnits="userSpaceOnUse" cx="48%" cy="52%" r="100">
        <stop offset="35%" stop-color="#9D3752"/>
        <stop offset="100%" stop-color="#FFDCCF"/>
      </radialGradient>
    </defs>
    <path style="fill:url('#ac-gradient');stroke: #9D3752;stroke-width: 2px;" d="M 132.19253,271.95392 C 109.84932,270.24014 97.72766,267.24222 88.061479,261.03945 79.819795,255.75078 79.721195,255.29293 78.900339,218.5 77.899922,173.6587 76.263326,133.04076 74.770363,116 74.071664,108.025 73.511182,97.225 73.524849,92 c 0.02912,-11.133955 1.803503,-15.557322 8.560808,-21.341324 6.489118,-5.554444 13.995804,-7.609561 32.485773,-8.893684 l 16.07144,-1.116157 -0.0714,-12.574417 c -0.0841,-14.798712 1.33242,-20.974279 5.64275,-24.601186 3.5813,-3.013464 9.66455,-3.369707 12.07419,-0.70708 2.74694,3.035331 3.82011,10.744087 3.148,22.612567 -0.85742,15.14074 -1.25595,14.726189 15.17162,15.78167 28.83453,1.852636 37.83926,3.715032 43.17231,8.929073 6.13884,6.001848 5.98043,1.253327 3.21615,96.410538 -0.51128,17.6 -1.20867,42.8 -1.54977,56 -0.72442,28.03361 -1.61228,32.6656 -7.36387,38.41719 -4.41499,4.41499 -11.90372,7.24094 -25.08281,9.46527 -11.35149,1.91586 -32.88987,2.63897 -46.80747,1.57146 z"/>
    <path style="fill:#fff" d="m 140.78738,211.25 c -0.97969,-1.12602 -1.72812,-4.78076 -2.09902,-10.25 -1.18159,-17.42369 -7.36292,-29.73213 -17.40411,-34.65552 C 116.1549,163.82946 114.19795,163.46824 104,163.15414 92.035288,162.78563 89,161.74267 89,158 c 0,-3.26299 3.252468,-4.73243 11.95614,-5.4017 15.31156,-1.17738 25.88251,-4.55111 30.81059,-9.83324 3.93609,-4.21887 6.41475,-13.19983 6.97291,-25.26506 0.54544,-11.79016 1.62804,-14.5 5.7929,-14.5 1.22242,0 2.67423,0.5625 3.22626,1.25 0.55203,0.6875 1.22744,6.2 1.50091,12.25 0.6374,14.10138 3.33173,22.01489 9.74029,28.60813 6.23844,6.41821 13.37124,8.96103 27.39521,9.76627 8.84755,0.50802 11.10188,0.9545 11.99488,2.3756 0.79965,1.27254 0.79946,2.22746 -7.1e-4,3.5 -0.85493,1.35965 -3.19591,1.92163 -10.49488,2.51944 -16.11782,1.32011 -25.11446,4.76537 -31.55735,12.08487 -5.01982,5.70283 -7.4862,13.50763 -8.10421,25.64569 -0.26604,5.225 -0.93238,10.0625 -1.48076,10.75 -1.41826,1.77804 -4.18453,1.54616 -5.9648,-0.5 z"/>
  </symbol>
  <symbol id="flaps" viewBox="0 0 300 300">
    <path d="m 136.47523,237.14822 c -0.94203,-0.3224 -5.37388,-1.07972 -9.84858,-1.68253 -6.08635,-0.81994 -8.13574,-1.82968 -8.13574,-4.00854 0,-3.48593 23.77276,-108.2021 25.02357,-110.22604 0.47904,-0.77464 2.05942,-1.40839 3.5126,-1.40839 2.34634,0 2.54086,6.41831 1.73763,57.3382 -0.49717,31.536 -1.39201,58.12701 -1.98789,59.09118 -1.03079,1.66784 -6.62617,2.15458 -10.30159,0.89612 z m 17.51621,-0.28161 c -0.46801,-0.78679 -0.96463,-27.44356 -1.10394,-59.23722 -0.24147,-55.13687 -0.10745,-57.80654 2.90681,-57.80654 2.74271,0 4.78594,7.09556 15.47129,53.72648 6.77118,29.5496 12.31131,55.00359 12.31131,56.56442 0,1.56083 -1.7342,3.49422 -3.85377,4.29635 -5.97487,2.26121 -24.78029,4.05652 -25.7317,2.45651 z m -60.335974,-10.7412 c -6.594188,-2.71085 -11.811088,-5.72856 -11.592995,-6.70605 0.455076,-2.03982 47.636719,-93.36567 51.204869,-99.11327 2.37267,-3.82184 7.48709,-3.73438 7.49272,0.12822 0.006,4.85075 -29.74154,108.28833 -31.46597,109.40896 -2.63439,1.71205 -2.14998,1.82722 -15.638624,-3.71782 z m 97.986294,3.7441 c -0.38581,-0.70653 -7.51953,-25.80966 -15.85297,-55.78464 -12.69078,-45.64811 -14.74924,-54.74878 -12.67395,-56.0319 1.5743,-0.97329 3.18737,-0.77378 4.42382,0.54702 1.07033,1.14348 13.33152,23.95905 27.24703,50.70127 19.03723,36.58477 24.89021,49.27335 23.64185,51.25244 -0.91251,1.44663 -6.23686,4.38368 -11.83192,6.5268 -11.04994,4.23259 -13.87777,4.75993 -14.95386,2.7888 z M 61.581968,208.42911 c -5.394009,-3.98685 -10.096575,-8.0196 -10.450229,-8.96162 -0.780636,-2.07963 73.658431,-85.40964 76.997751,-86.19417 1.29872,-0.30493 2.80102,0.59104 3.33846,1.99159 1.3375,3.48534 -54.15109,100.33869 -57.509492,100.38084 -1.413046,0.0194 -6.982482,-3.22978 -12.37649,-7.21664 z m 162.490622,3.4561 c -1.32156,-2.11957 -14.11346,-24.1534 -28.42631,-48.96411 -24.40521,-42.30531 -28.2402,-51.13028 -21.57492,-49.64778 3.64084,0.80978 76.30429,82.23056 76.30429,85.5004 0,2.72937 -18.52006,16.96524 -22.07079,16.96524 -1.00613,0 -2.91063,-1.73419 -4.23227,-3.85375 z m -6.929,-59.352 c -29.36459,-29.38374 -40.61644,-41.71193 -39.86271,-43.67607 0.57743,-1.50516 1.80695,-2.73661 2.73195,-2.73661 3.27231,0 96.05465,62.19995 96.05465,64.39363 0,1.79136 -16.2562,22.95857 -17.63189,22.95857 -0.20848,0 -18.78994,-18.42276 -41.292,-40.93952 z M 35.375365,184.48048 c -6.3137,-7.28719 -10.55209,-14.46167 -9.225041,-15.61571 0.38854,-0.33793 21.781295,-14.64856 47.539412,-31.80142 43.671874,-29.08195 53.016024,-33.97263 51.350784,-26.87654 -0.88643,3.77704 -77.922303,81.57303 -80.776026,81.57303 -1.420159,0 -5.420286,-3.27573 -8.889129,-7.27936 z M 14.046174,151.31723 C 11.103177,145.08834 8.9278304,138.8268 9.2120641,137.40269 9.7961696,134.47614 114.35472,97.114424 118.18931,98.462024 c 1.24719,0.43825 2.01793,2.017596 1.71283,3.509546 -0.57095,2.79152 -94.34732,60.67084 -98.299264,60.67084 -1.213185,0 -4.613705,-5.09635 -7.556702,-11.32518 z M 230.67858,133.54719 c -26.37693,-15.99538 -48.20775,-30.25385 -48.51284,-31.68541 -0.30493,-1.43163 0.46543,-2.973816 1.71276,-3.427086 1.2472,-0.45314 26.15468,7.471556 55.35011,17.610716 39.35875,13.66886 53.22798,19.1902 53.64507,21.35618 0.71759,3.72597 -9.79699,25.24289 -12.33117,25.23454 -1.0482,-0.003 -23.48695,-13.09348 -49.86393,-29.08894 z m -91.90104,-33.00187 c -4.97537,-4.205846 -8.29706,-9.818256 -8.29706,-14.018814 0,-2.61188 18.56188,-26.651395 20.57865,-26.651395 2.06505,0 20.52827,23.843126 20.52827,26.509948 0,4.300911 -4.708,12.388465 -8.93528,15.349381 -5.81259,4.07134 -18.39293,3.44471 -23.87458,-1.18912 z"/>
  </symbol>
</svg>
