<?xml version="1.0" encoding="UTF-8" standalone="no"?>
<!-- Created with Inkscape (http://www.inkscape.org/) -->

<svg
   version="1.1"
   width="300"
   height="300"
   viewBox="0 0 300 300"
   id="svg1836"
   sodipodi:docname="map-shrine.svg"
   xml:space="preserve"
   inkscape:version="1.2.2 (732a01da63, 2022-12-09)"
   xmlns:inkscape="http://www.inkscape.org/namespaces/inkscape"
   xmlns:sodipodi="http://sodipodi.sourceforge.net/DTD/sodipodi-0.dtd"
   xmlns:xlink="http://www.w3.org/1999/xlink"
   xmlns="http://www.w3.org/2000/svg"
   xmlns:svg="http://www.w3.org/2000/svg"><sodipodi:namedview
     id="namedview1838"
     pagecolor="#ffffff"
     bordercolor="#000000"
     borderopacity="0.25"
     inkscape:showpageshadow="2"
     inkscape:pageopacity="0.0"
     inkscape:pagecheckerboard="0"
     inkscape:deskcolor="#d1d1d1"
     showgrid="false"
     inkscape:zoom="1.9433333"
     inkscape:cx="92.367067"
     inkscape:cy="184.21955"
     inkscape:window-width="2560"
     inkscape:window-height="1369"
     inkscape:window-x="1912"
     inkscape:window-y="-8"
     inkscape:window-maximized="1"
     inkscape:current-layer="svg1836" /><defs
     id="defs1830"><linearGradient
       inkscape:collect="always"
       id="linearGradient10438"><stop
         style="stop-color:#6d95c0;stop-opacity:1;"
         offset="0"
         id="stop10434" /><stop
         style="stop-color:#2f496e;stop-opacity:1;"
         offset="1"
         id="stop10436" /></linearGradient><radialGradient
       id="bg"
       cx="50%"
       cy="50%"
       r="50%"
       fx="50%"
       fy="50%"><stop
         offset="-50%"
         style="stop-color: #ADAD48; stop-opacity: 1"
         id="stop1825" /><stop
         offset="150%"
         style="stop-color: #ADAD48; stop-opacity: 0"
         id="stop1827" /></radialGradient><radialGradient
       inkscape:collect="always"
       xlink:href="#linearGradient10438"
       id="radialGradient10440"
       cx="150"
       cy="150"
       fx="150"
       fy="150"
       r="150"
       gradientUnits="userSpaceOnUse" /></defs><rect
     style="fill:url(#radialGradient10440);fill-opacity:1;stroke:none;stroke-width:13.0977;stop-color:#000000"
     id="rect3894"
     width="300"
     height="300"
     x="0"
     y="0"
     rx="45"
     ry="45" /><path
     id="path3839"
     style="display:inline;fill:#ffffff;fill-opacity:1"
     d="M 149 25.5 C 146.5918 25.5 146.44714 25.869961 145.08398 35.597656 C 144.30564 41.151828 143.96538 46.466058 144.32617 47.40625 C 144.83164 48.723485 145.9583 49.045885 149.24023 48.808594 L 153.5 48.5 L 153.76367 42 C 153.90817 38.425004 153.45817 33.249997 152.76367 30.5 C 151.67016 26.170065 151.16497 25.5 149 25.5 z M 249.30078 61.003906 C 247.53303 61.06015 244.594 62.003593 241.49219 63.650391 C 234.53722 67.342891 219.90194 77.297772 217.52344 79.953125 C 214.92052 82.859023 214.82003 89.665049 217.35352 91.517578 C 220.30615 93.676602 224.33672 91.503234 233.54883 82.783203 C 241.49749 75.259138 251 63.88718 251 61.900391 C 251 61.254747 250.36143 60.97016 249.30078 61.003906 z M 61.021484 63.128906 C 60.18706 63.139537 59.699279 63.618899 59.357422 64.509766 C 58.578154 66.540505 66.089409 77.901607 73.041016 85.207031 C 77.113473 89.486765 79.096244 90.899679 80.351562 90.417969 C 82.365895 89.644997 85 84.95596 85 82.142578 C 85 79.835593 77.87481 73.198852 69.003906 67.242188 C 64.764715 64.395642 62.412192 63.111188 61.021484 63.128906 z M 148.23438 65 C 144.23785 65 141.20948 68.857795 137.42773 78.765625 C 125.33559 110.44603 116.85825 119.24244 81.876953 136.40039 C 73.283824 140.61524 65.440956 144.96078 64.449219 146.05664 C 62.70875 147.97983 62.716539 148.14258 64.65625 150.77344 C 65.946883 152.52394 72.729116 156.54097 83.615234 162 C 103.32543 171.88402 107.63084 174.86055 118.57031 186.16211 C 128.36953 196.28568 130.93064 200.00539 138.92383 215.73242 C 142.34339 222.46061 146.29482 228.87311 147.70508 229.98242 C 154.73214 235.50992 159.85704 230.55447 172.4375 206.06445 C 182.23786 186.98638 188.5419 177.97502 195.83008 172.625 C 198.5636 170.61842 206.82863 166.11901 214.19531 162.62695 C 229.47709 155.38287 233.73453 151.70698 231.79102 147.44141 C 230.3142 144.20015 226.62715 141.99318 213.91602 136.74023 C 208.18037 134.36996 200.90802 130.71858 197.75391 128.625 C 186.23005 120.97589 178.04848 110.17009 162.45508 82 C 156.24214 70.776091 151.41064 65 148.23438 65 z M 148.48242 87.820312 C 149.2998 87.708331 150.28266 90.562968 152.13086 97.232422 C 154.72672 106.59988 159.82955 117.51093 165.18359 125.14844 C 172.20882 135.1699 188.00579 145.71013 200.07227 148.42773 C 202.83728 149.05047 204.96711 149.99798 204.80664 150.53125 C 204.64617 151.06451 202.41412 152.24003 199.8457 153.14453 C 186.78773 157.74306 172.7482 168.48393 165.95117 179.07617 C 163.15526 183.43321 161.37702 187.69122 154.39258 206.75 C 153.53596 209.0875 152.53151 211 152.16016 211 C 151.78881 211 149.98036 206.55795 148.14258 201.12891 C 139.63694 176.00212 120.46357 157.40202 96.886719 151.4043 C 86.54861 148.77439 86.489162 148.88304 100.98828 144.04492 C 115.3549 139.25102 125.53827 132.35161 133.45312 122.05273 C 140.36328 113.06117 142.80008 107.50276 147.04102 91.042969 C 147.56165 89.022317 147.992 87.887501 148.48242 87.820312 z M 149.83203 135.43359 C 146.54369 135.54386 143.21381 136.85455 140.50391 139.56445 C 134.11086 145.9575 135.24401 155.61346 143 160.82617 C 145.8444 162.7379 147.42448 163.0929 151.4375 162.71875 C 155.52525 162.33763 156.94042 161.64122 159.65625 158.67773 C 163.46078 154.52628 164.47883 151.36628 163.57031 146.52344 C 162.23117 139.3852 156.10977 135.22309 149.83203 135.43359 z M 50.080078 143.17773 C 49.076213 143.17667 47.924294 143.26533 46.609375 143.43359 C 38.109409 144.52129 26 148.10097 26 149.52539 C 26 150.34776 29.792734 151.77706 36.25 153.39062 C 51.194629 157.12506 56 156.03535 56 148.91211 C 56 144.85812 54.430161 143.18233 50.080078 143.17773 z M 251.74414 146.13672 C 249.82231 146.15987 248.56997 146.58363 246.65625 147.49219 C 244.54228 148.49582 242.30766 150.42285 241.69141 151.77539 C 240.70886 153.93183 240.91293 154.52797 243.3418 156.61719 C 245.49833 158.47217 247.26248 158.99587 251.30664 158.98438 C 260.35167 158.95864 274 155.02698 274 152.44727 C 274 150.63083 266.68697 148.02458 258.07031 146.76953 C 255.13866 146.34252 253.2389 146.11871 251.74414 146.13672 z M 218.89453 206.43359 C 218.18344 206.4467 217.37119 206.78991 216.05469 207.4707 C 212.78785 209.16005 211 211.76647 211 214.83594 C 211 217.02865 217.95376 223.34418 230.83594 232.84961 L 230.83594 232.84766 C 241.45514 240.68328 246.73774 241.05104 242.84766 233.68359 C 239.90601 228.11241 225.05937 210.13191 221.12891 207.37891 C 220.21559 206.73921 219.60562 206.42049 218.89453 206.43359 z M 76.880859 215 C 75.370325 215 66.259357 223.87425 62.578125 228.93164 C 58.646558 234.33295 57.600739 237.26947 58.429688 240.57227 C 58.764827 241.90757 59.636596 243 60.367188 243 C 63.066803 243 84 224.00425 84 221.55469 C 84 220.07766 78.484959 215 76.880859 215 z M 153.50391 241.16016 C 152.27834 241.17365 151.02545 241.93727 149.30664 243.41797 C 146.58827 245.75945 146.5023 246.12754 146.5957 255.1875 C 146.68758 264.10171 148.05426 270.98154 150.28906 273.79297 C 152.53112 276.61352 154.43225 274.42122 157.15234 265.88281 C 158.66033 261.14922 160.19876 254.98449 160.57031 252.18359 C 161.20166 247.4243 161.04575 246.89145 158.19922 244.04492 C 156.24525 242.09095 154.89288 241.14486 153.50391 241.16016 z " /></svg>
