<?xml version="1.0" encoding="UTF-8" standalone="no"?>
<!-- Created with Inkscape (http://www.inkscape.org/) -->

<svg
   version="1.1"
   id="svg2"
   width="300"
   height="300"
   viewBox="0 0 300 300"
   sodipodi:docname="question.svg"
   xml:space="preserve"
   inkscape:version="1.2.2 (732a01da63, 2022-12-09)"
   xmlns:inkscape="http://www.inkscape.org/namespaces/inkscape"
   xmlns:sodipodi="http://sodipodi.sourceforge.net/DTD/sodipodi-0.dtd"
   xmlns="http://www.w3.org/2000/svg"
   xmlns:svg="http://www.w3.org/2000/svg"><sodipodi:namedview
     id="namedview1103"
     pagecolor="#ffffff"
     bordercolor="#000000"
     borderopacity="0.25"
     inkscape:showpageshadow="2"
     inkscape:pageopacity="0.0"
     inkscape:pagecheckerboard="0"
     inkscape:deskcolor="#d1d1d1"
     showgrid="false"
     inkscape:zoom="1.9433333"
     inkscape:cx="81.560892"
     inkscape:cy="172.38422"
     inkscape:window-width="2560"
     inkscape:window-height="1369"
     inkscape:window-x="1912"
     inkscape:window-y="-8"
     inkscape:window-maximized="1"
     inkscape:current-layer="svg2" /><defs
     id="defs6"><filter
       inkscape:collect="always"
       style="color-interpolation-filters:sRGB"
       id="filter4794"
       x="-0.075854049"
       y="-0.044882001"
       width="1.151108"
       height="1.0893597"><feGaussianBlur
         inkscape:collect="always"
         stdDeviation="1.9494"
         id="feGaussianBlur4796" /></filter></defs><path
     style="fill:#000000;stroke-width:12.3;stroke-dasharray:none;stroke:#753f4b;filter:url(#filter4794)"
     d="m 138.31627,270.63252 c -21.2953,-8.95009 -22.66026,-38.23603 -2.256,-48.4039 11.9287,-5.94432 25.40442,-2.49255 33.00677,8.45461 3.50223,5.04309 4.35698,9.7266 4.42128,14.91016 0.0614,4.95234 -1.0108,10.02579 -3.86942,14.34547 -5.07754,7.67267 -11.41713,11.23231 -20.66126,11.60115 -4.26069,0.17 -9.0493,-0.23837 -10.64137,-0.90749 z m -3.73793,-72.61122 c -11.74318,-6.20374 -14.27671,-19.42403 -6.12366,-31.95393 3.74705,-5.7586 16.78859,-20.71472 30.61575,-35.11036 13.7102,-14.27387 18.41439,-23.1849 18.44718,-34.944026 0.0182,-6.503933 -0.49165,-8.47406 -3.28661,-12.701588 -6.57032,-9.937991 -25.33178,-14.511537 -35.00484,-8.533254 -6.11862,3.781515 -10.16996,10.402918 -11.66794,19.069767 -2.06407,11.941991 -5.34491,17.233601 -13.15697,21.220641 -15.816906,8.07247 -32.292859,0.0137 -35.973763,-17.595647 -4.046821,-19.359862 9.257666,-45.885345 29.544333,-58.903262 14.22643,-9.129073 39.11468,-12.912556 58.21017,-8.849041 20.60424,4.384577 39.37516,18.411852 48.18076,36.004892 5.97649,11.940665 7.5455,19.863716 6.82351,34.456638 -0.82146,16.60335 -6.37472,30.98805 -18.33939,47.50479 -6.57032,9.07008 -44.79445,48.04546 -49.44734,50.41918 -5.64497,2.87985 -13.27443,2.84548 -18.82119,-0.0848 z"
     id="path2326"
     sodipodi:nodetypes="sssasssssscssssssssssss" /><path
     style="fill:#f6f6e1;stroke-width:1.17188"
     d="m 138.31627,270.63252 c -21.2953,-8.95009 -22.66026,-38.23603 -2.256,-48.4039 11.9287,-5.94432 25.40442,-2.49255 33.00677,8.45461 3.50223,5.04309 4.35698,9.7266 4.42128,14.91016 0.0614,4.95234 -1.0108,10.02579 -3.86942,14.34547 -5.07754,7.67267 -11.41713,11.23231 -20.66126,11.60115 -4.26069,0.17 -9.0493,-0.23837 -10.64137,-0.90749 z m -3.73793,-72.61122 c -11.74318,-6.20374 -14.27671,-19.42403 -6.12366,-31.95393 3.74705,-5.7586 16.78859,-20.71472 30.61575,-35.11036 13.7102,-14.27387 18.41439,-23.1849 18.44718,-34.944026 0.0182,-6.503933 -0.49165,-8.47406 -3.28661,-12.701588 -6.57032,-9.937991 -25.33178,-14.511537 -35.00484,-8.533254 -6.11862,3.781515 -10.16996,10.402918 -11.66794,19.069767 -2.06407,11.941991 -5.34491,17.233601 -13.15697,21.220641 -15.816906,8.07247 -32.292859,0.0137 -35.973763,-17.595647 -4.046821,-19.359862 9.257666,-45.885345 29.544333,-58.903262 14.22643,-9.129073 39.11468,-12.912556 58.21017,-8.849041 20.60424,4.384577 39.37516,18.411852 48.18076,36.004892 5.97649,11.940665 7.5455,19.863716 6.82351,34.456638 -0.82146,16.60335 -6.37472,30.98805 -18.33939,47.50479 -6.57032,9.07008 -44.79445,48.04546 -49.44734,50.41918 -5.64497,2.87985 -13.27443,2.84548 -18.82119,-0.0848 z"
     id="path4788"
     sodipodi:nodetypes="sssasssssscssssssssssss" /></svg>
