<?xml version="1.0" encoding="UTF-8" standalone="no"?>
<!-- Created with Inkscape (http://www.inkscape.org/) -->

<svg
   version="1.1"
   id="svg2"
   width="300"
   height="300"
   viewBox="0 0 300 300"
   xmlns="http://www.w3.org/2000/svg"
   xmlns:svg="http://www.w3.org/2000/svg">
  <defs
     id="defs6" />
  <g
     id="g8"
     style="fill:#f5f6e1;fill-opacity:1;stroke:#753f48;stroke-width:2;stroke-dasharray:none;stroke-opacity:1"
     transform="matrix(1.5152759,0,0,1.5152759,-77.332146,-78.812548)">
    <path
       transform="rotate(-45.051592)"
       d="m 108.18977,207.469 c -1.26913,-1.26913 -3.02505,-2.05398 -4.96999,-2.05398 l -37.81228,4.7e-4 a 68.48774,68.48774 0 0 0 -19.3743,-39.13206 68.48774,68.48774 0 0 0 -96.857017,-0.0872 68.48774,68.48774 0 0 0 -19.30122,39.21878 l -37.549873,7.1e-4 c -3.88989,0 -7.02077,3.13205 -7.02077,7.02194 l 8.3e-4,3.67778 c 0,3.8899 3.13067,7.02215 7.02056,7.02215 l 37.438001,5.7e-4 a 68.48774,68.48774 0 0 0 19.325257,39.91509 68.48774,68.48774 0 0 0 96.857017,0.0872 68.48774,68.48774 0 0 0 19.556043,-40.00299 l 37.718362,-5.6e-4 c 3.88989,0 7.02077,-3.13205 7.02077,-7.02194 l 5.5e-4,-3.6764 c 0,-1.94495 -0.78281,-3.70042 -2.05194,-4.96955 z M 33.34199,179.18913 a 50.374252,50.374252 0 0 1 13.82712,26.22651 l -98.785067,-5.6e-4 a 50.374252,50.374252 0 0 1 13.716967,-26.2901 50.374252,50.374252 0 0 1 71.24098,0.0642 z m 14.003132,43.94716 a 50.374252,50.374252 0 0 1 -14.068661,27.29244 50.374252,50.374252 0 0 1 -71.238217,-0.0642 50.374252,50.374252 0 0 1 -13.830362,-27.22779 z"
       id="path3"
       style="fill:#f5f6e1;fill-opacity:1;stroke:#753f48;stroke-width:3.29972911;stroke-dasharray:none;stroke-opacity:1" />
  </g>
</svg>
