<?xml version="1.0" encoding="UTF-8" standalone="no"?>
<svg
   height="20"
   viewBox="0 -960 640 800"
   width="16"
   version="1.1"
   id="svg184"
   xmlns="http://www.w3.org/2000/svg"
   xmlns:svg="http://www.w3.org/2000/svg">
  <defs
     id="defs188" />
  <path
     fill="#04f"
     d="m 320,-560 q 29.00943,0 49.66767,-21.17822 20.65823,-21.17821 20.65823,-50.91783 0,-29.73963 -20.65823,-50.91784 -20.65824,-21.17822 -49.66767,-21.17822 -29.00943,0 -49.66767,21.17822 -20.65823,21.17821 -20.65823,50.91784 0,29.73962 20.65823,50.91783 Q 290.99057,-560 320,-560 Z m 0,360.48027 Q 178.46913,-322.98422 108.58276,-428.8753 38.696398,-534.76638 38.696398,-624.88645 q 0,-135.1801 84.830622,-215.38696 84.83061,-80.20686 196.47298,-80.20686 111.64237,0 196.47298,80.20686 84.83062,80.20686 84.83062,215.38696 0,90.12007 -69.88636,196.01115 Q 461.53087,-322.98422 320,-199.51973 Z"
     id="path182"
     style="fill:#ff8a00;fill-opacity:1;fill-rule:nonzero;stroke:#000000;stroke-width:40;stroke-dasharray:none;stroke-opacity:1;paint-order:normal" />
</svg>
